<?xml version="1.0" encoding="UTF-8"?>
<svg version="1.1" viewBox="0 0 325 100" xml:space="preserve" xmlns="http://www.w3.org/2000/svg">
<path d="m70.9 5-7.17 2.79-43.3 16.8h-15.3v44.3c0 7.01 3.44 14 10 18.8 6.58 4.72 16 7.33 28.4 7.33h38.6v-70.4h-11.1l-0.129-19.6zm170 10.1c-0.177 0-0.32 0.143-0.32 0.32v21.8c0 0.177 0.144 0.32 0.32 0.32h21.8c0.177 0 0.318-0.143 0.318-0.32v-21.8c0-0.177-0.142-0.32-0.318-0.32h-21.8zm57.6 0c-0.177 0-0.32 0.143-0.32 0.32v21.8c0 0.177 0.144 0.32 0.32 0.32h21.8c0.177 0 0.32-0.143 0.32-0.32v-21.8c0-0.177-0.144-0.32-0.32-0.32h-21.8zm-25.6 0.0391c-0.177 0-0.318 0.143-0.318 0.32v2.88h2.88c0.177 0 0.32-0.143 0.32-0.32v-2.56c0-0.177-0.144-0.32-0.32-0.32h-2.56zm-0.318 3.2h-2.88c-0.177 0-0.32 0.141-0.32 0.318v2.88h2.88c0.177 0 0.32-0.143 0.32-0.32v-2.88zm-3.2 3.2h-2.88c-0.177 0-0.32 0.143-0.32 0.32v2.56c0 0.177 0.144 0.318 0.32 0.318h2.56 0.32v-3.2zm0 3.2v6.08c0 0.177 0.144 0.32 0.32 0.32h2.56 0.32v-6.08c0-0.177-0.144-0.32-0.32-0.32h-2.88zm3.2 6.4v6.08c0 0.177 0.142 0.32 0.318 0.32h2.88v-2.88c0-0.177 0.144-0.318 0.32-0.318h2.56c0.177 0 0.318 0.141 0.318 0.318v2.88h2.88l0.32 0.0195v-12.5c0-0.177-0.143-0.32-0.32-0.32h-2.88v6.08c0 0.177-0.142 0.32-0.318 0.32h-6.08zm6.4-6.4v-2.88c0-0.177-0.142-0.32-0.318-0.32h-2.56c-0.177 0-0.32 0.143-0.32 0.32v2.56c0 0.177 0.144 0.318 0.32 0.318h2.56 0.318zm0 12.8h-3.2v2.88c0 0.177 0.144 0.318 0.32 0.318h2.56 0.318v-3.2zm6.72-22.4c-0.177 0-0.32 0.143-0.32 0.32v2.56c0 0.177-0.144 0.32-0.32 0.32h-2.56c-0.177 0-0.32 0.141-0.32 0.318v2.56c0 0.177 0.144 0.32 0.32 0.32h8.96c0.177 0 0.32-0.143 0.32-0.32v-5.76c0-0.177-0.144-0.32-0.32-0.32h-5.76zm-41.7 3.16h15.4c0.177 0 0.32 0.143 0.32 0.32v15.4c0 0.177-0.144 0.32-0.32 0.32h-15.4c-0.177 0-0.32-0.143-0.32-0.32v-15.4c0-0.177 0.144-0.32 0.32-0.32zm57.6 0h15.4c0.177 0 0.32 0.143 0.32 0.32v15.4c0 0.177-0.144 0.32-0.32 0.32h-15.4c-0.177 0-0.32-0.143-0.32-0.32v-15.4c0-0.177 0.144-0.32 0.32-0.32zm-241 2.14v14.7h11.1v49.3h-28c-10.9 0-18.1-2.37-22.2-5.34-4.15-2.98-5.61-6.35-5.61-10.2v-33.7h6.76l38-14.8zm187 1.1c-0.177 0-0.32 0.143-0.32 0.32v8.96c0 0.177 0.144 0.32 0.32 0.32h8.96c0.177 0 0.32-0.143 0.32-0.32v-8.96c0-0.177-0.144-0.32-0.32-0.32h-8.96zm57.6 0c-0.177 0-0.318 0.143-0.318 0.32v8.96c0 0.177 0.142 0.32 0.318 0.32h8.96c0.177 0 0.32-0.143 0.32-0.32v-8.96c0-0.177-0.144-0.32-0.32-0.32h-8.96zm-138 3.04-5.61 0.555v31.9h5.61v-32.5zm118 0.16c-0.177 0-0.32 0.143-0.32 0.32v2.56c0 0.177 0.144 0.32 0.32 0.32h2.56c0.177 0 0.32 0.143 0.32 0.32v6.02h-2.86c-0.177 0-0.32 0.143-0.32 0.32v2.56c0 0.177-0.142 0.32-0.318 0.32h-2.88v2.88c0 0.177-0.143 0.32-0.32 0.32h-2.88v2.88c0 0.177-0.144 0.32-0.32 0.32h-2.56c-0.177 0-0.32 0.143-0.32 0.32v2.56c0 0.177-0.144 0.318-0.32 0.318h-2.86v-2.82c0-0.177-0.144-0.32-0.32-0.32h-2.56c-0.177 0-0.32-0.143-0.32-0.32v-8.96c1e-5 -0.177-0.144-0.318-0.32-0.318h-2.56c-0.177 0-0.32 0.141-0.32 0.318v5.76c0 0.177-0.144 0.318-0.32 0.318h-12.2c-0.177 0-0.32 0.143-0.32 0.32v2.56c0 0.177-0.144 0.32-0.32 0.32h-2.56c-0.177 0-0.32-0.143-0.32-0.32v-2.56c0-0.177-0.144-0.32-0.32-0.32h-8.96c-0.177 0-0.318 0.143-0.318 0.32v2.56c0 0.177 0.142 0.32 0.318 0.32h2.56c0.177 0 0.32 0.143 0.32 0.32v2.88h6.08c0.177 0 0.32 0.143 0.32 0.32v2.88h6.4v-2.88c0-0.177 0.142-0.32 0.318-0.32h2.88v-2.88c0-0.177 0.144-0.32 0.32-0.32h2.56c0.177 0 0.318 0.143 0.318 0.32v2.88h2.88c0.177 0 0.32 0.143 0.32 0.32v2.88h2.88 0.34v2.82c0 0.177 0.144 0.32 0.32 0.32h2.56c0.177 0 0.32 0.143 0.32 0.32v5.76c0 0.177 0.144 0.32 0.32 0.32h5.76c0.177 0 0.32-0.143 0.32-0.32v-6.08h-2.88c-0.177 0-0.32-0.143-0.32-0.32v-2.56c0-0.177 0.144-0.32 0.32-0.32h2.56c0.177 0 0.32 0.143 0.32 0.32v2.88h2.88c0.177 0 0.32 0.143 0.32 0.32v12.2c0 0.177-0.143 0.318-0.32 0.318h-2.88v2.88c0 0.177-0.144 0.32-0.32 0.32h-2.56c-0.177 0-0.32 0.143-0.32 0.32v2.56c0 0.177-0.144 0.32-0.32 0.32h-5.76c-0.177 0-0.32-0.143-0.32-0.32v-2.86h2.86c0.177 0 0.32-0.143 0.32-0.32v-2.56c0-0.177-0.144-0.318-0.32-0.318h-2.56c-0.177 0-0.32 0.141-0.32 0.318v2.86h-3.18v12.5c0 0.177 0.144 0.32 0.32 0.32h8.96c0.177 0 0.32 0.141 0.32 0.318v2.88h2.88v-0.0605c0.177 0 0.32-0.143 0.32-0.32v-6.08h-2.88c-0.177 0-0.32-0.141-0.32-0.318v-2.56c0-0.177 0.144-0.32 0.32-0.32h2.56c0.177 0 0.32 0.143 0.32 0.32v2.88h6.4v-6.08c0-0.177-0.142-0.32-0.318-0.32h-2.56c-0.177 0-0.32-0.143-0.32-0.32v-2.56c0-0.177 0.144-0.32 0.32-0.32h2.56c0.177 0 0.318-0.143 0.318-0.32v-2.56c0-0.177 0.144-0.32 0.32-0.32h2.56c0.177 0 0.32-0.143 0.32-0.32v-2.56c0-0.177-0.144-0.32-0.32-0.32h-2.56c-0.177 0-0.32-0.141-0.32-0.318v-8.96c0-0.177 0.144-0.32 0.32-0.32h9.28v-6.34h2.86c0.177 0 0.32 0.143 0.32 0.32v2.56c0 0.177 0.144 0.32 0.32 0.32h2.56c0.177 0 0.32-0.143 0.32-0.32v-8.96c0-0.177-0.144-0.32-0.32-0.32h-5.76c-0.177 0-0.32-0.141-0.32-0.318v-5.76c0-0.177-0.142-0.318-0.318-0.318h-2.88v6.08c0 0.177-0.144 0.318-0.32 0.318h-2.88v2.88c0 0.177 0.141 0.32 0.318 0.32h5.76c0.177 0 0.318 0.143 0.318 0.32v2.82h-2.86c-0.177 1e-6 -0.32 0.143-0.32 0.32v2.56c0 0.177-0.144 0.32-0.32 0.32h-2.56c-0.177 0-0.32-0.143-0.32-0.32v-2.56c0-0.177-0.144-0.32-0.32-0.32h-2.56c-0.177 1e-6 -0.32 0.143-0.32 0.32v2.56c0 0.177-0.142 0.32-0.318 0.32h-2.56c-0.177 0-0.32-0.143-0.32-0.32v-5.76c0-0.177 0.144-0.32 0.32-0.32h2.56c0.177 0 0.318-0.143 0.318-0.32v-2.56c0-0.177 0.144-0.32 0.32-0.32h2.88v-6.34h2.86 0.32v-9.28c0-0.177-0.144-0.32-0.32-0.32h-5.76zm-9.9 60.8h-9.28c-0.177 0-0.32 0.143-0.32 0.32v8.96c0 0.177 0.144 0.32 0.32 0.32h5.76c0.177 0 0.32-0.143 0.32-0.32v-5.76c0-0.177 0.144-0.32 0.32-0.32h2.88v-3.2zm0 3.2v2.88c0 0.177 0.144 0.32 0.32 0.32h2.56 0.32v-2.88c0-0.177-0.144-0.32-0.32-0.32h-2.88zm3.2 3.2v2.88c0 0.177 0.142 0.32 0.318 0.32h2.56c0.177 0 0.32-0.143 0.32-0.32v-2.56c0-0.177-0.143-0.32-0.32-0.32h-2.88zm-12.8-41.6h-3.2v2.88c0 0.177-0.142 0.32-0.318 0.32h-2.56c-0.177 0-0.32-0.143-0.32-0.32v-2.88h-3.2v6.08c0 0.177 0.142 0.318 0.318 0.318h5.76c0.177 0 0.318 0.143 0.318 0.32v2.88h2.88c0.177 0 0.32 0.143 0.32 0.32v2.56c0 0.177 0.144 0.32 0.32 0.32h2.56c0.177 0 0.32-0.143 0.32-0.32v-5.76c0-0.177-0.144-0.32-0.32-0.32h-2.56c-0.177 0-0.32-0.141-0.32-0.318v-6.08zm-3.2 9.6h-2.88c-0.177 0-0.32 0.143-0.32 0.32v2.88h2.88c0.177 0 0.318-0.143 0.318-0.32v-2.88zm-3.2-9.6h2.88 0.318v-3.2h-3.2v3.2zm-9.6 0h-2.88c-0.177 0-0.32 0.141-0.32 0.318v2.56c0 0.177 0.144 0.32 0.32 0.32h2.56c0.177 0 0.32-0.143 0.32-0.32v-2.88zm-6.4-3.2h-2.88c-0.177 0-0.318 0.143-0.318 0.32v8.96c0 0.177 0.142 0.318 0.318 0.318h2.56 0.32v-9.6zm0 9.6v3.2h2.88c0.177 0 0.318-0.143 0.318-0.32v-2.56c0-0.177-0.142-0.32-0.318-0.32h-2.88zm0 3.2h-2.88c-0.177 0-0.318 0.143-0.318 0.32v2.56c0 0.177 0.142 0.32 0.318 0.32h2.56 0.301v3.2h-2.86c-0.177 0-0.318 0.141-0.318 0.318v2.56c0 0.177 0.142 0.32 0.318 0.32h2.56c0.177 0 0.32-0.143 0.32-0.32v-2.88h12.5c0.177 0 0.32 0.141 0.32 0.318v2.56c0 0.177 0.142 0.32 0.318 0.32h8.96 0.301v-2.88c0-0.177-0.144-0.318-0.32-0.318h-5.76c-0.177 0-0.32-0.143-0.32-0.32v-2.88h-16v-3.2zm-101-34.9-5.71 0.0723v31.9h5.7v-7.67l1.52-1.64 7.43 9.29h6.84l-10.6-13.2 9.23-9.92h-6.96l-7.5 8.04v-16.9zm-42.9 2.79-5.61 0.598v5.54h-3.18v5.54h3.18v9.83c0 4.6 3.78 8.33 8.38 8.33 1.77 0 4.63-0.516 4.63-0.516l-0.684-5.32s-2.41 0.281-3.94 0.281c-1.52 0-2.77-1.27-2.77-2.79v-9.83h6.71v-5.54h-6.71l-0.00976-6.12zm124 0-5.64 0.598v5.54h-3.18v5.54h3.18v9.83c0 4.6 3.78 8.33 8.38 8.33 1.77 0 4.63-0.516 4.63-0.516l-0.676-5.32s-2.41 0.281-3.94 0.281c-1.52 0-2.77-1.27-2.77-2.79v-9.83h6.71v-5.54h-6.71l0.0156-6.12zm-15.4 5.51v0.0293c-2.81 0-4.85 0.956-6.3 2.55v-1.99h-5.61v23.1h5.61v-11.9c0-3.47 2.81-6.26 6.3-6.26 1.73 0 2.81 0.199 2.81 0.199v-5.48s-1.84-0.318-2.81-0.318zm-26.2 0.0254 0.0176 0.00391c-2.81 0-5.73 1.08-8.22 3.54v0.0371c-2.17 2.27-3.37 5.35-3.37 8.54 0 6.73 5.29 12.2 11.9 12.2 6.58 0 9.17-2.39 9.17-2.39l-2.41-4.6s-3.21 1.36-6.74 1.36c-2.85 0-5.26-1.88-6.11-4.51h16.9v-2.43c-0.0369-5.51-3.05-9.3-6.84-10.9-1.33-0.557-2.77-0.836-4.22-0.836zm-60.8 0.00391c-6.58 0-11.9 5.48-11.9 12.2 0 6.7 5.35 12.1 11.9 12.1 2.81 0 4.85-0.955 6.3-2.59v2.03h5.64v-23.1h-5.64v2.04c-1.45-1.64-3.5-2.63-6.3-2.63zm60.8 5.54c0.684 0 1.37 0.12 1.97 0.398 1.57 0.679 2.81 2.15 3.24 4.16h-11.1c0.321-0.958 0.799-1.88 1.52-2.59 1.33-1.32 2.85-1.96 4.35-1.96l0.0039-0.0137zm-60.8 0.043c3.37 0 6.05 2.71 6.3 6.1v0.92c-0.241 3.38-2.93 6.13-6.3 6.13-3.53 0-6.3-2.99-6.3-6.57 0-3.6 2.77-6.57 6.3-6.57v-0.0137zm190 1.77c-0.177 0-0.32 0.143-0.32 0.32v2.56c0 0.177 0.144 0.32 0.32 0.32h2.56c0.177 0 0.32-0.143 0.32-0.32v-2.56c0-0.177-0.144-0.32-0.32-0.32h-2.56zm-289 2.4v7.92h13.2v-7.92h-13.2zm24.8 0v7.92h13.2v-7.92h-13.2zm270 0.801c-0.177 0-0.32 0.143-0.32 0.32v2.56c0 0.177-0.144 0.32-0.32 0.32h-5.76c-0.177 0-0.32 0.143-0.32 0.32v2.56c0 0.177 0.144 0.32 0.32 0.32h2.56c0.177 0 0.32 0.141 0.32 0.318v5.76c0 0.177 0.144 0.318 0.32 0.318h2.56c0.177 0 0.32 0.143 0.32 0.32v2.56c0 0.177-0.144 0.32-0.32 0.32h-6.08v2.88c0 0.177 0.144 0.32 0.32 0.32h2.56c0.177 0 0.32 0.143 0.32 0.32v2.56c0 0.177 0.144 0.32 0.32 0.32h2.56c0.177 0 0.32-0.143 0.32-0.32v-2.56c0-0.177 0.143-0.32 0.32-0.32h2.56c0.177 0 0.32-0.143 0.32-0.32v-8.96c0-0.177-0.144-0.32-0.32-0.32h-2.56c-0.177 0-0.32-0.143-0.32-0.32v-2.56c0-0.177 0.143-0.318 0.32-0.318h2.56c0.177 0 0.32-0.143 0.32-0.32v-5.76c0-0.177-0.144-0.32-0.32-0.32h-2.56zm-6.72 16v-6.08c0-0.177-0.141-0.32-0.318-0.32h-2.56c-0.177 0-0.32 0.143-0.32 0.32v5.76c0 0.177 0.144 0.32 0.32 0.32h2.56 0.318zm-41.2-12.8h2.86v2.82c0 0.177-0.144 0.32-0.32 0.32h-2.86v-2.82c1e-5 -0.177 0.144-0.32 0.32-0.32zm35.2 0c-0.177 0-0.318 0.143-0.318 0.32v2.56c0 0.177 0.142 0.32 0.318 0.32h2.56c0.177 0 0.32-0.143 0.32-0.32v-2.56c0-0.177-0.144-0.32-0.32-0.32h-2.56zm-9.92 6.4v2.88c0 0.177-0.142 0.318-0.318 0.318h-2.56c-0.177 0-0.32 0.143-0.32 0.32v5.76c0 0.177 0.144 0.32 0.32 0.32h2.56c0.177 0 0.318-0.143 0.318-0.32v-2.56c0-0.177 0.143-0.32 0.32-0.32h6.08v-2.88c0-0.177 0.144-0.32 0.32-0.32h2.56c0.177 0 0.32-0.141 0.32-0.318v-2.56c0-0.177-0.143-0.32-0.32-0.32h-9.28zm6.4 6.4v3.2h-2.86c-0.177 0-0.32 0.143-0.32 0.32v2.56c0 0.177-0.144 0.32-0.32 0.32h-5.76c-0.177 0-0.32 0.141-0.32 0.318v5.76c0 0.177-0.144 0.318-0.32 0.318h-2.56c-0.177 0-0.32 0.143-0.32 0.32v2.56c0 0.177 0.143 0.32 0.32 0.32h2.56c0.177 0 0.32 0.143 0.32 0.32v5.76c0 0.177 0.144 0.32 0.32 0.32h8.96c0.177 0 0.318 0.141 0.318 0.318v2.56c0 0.177 0.144 0.32 0.32 0.32h2.56c0.177 0 0.32 0.143 0.32 0.32v6.08h6.08v0.0391c0.177 0 0.32-0.143 0.32-0.32v-2.56c0-0.177-0.143-0.32-0.32-0.32h-2.56c-0.177 0-0.32-0.143-0.32-0.32v-2.56c0-0.177 0.144-0.32 0.32-0.32h5.76c0.177 0 0.32-0.141 0.32-0.318v-2.88h-2.88c-0.177 0-0.318-0.143-0.318-0.32v-15.4c0-0.177-0.143-0.318-0.32-0.318h-2.56c-0.177 0-0.32-0.143-0.32-0.32v-2.56c0-0.177-0.144-0.32-0.32-0.32h-2.88v2.88c0 0.177-0.143 0.32-0.32 0.32h-2.56c-0.177 0-0.32-0.143-0.32-0.32v-2.88h2.86 0.32v-2.88c0-0.177-0.143-0.32-0.32-0.32h-2.88zm3.22 32h-2.88c-0.177 0-0.32-0.143-0.32-0.32v-2.56c0-0.177-0.142-0.32-0.318-0.32h-2.56c-0.177 0-0.32 0.143-0.32 0.32v5.76c0 0.177 0.144 0.32 0.32 0.32h5.76c0.177 0 0.32-0.143 0.32-0.32v-2.88zm-28.5-28.8c-0.177 0-0.32 0.143-0.32 0.32v2.56c0 0.177 0.144 0.32 0.32 0.32h2.56 0.318v-2.88c0-0.177-0.142-0.32-0.318-0.32h-2.56zm-124 2.08-0.0488 0.0156c-6.3 0-10.5 4.22-10.5 8.89 0 0.635 0.091 1.26 0.232 1.88 0.485 1.96 1.61 3.44 3.04 4.45 1.43 1.01 3.13 1.6 4.91 2.03 1.5 0.36 3.06 0.648 4.35 1.05 0.621 0.203 1.12 0.435 1.43 0.691 0.31 0.258 0.489 0.491 0.564 1.05v0.0566l0.0176 0.0527c1e-3 0.0063 0-0.0379 0 0.0898 0 0.416-0.215 0.799-0.854 1.19-0.639 0.394-1.69 0.678-2.92 0.678-3.56 0-6.74-1.87-6.74-1.87l-1.03-0.645-3.59 5.7 1.04 0.641s4.66 2.89 10.3 2.89c6.33 0 10.6-4.1 10.6-8.67 0-0.363-0.0267-0.689-0.0723-1v-0.0195c-0.384-2.65-1.77-4.54-3.56-5.76-1.8-1.21-3.94-1.81-6.08-2.26-1.22-0.259-2.37-0.466-3.31-0.801-0.466-0.172-0.823-0.345-1.04-0.518-0.214-0.172-0.315-0.31-0.4-0.645l-0.0176-0.0332v-0.0176c-9e-3 -0.047-0.0195-0.0753-0.0195-0.266 0-0.479 0.247-0.947 0.869-1.38 0.624-0.432 1.61-0.764 2.8-0.764 1.65 0 2.8 0.351 3.53 0.674 0.724 0.322 0.945 0.555 0.945 0.555l0.816 0.764 5.01-4.38-0.758-0.893s-0.823-0.946-2.38-1.78c-1.56-0.836-3.94-1.64-7.15-1.64zm-59.9 0.463v28h11.1c7.78-0.0351 14.1-6.29 14.1-14 0-7.7-6.36-13.9-14.1-14h-11.1zm27.9 0v28h19.9v-6.89h-12.9v-3.6h9.45v-6.95h-9.45v-3.66h12.9v-6.86h-19.9zm45.7 0v28h6.99v-28h-6.99zm24.4 0.0332c-8.1 0-14.7 6.48-14.7 14.4s6.58 14.5 14.7 14.5c4.35 0 8.47-1.87 11.2-5.13l0.291-0.34v-12h-13.5v6.95h6.55v1.98c-1.31 0.97-2.86 1.64-4.54 1.64-4.22 0-7.65-3.41-7.65-7.54 0-4.16 3.43-7.51 7.65-7.51 2.03 0 4 0.83 5.42 2.23l0.852 0.84 5.01-4.88-0.875-0.855c-2.76-2.71-6.52-4.22-10.4-4.22l-0.0156-0.0195zm14.3 0v28h6.99v-16.3l11.5 16.3h7.37v-28h-7.02v16.3l-11.4-16.3h-7.37zm110 3.8c-0.177 0-0.32 0.143-0.32 0.32v12.5h6.08v0.0195c0.177 0 0.32-0.143 0.32-0.32v-12.2c0-0.177-0.144-0.32-0.32-0.32h-5.76zm-19.2 0.0195h8.96c0.177 0 0.32 0.143 0.32 0.32v8.96c0 0.177-0.143 0.32-0.32 0.32h-8.96c-0.177 0-0.32-0.143-0.32-0.32v-8.96c0-0.177 0.143-0.32 0.32-0.32zm-196 3h3.97c4 0 7.18 3.16 7.18 7.1s-3.18 7.11-7.18 7.11h-3.97v-14.2zm141 0.16c-0.177 0-0.32 0.143-0.32 0.32v21.8c0 0.177 0.144 0.32 0.32 0.32h21.8c0.177 0 0.32-0.143 0.32-0.32v-21.8c0-0.177-0.144-0.32-0.32-0.32h-21.8zm57.6 0.0391c-0.177 0-0.32 0.143-0.32 0.32v2.56c0 0.177 0.144 0.32 0.32 0.32h2.56c0.177 0 0.32-0.143 0.32-0.32v-2.56c0-0.177-0.144-0.32-0.32-0.32h-2.56zm-54.4 3.16h15.4c0.177 0 0.32 0.143 0.32 0.32v15.4c0 0.177-0.144 0.32-0.32 0.32h-15.4c-0.177 0-0.318-0.143-0.318-0.32v-15.4c0-0.177 0.142-0.32 0.318-0.32zm3.26 3.24c-0.177 0-0.318 0.143-0.318 0.32v8.96c0 0.177 0.142 0.318 0.318 0.318h8.96c0.177 0 0.32-0.141 0.32-0.318v-8.96c0-0.177-0.144-0.32-0.32-0.32h-8.96zm38.1 0v2.88c0 0.177 0.144 0.32 0.32 0.32h2.56c0.177 0 0.32-0.143 0.32-0.32v-2.56c0-0.177-0.144-0.32-0.32-0.32h-2.88zm-2.88 6.4c-0.177 0-0.32 0.143-0.32 0.32v2.56c0 0.177 0.144 0.318 0.32 0.318h2.56c0.177 0 0.318-0.141 0.318-0.318v-2.56c0-0.177-0.142-0.32-0.318-0.32h-2.56zm6.4 0c-0.177 0-0.32 0.143-0.32 0.32v8.96c0 0.177 0.143 0.32 0.32 0.32h5.76c0.177 0 0.32-0.143 0.32-0.32v-8.96c0-0.177-0.144-0.32-0.32-0.32h-5.76zm28.8 0c-0.177 0-0.32 0.143-0.32 0.32v2.88h2.88c0.177 0 0.32-0.141 0.32-0.318v-2.56c0-0.177-0.144-0.32-0.32-0.32h-2.56zm-0.32 3.2h-2.88c-0.177 0-0.32 0.143-0.32 0.32v5.76c0 0.177 0.144 0.32 0.32 0.32h5.76c0.177 0 0.32-0.143 0.32-0.32v-2.56c0-0.177-0.144-0.32-0.32-0.32h-2.56c-0.177 0-0.32-0.143-0.32-0.32v-2.88z" style="fill:#2a2e39;stroke-width:14.8"/>



</svg>
