<?xml version="1.0" encoding="UTF-8"?>
<svg version="1.1" viewBox="0 0 325 100" xml:space="preserve" xmlns="http://www.w3.org/2000/svg">
<g transform="matrix(3.15 0 0 3.13 -1074 469)">

<path transform="translate(-1.33e-6)" d="m394-142-1.78 0.177v10.2h1.78zm-9.75 0.177v10.2h1.81v-2.45l0.484-0.523 2.36 2.97h2.17l-3.35-4.23 2.93-3.17h-2.21l-2.38 2.57v-5.39zm-11.8 0.868-1.78 0.191v1.77h-1.01v1.77h1.01v3.14c0 1.47 1.2 2.66 2.66 2.66 0.561 0 1.47-0.165 1.47-0.165l-0.217-1.7s-0.765 0.0895-1.25 0.0895c-0.484 0-0.88-0.407-0.88-0.892v-3.14h2.13v-1.77h-2.13zm39.3 0-1.79 0.191v1.77h-1.01v1.77h1.01v3.14c0 1.47 1.2 2.66 2.66 2.66 0.561 0 1.47-0.165 1.47-0.165l-0.215-1.7s-0.765 0.0895-1.25 0.0895c-0.484 0-0.88-0.407-0.88-0.892v-3.14h2.13v-1.77h-2.13zm-32.5 1.77c-2.09 0-3.79 1.75-3.79 3.89s1.7 3.87 3.79 3.87c0.892 0 1.54-0.305 2-0.828v0.649h1.79v-7.39h-1.79v0.651c-0.459-0.523-1.11-0.842-2-0.842zm19.3 0c-0.892 0-1.82 0.344-2.61 1.13v0.012c-0.688 0.726-1.07 1.71-1.07 2.73 0 2.15 1.68 3.89 3.77 3.89s2.91-0.764 2.91-0.764l-0.766-1.47s-1.02 0.434-2.14 0.434c-0.905 0-1.67-0.6-1.94-1.44h5.35v-0.776c-0.0117-1.76-0.969-2.97-2.17-3.48-0.421-0.178-0.879-0.267-1.34-0.267zm8.3 0c-0.892 0-1.54 0.306-2 0.816v-0.637h-1.78v7.39h1.78v-3.79c0-1.11 0.893-2 2-2 0.548 0 0.892 0.0637 0.892 0.0637v-1.75s-0.586-0.102-0.892-0.102zm-8.29 1.77c0.217 0 0.434 0.0382 0.625 0.127 0.497 0.217 0.893 0.688 1.03 1.33h-3.52c0.102-0.306 0.254-0.599 0.484-0.828 0.421-0.421 0.905-0.625 1.38-0.625zm-19.3 0.0138c1.07 0 1.92 0.865 2 1.95v0.294c-0.0766 1.08-0.93 1.96-2 1.96-1.12 0-2-0.956-2-2.1 0-1.15 0.88-2.1 2-2.1zm10 8.39c-2 0-3.34 1.35-3.34 2.84 0 0.203 0.0293 0.402 0.0742 0.599 0.154 0.627 0.51 1.1 0.963 1.42 0.453 0.324 0.993 0.511 1.56 0.649 0.477 0.115 0.973 0.207 1.38 0.337 0.197 0.0648 0.357 0.139 0.455 0.221 0.0983 0.0823 0.155 0.157 0.179 0.337v0.0182l6e-3 0.0167c3.8e-4 2e-3 0-0.012 0 0.0288 0 0.133-0.0684 0.255-0.271 0.381-0.203 0.126-0.536 0.217-0.928 0.217-1.13 0-2.14-0.598-2.14-0.598l-0.328-0.206-1.14 1.82 0.329 0.205s1.48 0.924 3.28 0.924c2.01 0 3.37-1.31 3.37-2.77 0-0.116-9e-3 -0.22-0.0235-0.32v-6e-3c-0.122-0.847-0.56-1.45-1.13-1.84-0.57-0.385-1.25-0.577-1.93-0.723-0.387-0.0828-0.752-0.149-1.05-0.256-0.148-0.055-0.261-0.11-0.329-0.165-0.0678-0.0551-0.1-0.099-0.127-0.206l-6e-3 -0.0106v-6e-3c-3e-3 -0.015-6e-3 -0.0241-6e-3 -0.0849 0-0.153 0.0784-0.302 0.276-0.44 0.198-0.138 0.511-0.244 0.889-0.244 0.525 0 0.888 0.112 1.12 0.215 0.23 0.103 0.3 0.177 0.3 0.177l0.259 0.244 1.59-1.4-0.241-0.285s-0.261-0.302-0.755-0.569-1.25-0.525-2.27-0.525zm-19 0.143v8.93h3.51c2.47-0.0112 4.49-2.01 4.49-4.47s-2.02-4.45-4.49-4.46zm8.86 0v8.93h6.33v-2.2h-4.11v-1.15h3v-2.22h-3v-1.17h4.11v-2.19zm14.5 0v8.93h2.22v-8.93zm7.74 0.0106c-2.57 0-4.66 2.07-4.66 4.6s2.09 4.62 4.66 4.62c1.38 0 2.69-0.598 3.57-1.64l0.0924-0.109v-3.83h-4.3v2.22h2.08v0.632c-0.416 0.31-0.908 0.525-1.44 0.525-1.34 0-2.43-1.09-2.43-2.41 0-1.33 1.09-2.4 2.43-2.4 0.644 0 1.27 0.265 1.72 0.713l0.27 0.268 1.59-1.56-0.278-0.273c-0.876-0.866-2.07-1.35-3.3-1.35zm4.53 0v8.93h2.22v-5.22l3.64 5.22h2.34v-8.93h-2.23v5.21l-3.63-5.21zm-33.4 2.18h1.26c1.27 0 2.28 1.01 2.28 2.27s-1.01 2.27-2.28 2.27h-1.26z" style="fill:#2a2e39;stroke-width:4.7"/></g>

<path d="m70.9 5-7.17 2.79-43.3 16.8h-15.3v44.3c0 7.01 3.44 14 10 18.8 6.58 4.72 16 7.33 28.4 7.33h38.6v-70.4h-11.1zm-10.6 15.4v14.7h11.1v49.3h-28c-10.9 0-18.1-2.37-22.2-5.34-4.15-2.98-5.61-6.35-5.61-10.2v-33.7h6.76zm-38 22.7v7.92h13.2v-7.92zm24.8 0v7.92h13.2v-7.92z" style="fill:#2a2e39;stroke-width:16"/>

<path d="m320 95.1h-5.76c-0.176 0-0.32-0.143-0.32-0.32v-5.76c0-0.177 0.143-0.32 0.32-0.32h2.88v2.88c0 0.177 0.143 0.32 0.32 0.32h2.56c0.176 0 0.32 0.143 0.32 0.32v2.56c0 0.177-0.143 0.32-0.32 0.32zm-16 0h-5.76c-0.176 0-0.32-0.143-0.32-0.32v-5.76c0-0.177 0.143-0.32 0.32-0.32h2.56c0.176 0 0.32 0.143 0.32 0.32v2.56c0 0.177 0.143 0.32 0.32 0.32h2.88v2.88c0 0.177-0.143 0.32-0.32 0.32zm-9.6 0h-5.76c-0.177 0-0.32-0.143-0.32-0.32v-8.96c0-0.177 0.143-0.32 0.32-0.32h5.76c0.176 0 0.32 0.143 0.32 0.32v8.96c0 0.177-0.143 0.32-0.32 0.32zm-12.8 0h-2.56c-0.176 0-0.32-0.143-0.32-0.32v-2.88h2.88c0.177 0 0.32 0.143 0.32 0.32v2.56c0 0.177-0.143 0.32-0.32 0.32zm-9.6 0h-5.76c-0.176 0-0.32-0.143-0.32-0.32v-8.96c0-0.177 0.143-0.32 0.32-0.32h9.28v3.2h-2.88c-0.176 0-0.32 0.143-0.32 0.32v5.76c0 0.177-0.143 0.32-0.32 0.32zm-9.6 0h-21.8c-0.176 0-0.32-0.143-0.32-0.32v-21.8c0-0.177 0.143-0.32 0.32-0.32h21.8c0.176 0 0.32 0.143 0.32 0.32v21.8c0 0.177-0.143 0.32-0.32 0.32zm48-3.2h-6.08v-6.08c0-0.177-0.143-0.32-0.32-0.32h-2.56c-0.176 0-0.32-0.143-0.32-0.32v-2.56c0-0.177-0.143-0.32-0.32-0.32h-8.96c-0.176 0-0.32-0.143-0.32-0.32v-5.76c0-0.177-0.143-0.32-0.32-0.32h-2.56c-0.177 0-0.32-0.143-0.32-0.32v-2.56c0-0.177 0.143-0.32 0.32-0.32h2.56c0.176 0 0.32-0.143 0.32-0.32v-5.76c0-0.177 0.143-0.32 0.32-0.32h5.76c0.176 0 0.32-0.143 0.32-0.32v-2.56c0-0.177 0.143-0.32 0.32-0.32h2.88v2.88c0 0.177 0.143 0.32 0.32 0.32h2.56c0.177 0 0.32-0.143 0.32-0.32v-2.88h2.88c0.176 0 0.32 0.143 0.32 0.32v2.56c0 0.177 0.143 0.32 0.32 0.32h2.56c0.177 0 0.32 0.143 0.32 0.32v15.4c0 0.177 0.143 0.32 0.32 0.32h2.88v2.88c0 0.177-0.143 0.32-0.32 0.32h-5.76c-0.176 0-0.32 0.143-0.32 0.32v2.56c0 0.177 0.143 0.32 0.32 0.32h2.56c0.177 0 0.32 0.143 0.32 0.32v2.56c0 0.177-0.143 0.32-0.32 0.32zm-32 0h-2.56c-0.176 0-0.32-0.143-0.32-0.32v-2.88h2.88c0.176 0 0.32 0.143 0.32 0.32v2.88zm-18.9-0.32v-15.4c0-0.177-0.143-0.32-0.32-0.32h-15.4c-0.176 0-0.32 0.143-0.32 0.32v15.4c0 0.177 0.143 0.32 0.32 0.32h15.4c0.176 0 0.32-0.143 0.32-0.32zm60.5-2.88h-2.88v-2.88c0-0.177 0.143-0.32 0.32-0.32h2.56c0.176 0 0.32 0.143 0.32 0.32v2.56c0 0.177-0.143 0.32-0.32 0.32zm-35.2 0h-2.56c-0.176 0-0.32-0.143-0.32-0.32v-2.56c0-0.177 0.143-0.32 0.32-0.32h2.56c0.176 0 0.32 0.143 0.32 0.32v2.56c0 0.177-0.143 0.32-0.32 0.32zm-28.8 0h-8.96c-0.176 0-0.32-0.143-0.32-0.32v-8.96c0-0.177 0.143-0.32 0.32-0.32h8.96c0.176 0 0.32 0.143 0.32 0.32v8.96c0 0.177-0.143 0.32-0.32 0.32zm22.4-3.2h-2.88v-2.88c0-0.177-0.143-0.32-0.32-0.32h-8.96c-0.176 0-0.32-0.143-0.32-0.32v-12.5h3.2v2.88c0 0.177 0.143 0.32 0.32 0.32h5.76c0.176 0 0.32-0.143 0.32-0.32v-2.56c0-0.177 0.143-0.32 0.32-0.32h2.56c0.176 0 0.32-0.143 0.32-0.32v-2.88h2.88c0.177 0 0.32-0.143 0.32-0.32v-12.2c0-0.177-0.143-0.32-0.32-0.32h-2.88v-2.88c0-0.177-0.143-0.32-0.32-0.32h-2.56c-0.176 0-0.32 0.143-0.32 0.32v2.56c0 0.177 0.143 0.32 0.32 0.32h2.88v6.08c0 0.177-0.143 0.32-0.32 0.32h-5.76c-0.176 0-0.32-0.143-0.32-0.32v-5.76c0-0.177-0.143-0.32-0.32-0.32h-2.56c-0.176 0-0.32-0.143-0.32-0.32v-2.88h2.88c0.176 0 0.32-0.143 0.32-0.32v-2.88h2.88c0.176 0 0.32-0.143 0.32-0.32v-2.56c0-0.177 0.143-0.32 0.32-0.32h2.56c0.176 0 0.32-0.143 0.32-0.32v-2.88h2.88c0.177 0 0.32-0.143 0.32-0.32v-2.88h2.88c0.176 0 0.32-0.143 0.32-0.32v-2.56c0-0.177 0.143-0.32 0.32-0.32h2.88v6.4h-2.88c-0.176 0-0.32 0.143-0.32 0.32v2.56c0 0.177-0.143 0.32-0.32 0.32h-2.56c-0.176 0-0.32 0.143-0.32 0.32v5.76c0 0.177 0.143 0.32 0.32 0.32h2.56c0.176 0 0.32-0.143 0.32-0.32v-2.56c0-0.177 0.143-0.32 0.32-0.32h2.56c0.176 0 0.32 0.143 0.32 0.32v2.56c0 0.177 0.143 0.32 0.32 0.32h2.56c0.176 0 0.32-0.143 0.32-0.32v-2.56c0-0.177 0.143-0.32 0.32-0.32h2.88v6.4h-9.28c-0.176 0-0.32 0.143-0.32 0.32v8.96c0 0.177 0.143 0.32 0.32 0.32h2.56c0.176 0 0.32 0.143 0.32 0.32v2.56c0 0.177-0.143 0.32-0.32 0.32h-2.56c-0.176 0-0.32 0.143-0.32 0.32v2.56c0 0.177-0.143 0.32-0.32 0.32h-2.56c-0.176 0-0.32 0.143-0.32 0.32v2.56c0 0.177 0.143 0.32 0.32 0.32h2.56c0.176 0 0.32 0.143 0.32 0.32v6.08h-6.4v-2.88c0-0.177-0.143-0.32-0.32-0.32h-2.56c-0.176 0-0.32 0.143-0.32 0.32v2.56c0 0.177 0.143 0.32 0.32 0.32h2.88v6.08c0 0.177-0.143 0.32-0.32 0.32zm41.6-3.2h-6.08v-12.5c0-0.177 0.143-0.32 0.32-0.32h5.76c0.176 0 0.32 0.143 0.32 0.32v12.2c0 0.177-0.143 0.32-0.32 0.32zm-32 0h-2.56c-0.176 0-0.32-0.143-0.32-0.32v-2.88h2.88c0.176 0 0.32 0.143 0.32 0.32v2.56c0 0.177-0.143 0.32-0.32 0.32zm16.3-3.52v-8.96c0-0.177-0.143-0.32-0.32-0.32h-8.96c-0.177 0-0.32 0.143-0.32 0.32v8.96c0 0.177 0.143 0.32 0.32 0.32h8.96c0.177 0 0.32-0.143 0.32-0.32zm-3.52-2.88h-2.56c-0.176 0-0.32-0.143-0.32-0.32v-2.56c0-0.177 0.143-0.32 0.32-0.32h2.56c0.176 0 0.32 0.143 0.32 0.32v2.56c0 0.177-0.143 0.32-0.32 0.32zm-28.8-6.4h-2.88v-2.88c0-0.177 0.143-0.32 0.32-0.32h2.56c0.176 0 0.32 0.143 0.32 0.32v2.56c0 0.177-0.143 0.32-0.32 0.32zm-6.4 0h-8.96c-0.176 0-0.32-0.143-0.32-0.32v-2.56c0-0.177-0.143-0.32-0.32-0.32h-12.5v-3.2h16v2.88c0 0.177 0.143 0.32 0.32 0.32h5.76c0.176 0 0.32 0.143 0.32 0.32v2.88zm-22.4 0h-2.56c-0.176 0-0.32-0.143-0.32-0.32v-2.56c0-0.177 0.143-0.32 0.32-0.32h2.88v2.88c0 0.177-0.143 0.32-0.32 0.32zm73.6-3.2h-2.56c-0.176 0-0.32-0.143-0.32-0.32v-2.56c0-0.177-0.143-0.32-0.32-0.32h-2.56c-0.176 0-0.32-0.143-0.32-0.32v-2.88h6.08c0.176 0 0.32-0.143 0.32-0.32v-2.56c0-0.177-0.143-0.32-0.32-0.32h-2.56c-0.176 0-0.32-0.143-0.32-0.32v-5.76c0-0.177-0.143-0.32-0.32-0.32h-2.56c-0.176 0-0.32-0.143-0.32-0.32v-2.56c0-0.177 0.143-0.32 0.32-0.32h5.76c0.176 0 0.32-0.143 0.32-0.32v-2.56c0-0.177 0.143-0.32 0.32-0.32h2.56c0.176 0 0.32 0.143 0.32 0.32v5.76c0 0.177-0.143 0.32-0.32 0.32h-2.56c-0.177 0-0.32 0.143-0.32 0.32v2.56c0 0.177 0.143 0.32 0.32 0.32h2.56c0.176 0 0.32 0.143 0.32 0.32v8.96c0 0.177-0.143 0.32-0.32 0.32h-2.56c-0.177 0-0.32 0.143-0.32 0.32v2.56c0 0.177-0.143 0.32-0.32 0.32zm-38.4 0h-2.56c-0.176 0-0.32-0.143-0.32-0.32v-2.56c0-0.177 0.143-0.32 0.32-0.32h2.56c0.176 0 0.32 0.143 0.32 0.32v2.88zm25.6-3.2h-2.88v-3.2h2.88c0.177 0 0.32 0.143 0.32 0.32v2.88zm-9.6 0h-2.56c-0.176 0-0.32-0.143-0.32-0.32v-5.76c0-0.177 0.143-0.32 0.32-0.32h2.56c0.176 0 0.32-0.143 0.32-0.32v-2.88h9.28c0.177 0 0.32 0.143 0.32 0.32v2.56c0 0.177-0.143 0.32-0.32 0.32h-2.56c-0.176 0-0.32 0.143-0.32 0.32v2.88h-6.08c-0.177 0-0.32 0.143-0.32 0.32v2.56c0 0.177-0.143 0.32-0.32 0.32zm-25.6 0h-2.56c-0.176 0-0.32-0.143-0.32-0.32v-2.56c0-0.177-0.143-0.32-0.32-0.32h-2.88v-2.88c0-0.177-0.143-0.32-0.32-0.32h-5.76c-0.176 0-0.32-0.143-0.32-0.32v-6.08h3.2v2.88c0 0.177 0.143 0.32 0.32 0.32h2.56c0.176 0 0.32-0.143 0.32-0.32v-2.88h3.2v6.08c0 0.177 0.143 0.32 0.32 0.32h2.56c0.176 0 0.32 0.143 0.32 0.32v5.76c0 0.177-0.143 0.32-0.32 0.32zm-6.4 0h-2.88v-2.88c0-0.177 0.143-0.32 0.32-0.32h2.88v2.88c0 0.177-0.143 0.32-0.32 0.32zm-19.2 0h-2.56c-0.176 0-0.32-0.143-0.32-0.32v-2.56c0-0.177 0.143-0.32 0.32-0.32h2.88v3.2zm67.2-3.2h-2.56c-0.176 0-0.32-0.143-0.32-0.32v-5.76c0-0.177 0.143-0.32 0.32-0.32h2.56c0.177 0 0.32 0.143 0.32 0.32v6.08zm-64 0h-2.88v-3.2h2.88c0.176 0 0.32 0.143 0.32 0.32v2.56c0 0.177-0.143 0.32-0.32 0.32zm-3.2-3.2h-2.56c-0.176 0-0.32-0.143-0.32-0.32v-8.96c0-0.177 0.143-0.32 0.32-0.32h2.88v9.6zm6.4-3.2h-2.56c-0.176 0-0.32-0.143-0.32-0.32v-2.56c0-0.177 0.143-0.32 0.32-0.32h2.88v2.88c0 0.177-0.143 0.32-0.32 0.32zm57.6-3.2h-2.56c-0.176 0-0.32-0.143-0.32-0.32v-2.56c0-0.177 0.143-0.32 0.32-0.32h2.56c0.176 0 0.32 0.143 0.32 0.32v2.56c0 0.177-0.143 0.32-0.32 0.32zm-6.4 0h-2.56c-0.176 0-0.32-0.143-0.32-0.32v-2.56c0-0.177-0.143-0.32-0.32-0.32h-2.88v-2.88c0-0.177-0.143-0.32-0.32-0.32h-5.76c-0.177 0-0.32-0.143-0.32-0.32v-2.88h2.88c0.176 0 0.32-0.143 0.32-0.32v-6.08h2.88c0.176 0 0.32 0.143 0.32 0.32v5.76c0 0.177 0.143 0.32 0.32 0.32h5.76c0.176 0 0.32 0.143 0.32 0.32v8.96c0 0.177-0.143 0.32-0.32 0.32zm-32 0h-2.88v-2.88c0-0.177-0.143-0.32-0.32-0.32h-2.88v-2.88c0-0.177-0.143-0.32-0.32-0.32h-2.56c-0.176 0-0.32 0.143-0.32 0.32v2.88h-2.88c-0.176 0-0.32 0.143-0.32 0.32v2.88h-6.4v-2.88c0-0.177-0.143-0.32-0.32-0.32h-6.08v-2.88c0-0.177-0.143-0.32-0.32-0.32h-2.56c-0.176 0-0.32-0.143-0.32-0.32v-2.56c0-0.177 0.143-0.32 0.32-0.32h8.96c0.176 0 0.32 0.143 0.32 0.32v2.56c0 0.177 0.143 0.32 0.32 0.32h2.56c0.176 0 0.32-0.143 0.32-0.32v-2.56c0-0.177 0.143-0.32 0.32-0.32h12.2c0.176 0 0.32-0.143 0.32-0.32v-5.76c0-0.177 0.143-0.32 0.32-0.32h2.56c0.176 0 0.32 0.143 0.32 0.32v8.96c0 0.177 0.143 0.32 0.32 0.32h2.56c0.176 0 0.32 0.143 0.32 0.32v2.88h-2.88c-0.176 0-0.32 0.143-0.32 0.32v2.88zm-6.4 0h-2.88v-3.2h3.2v3.2zm51.2-6.4h-2.56c-0.176 0-0.32-0.143-0.32-0.32v-2.56c0-0.177 0.143-0.32 0.32-0.32h2.56c0.176 0 0.32 0.143 0.32 0.32v2.56c0 0.177-0.143 0.32-0.32 0.32zm-35.2-3.2h-2.56c-0.176 0-0.32-0.143-0.32-0.32v-2.88h3.2v3.2zm41.6-3.2h-21.8c-0.176 0-0.32-0.143-0.32-0.32v-21.8c0-0.177 0.143-0.32 0.32-0.32h21.8c0.176 0 0.32 0.143 0.32 0.32v21.8c0 0.177-0.143 0.32-0.32 0.32zm-38.4 0h-2.88v-2.88c0-0.177-0.143-0.32-0.32-0.32h-2.56c-0.176 0-0.32 0.143-0.32 0.32v2.88h-2.88c-0.176 0-0.32-0.143-0.32-0.32v-6.08h6.08c0.176 0 0.32-0.143 0.32-0.32v-6.08h2.88c0.177 0 0.32 0.143 0.32 0.32v12.5zm-19.2 0h-21.8c-0.176 0-0.32-0.143-0.32-0.32v-21.8c0-0.177 0.143-0.32 0.32-0.32h21.8c0.176 0 0.32 0.143 0.32 0.32v21.8c0 0.177-0.143 0.32-0.32 0.32zm54.7-3.52v-15.4c0-0.177-0.143-0.32-0.32-0.32h-15.4c-0.176 0-0.32 0.143-0.32 0.32v15.4c0 0.177 0.143 0.32 0.32 0.32h15.4c0.176 0 0.32-0.143 0.32-0.32zm-25.9 0.32h-2.88v-6.08c0-0.177-0.143-0.32-0.32-0.32h-2.56c-0.176 0-0.32-0.143-0.32-0.32v-2.56c0-0.177 0.143-0.32 0.32-0.32h5.76c0.176 0 0.32 0.143 0.32 0.32v9.28zm-31.7-0.32v-15.4c0-0.177-0.143-0.32-0.32-0.32h-15.4c-0.176 0-0.32 0.143-0.32 0.32v15.4c0 0.177 0.143 0.32 0.32 0.32h15.4c0.176 0 0.32-0.143 0.32-0.32zm54.1-2.88h-8.96c-0.176 0-0.32-0.143-0.32-0.32v-8.96c0-0.177 0.143-0.32 0.32-0.32h8.96c0.176 0 0.32 0.143 0.32 0.32v8.96c0 0.177-0.143 0.32-0.32 0.32zm-41.6 0h-2.56c-0.176 0-0.32-0.143-0.32-0.32v-6.08h2.88c0.176 0 0.32 0.143 0.32 0.32v6.08zm-16 0h-8.96c-0.176 0-0.32-0.143-0.32-0.32v-8.96c0-0.177 0.143-0.32 0.32-0.32h8.96c0.176 0 0.32 0.143 0.32 0.32v8.96c0 0.177-0.143 0.32-0.32 0.32zm22.4-6.4h-2.56c-0.176 0-0.32-0.143-0.32-0.32v-2.56c0-0.177 0.143-0.32 0.32-0.32h2.56c0.176 0 0.32 0.143 0.32 0.32v2.88zm-9.6 0h-2.56c-0.176 0-0.32-0.143-0.32-0.32v-2.56c0-0.177 0.143-0.32 0.32-0.32h2.88v3.2zm22.4-3.2h-8.96c-0.176 0-0.32-0.143-0.32-0.32v-2.56c0-0.177 0.143-0.32 0.32-0.32h2.56c0.176 0 0.32-0.143 0.32-0.32v-2.56c0-0.177 0.143-0.32 0.32-0.32h5.76c0.176 0 0.32 0.143 0.32 0.32v5.76c0 0.177-0.143 0.32-0.32 0.32zm-19.2 0h-2.88v-2.88c0-0.177 0.143-0.32 0.32-0.32h2.88v2.88c0 0.177-0.143 0.32-0.32 0.32zm3.2-3.2h-2.88v-2.88c0-0.177 0.143-0.32 0.32-0.32h2.56c0.176 0 0.32 0.143 0.32 0.32v2.56c0 0.177-0.143 0.32-0.32 0.32z" style="fill:#2a2e39"/></svg>
