<?xml version="1.0" encoding="UTF-8" standalone="no"?>
<!-- Created with Inkscape (http://www.inkscape.org/) -->

<svg
   id="svg30554"
   version="1.1"
   viewBox="0 0 325 100.00019"
   height="100.00019"
   width="325"
   xml:space="preserve"
   sodipodi:docname="thelogofinal.svg"
   inkscape:version="1.2.2 (b0a8486541, 2022-12-01)"
   xmlns:inkscape="http://www.inkscape.org/namespaces/inkscape"
   xmlns:sodipodi="http://sodipodi.sourceforge.net/DTD/sodipodi-0.dtd"
   xmlns="http://www.w3.org/2000/svg"
   xmlns:svg="http://www.w3.org/2000/svg"><sodipodi:namedview
     id="namedview228"
     pagecolor="#505050"
     bordercolor="#ffffff"
     borderopacity="1"
     inkscape:showpageshadow="0"
     inkscape:pageopacity="0"
     inkscape:pagecheckerboard="1"
     inkscape:deskcolor="#505050"
     showgrid="false"
     inkscape:zoom="2.4866102"
     inkscape:cx="180.56711"
     inkscape:cy="124.86879"
     inkscape:window-width="1920"
     inkscape:window-height="1018"
     inkscape:window-x="1920"
     inkscape:window-y="0"
     inkscape:window-maximized="1"
     inkscape:current-layer="svg30554"
     showguides="true"><sodipodi:guide
       position="82.092762,95.000191"
       orientation="0,-1"
       id="guide1158"
       inkscape:locked="false" /><sodipodi:guide
       position="230.00003,4.9118266"
       orientation="0,-1"
       id="guide1160"
       inkscape:locked="false" /><sodipodi:guide
       position="82.092762,75.40716"
       orientation="1,0"
       id="guide1162"
       inkscape:locked="false" /><sodipodi:guide
       position="92.174034,110.00019"
       orientation="1,0"
       id="guide1218"
       inkscape:locked="false" /><sodipodi:guide
       position="230.00003,74.000192"
       orientation="1,0"
       id="guide1220"
       inkscape:locked="false" /><sodipodi:guide
       position="240.00003,100.00019"
       orientation="1,0"
       id="guide1222"
       inkscape:locked="false" /><sodipodi:guide
       position="319.68253,84.911826"
       orientation="1,0"
       id="guide1224"
       inkscape:locked="false" /><sodipodi:guide
       position="5,75.407159"
       orientation="1,0"
       id="guide1226"
       inkscape:locked="false" /></sodipodi:namedview><defs
     id="defs30551" /><g
     id="layer2"
     transform="matrix(3.1470589,0,0,3.1296484,-1074.9888,471.86251)"
     inkscape:label="the__text"><path
       d="m 394.48816,-142.46409 -1.78352,0.17743 v 10.20965 h 1.78352 z m -9.75013,0.17743 v 10.22178 h 1.81078 v -2.44625 l 0.4838,-0.52322 2.35829,2.96947 h 2.16721 l -3.35318,-4.23127 2.93157,-3.17269 h -2.20512 l -2.38257,2.57364 v -5.39146 z m -11.76414,0.8675 -1.78352,0.19108 v 1.77137 h -1.00701 v 1.77137 h 1.00701 v 3.1363 c 0,1.46576 1.19738,2.66312 2.66312,2.66312 0.56081,0 1.46654,-0.16532 1.46654,-0.16532 l -0.21688,-1.69554 c 0,0 -0.7653,0.0895 -1.24966,0.0895 -0.48432,0 -0.8796,-0.40742 -0.8796,-0.89176 v -3.13629 h 2.12926 v -1.77137 h -2.12926 z m 39.34625,0 -1.78501,0.19108 v 1.77137 h -1.00551 v 1.77137 h 1.00551 v 3.1363 c 0,1.46576 1.19888,2.66312 2.66462,2.66312 0.56084,0 1.46504,-0.16532 1.46504,-0.16532 l -0.21541,-1.69554 c 0,0 -0.76533,0.0895 -1.24969,0.0895 -0.48432,0 -0.87961,-0.40742 -0.87961,-0.89176 v -3.13629 h 2.1293 v -1.77137 h -2.1293 z m -32.45037,1.77137 c -2.09029,0 -3.78538,1.74572 -3.78538,3.88701 0,2.14127 1.69509,3.87487 3.78538,3.87487 0.89223,0 1.54155,-0.30548 2.0004,-0.82806 v 0.6491 h 1.78502 v -7.39183 h -1.78502 v 0.65061 c -0.45885,-0.52257 -1.10817,-0.8417 -2.0004,-0.8417 z m 19.32282,0 c -0.8922,0 -1.82284,0.34417 -2.61309,1.1344 v 0.012 c -0.68826,0.7265 -1.07069,1.70868 -1.07069,2.72834 0,2.15402 1.68142,3.887 3.77174,3.887 2.09029,0 2.9073,-0.76435 2.9073,-0.76435 l -0.76589,-1.46654 c 0,0 -1.0198,0.43374 -2.14141,0.43374 -0.90497,0 -1.66903,-0.59954 -1.93669,-1.44075 h 5.35355 v -0.7765 c -0.0117,-1.7589 -0.96909,-2.97073 -2.16721,-3.48056 -0.42061,-0.17843 -0.87878,-0.26691 -1.33761,-0.26691 z m 8.29724,0 c -0.8922,0 -1.54304,0.30609 -2.00189,0.81592 v -0.63696 h -1.78352 v 7.39182 h 1.78352 v -3.78539 c 0,-1.10887 0.89302,-2.00038 2.00189,-2.00038 0.54807,0 0.89173,0.0637 0.89173,0.0637 v -1.7471 c 0,0 -0.58583,-0.10161 -0.89173,-0.10161 z m -8.28512,1.77137 c 0.21659,0 0.43365,0.0382 0.62485,0.1274 0.49706,0.21667 0.89261,0.68821 1.0328,1.32549 h -3.5185 c 0.10184,-0.3059 0.25445,-0.59863 0.4838,-0.82806 0.42061,-0.4206 0.90547,-0.62483 1.37705,-0.62483 z m -19.33494,0.0138 c 1.07067,0 1.92392,0.86543 2.0004,1.94881 v 0.29422 c -0.0766,1.08338 -0.92973,1.96246 -2.0004,1.96246 -1.12161,0 -2.00186,-0.95639 -2.00186,-2.1035 0,-1.14712 0.88025,-2.10199 2.00186,-2.10199 z m 10.04587,8.39126 c -2.00289,0 -3.34405,1.35027 -3.34405,2.83753 0,0.20329 0.0293,0.40179 0.0742,0.59905 0.15408,0.62747 0.5101,1.10055 0.96302,1.42408 0.45295,0.32353 0.99266,0.51086 1.55754,0.6491 0.47696,0.11521 0.97314,0.20678 1.37858,0.33668 0.19663,0.0648 0.35672,0.13911 0.45498,0.22143 0.0983,0.0823 0.15466,0.1573 0.17902,0.33668 v 0.0182 l 0.006,0.0167 c 3.8e-4,0.002 0,-0.012 0,0.0288 0,0.13312 -0.0684,0.25483 -0.27147,0.38067 -0.20308,0.12584 -0.53603,0.21688 -0.92815,0.21688 -1.12821,0 -2.13989,-0.59754 -2.13989,-0.59754 l -0.32757,-0.20625 -1.14201,1.82445 0.3291,0.20473 c 0,0 1.47663,0.92359 3.28037,0.92359 2.00785,0 3.36683,-1.31301 3.36683,-2.76928 0,-0.11613 -0.009,-0.22046 -0.0235,-0.32 v -0.006 c -0.1215,-0.84687 -0.55978,-1.4543 -1.12986,-1.83962 -0.57005,-0.38531 -1.25103,-0.57732 -1.93213,-0.72341 -0.3873,-0.0828 -0.75218,-0.14946 -1.04948,-0.25629 -0.14849,-0.055 -0.26119,-0.11017 -0.3291,-0.16532 -0.0678,-0.0551 -0.10008,-0.099 -0.12737,-0.20625 l -0.006,-0.0106 v -0.006 c -0.003,-0.015 -0.006,-0.0241 -0.006,-0.0849 0,-0.15296 0.0784,-0.30163 0.27616,-0.43981 0.19781,-0.13817 0.51139,-0.24418 0.88871,-0.24418 0.52497,0 0.88815,0.11194 1.11774,0.21536 0.22979,0.10342 0.30028,0.17743 0.30028,0.17743 l 0.25944,0.24418 1.59091,-1.40133 -0.24124,-0.28511 c 0,0 -0.2609,-0.30164 -0.75527,-0.56872 -0.49448,-0.26706 -1.249,-0.52474 -2.27183,-0.52474 z m -19.04528,0.14257 v 8.92965 h 3.51242 c 2.47483,-0.0112 4.49061,-2.01188 4.49061,-4.46785 0,-2.45598 -2.01578,-4.45068 -4.49061,-4.4618 z m 8.86295,0 v 8.92965 h 0.39126 5.93895 v -2.20072 h -4.10539 v -1.14502 h 3.00435 v -2.21725 h -3.00435 v -1.17383 h 4.10539 v -2.19298 z m 14.46668,0 v 8.92965 h 0.39129 1.83353 v -8.92965 z m 7.74369,0.0106 c -2.56805,0 -4.65895,2.06643 -4.65895,4.60435 0,2.53792 2.08976,4.61648 4.65895,4.61648 1.38004,0 2.68781,-0.59824 3.57458,-1.64094 l 0.0924,-0.1092 v -0.14266 -3.68682 h -4.30255 v 2.21725 h 2.0762 v 0.63241 c -0.41553,0.31011 -0.90754,0.52474 -1.44073,0.52474 -1.34011,0 -2.42806,-1.0853 -2.42806,-2.41137 0,-1.32608 1.08625,-2.39923 2.42806,-2.39923 0.64421,0 1.27172,0.26548 1.72435,0.71279 l 0.27,0.26844 1.58636,-1.56208 -0.27763,-0.27299 c -0.87588,-0.86556 -2.06699,-1.35128 -3.30311,-1.35128 z m 4.52547,0 v 8.92965 h 2.2203 v -5.22474 l 3.64434,5.22463 h 2.33555 v -0.38673 -8.54292 h -2.22635 v 5.21402 l -3.63222,-5.21402 z m -33.36637,2.18236 h 1.25726 c 1.27028,0 2.28245,1.01161 2.28245,2.26882 0,1.2572 -1.01217,2.26729 -2.28245,2.26729 h -1.25726 z"
       style="font-weight:bold;font-size:4.34301px;font-family:MintSans;-inkscape-font-specification:'MintSans, Bold';letter-spacing:0px;display:inline;fill:#2a2e39;fill-opacity:1;stroke-width:4.70423"
       id="path396"
       transform="translate(-1.3295027e-6)"
       inkscape:label="taklert.DESIGN" /></g><g
     inkscape:groupmode="layer"
     id="layer1"
     inkscape:label="thelogo"><path
       id="path6481"
       style="font-weight:bold;font-size:4.34301px;font-family:MintSans;-inkscape-font-specification:'MintSans, Bold';letter-spacing:0px;display:inline;fill:#2a2e39;fill-opacity:1;stroke-width:15.9922"
       d="M 70.860101,5 63.692878,7.785753 20.344315,24.593031 H 5 v 17.45215 26.86689 C 5,75.919381 8.4360766,82.950775 15.011425,87.66937 21.586774,92.387965 30.976902,95 43.402067,95 H 82 V 42.045181 24.593031 H 70.860101 Z M 60.307695,20.419606 v 14.743783 h 11.139797 v 6.881792 42.389633 H 43.402067 c -10.924566,0 -18.089581,-2.367224 -22.238449,-5.344486 -4.148867,-2.977261 -5.611179,-6.351895 -5.611179,-10.178257 v -26.86689 -6.881792 h 6.760206 z M 22.307482,43.123888 v 7.923865 h 13.190584 v -7.923865 z m 24.799335,0 v 7.923865 h 13.190482 v -7.923865 z"
       sodipodi:nodetypes="cccccsssccccccccccssscccccccccccccc"
       inkscape:label="the_logo" /></g><g
     inkscape:groupmode="layer"
     id="layer3"
     inkscape:label="theQR"><path
       d="m 319.68253,95.088364 h -5.75998 c -0.17632,0 -0.32036,-0.143298 -0.32036,-0.319982 v -5.760014 c 0,-0.176684 0.1433,-0.319982 0.32036,-0.319982 h 2.87999 v 2.879989 c 0,0.176683 0.14292,0.319982 0.32035,0.319982 h 2.55993 c 0.17631,0 0.32036,0.143298 0.32036,0.319981 v 2.560006 c 0,0.176685 -0.1433,0.319983 -0.32036,0.319983 z m -15.99993,0 h -5.76005 c -0.17632,0 -0.32036,-0.143298 -0.32036,-0.319982 v -5.760014 c 0,-0.176684 0.1433,-0.319982 0.32036,-0.319982 h 2.56004 c 0.17631,0 0.32036,0.143298 0.32036,0.319982 v 2.560007 c 0,0.176683 0.14292,0.319982 0.32036,0.319982 h 2.8801 v 2.880025 c 0,0.176684 -0.1433,0.319982 -0.32036,0.319982 z m -9.60003,0 h -5.76004 c -0.17744,0 -0.32036,-0.143298 -0.32036,-0.319982 v -8.960021 c 0,-0.176684 0.1433,-0.319982 0.32036,-0.319982 h 5.76004 c 0.17631,0 0.32037,0.143298 0.32037,0.319982 v 8.960021 c 0,0.176684 -0.14293,0.319982 -0.32037,0.319982 z m -12.80002,0 h -2.55993 c -0.17631,0 -0.32036,-0.143298 -0.32036,-0.319982 v -2.880025 h 2.87995 c 0.17743,0 0.32035,0.143298 0.32035,0.319981 v 2.560006 c 0,0.176685 -0.14292,0.319983 -0.32035,0.319983 z m -9.60002,0 h -5.75995 c -0.1763,0 -0.32035,-0.143298 -0.32035,-0.319982 v -8.960021 c 0,-0.176684 0.1433,-0.319982 0.32035,-0.319982 h 9.27997 v 3.200007 h -2.87995 c -0.17631,0 -0.32036,0.143298 -0.32036,0.319982 v 5.760014 c 0,0.176684 -0.14329,0.319982 -0.32035,0.319982 z m -9.60003,0 h -21.75997 c -0.17631,0 -0.32036,-0.143298 -0.32036,-0.319982 V 73.008368 c 0,-0.176684 0.14293,-0.319982 0.32036,-0.319982 h 21.75997 c 0.17631,0 0.32036,0.143298 0.32036,0.319982 v 21.760014 c 0,0.176684 -0.1433,0.319982 -0.32036,0.319982 z m 48.00012,-3.200007 h -6.08 v -6.079996 c 0,-0.176684 -0.1433,-0.319982 -0.32036,-0.319982 h -2.56004 c -0.17631,0 -0.32036,-0.143298 -0.32036,-0.319982 v -2.560006 c 0,-0.176684 -0.1433,-0.319982 -0.32035,-0.319982 h -8.95894 c -0.17631,0 -0.32035,-0.143298 -0.32035,-0.319982 v -5.760013 c 0,-0.176685 -0.14293,-0.319982 -0.32037,-0.319982 h -2.56003 c -0.17707,0 -0.32037,-0.143298 -0.32037,-0.319983 v -2.560006 c 0,-0.176683 0.1433,-0.319981 0.32037,-0.319981 h 2.56003 c 0.17631,0 0.32037,-0.143298 0.32037,-0.319982 v -5.759976 c 0,-0.176685 0.14329,-0.319983 0.32035,-0.319983 h 5.76006 c 0.1763,0 0.32035,-0.143297 0.32035,-0.319981 v -2.560006 c 0,-0.176685 0.1433,-0.319982 0.32036,-0.319982 h 2.88009 v 2.879988 c 0,0.176684 0.14293,0.319981 0.32036,0.319981 h 2.56004 c 0.17706,0 0.32036,-0.143297 0.32036,-0.319981 v -2.879613 h 2.87999 c 0.17594,0 0.32036,0.143297 0.32036,0.319982 v 2.560006 c 0,0.176684 0.14292,0.319981 0.32035,0.319981 h 2.56005 c 0.17705,0 0.32036,0.143298 0.32036,0.319983 v 15.359998 c 0,0.176684 0.1433,0.319982 0.32036,0.319982 h 2.87994 v 2.879989 c 0,0.176683 -0.14329,0.319981 -0.32035,0.319981 h -5.76006 c -0.17631,0 -0.32035,0.143298 -0.32035,0.319982 v 2.560006 c 0,0.176684 0.14292,0.319983 0.32035,0.319983 h 2.56005 c 0.17706,0 0.32035,0.143297 0.32035,0.319981 v 2.560006 c 0,0.176685 -0.14329,0.319982 -0.32035,0.319982 z m -32.00008,0 h -2.55993 c -0.17631,0 -0.32036,-0.143299 -0.32036,-0.319982 v -2.880026 h 2.87995 c 0.17631,0 0.32035,0.143298 0.32035,0.319982 v 2.879988 z M 259.20255,91.568375 V 76.208338 c 0,-0.176683 -0.14329,-0.319981 -0.32035,-0.319981 h -15.36008 c -0.1763,0 -0.32036,0.143298 -0.32036,0.319981 v 15.360037 c 0,0.176683 0.1433,0.319982 0.32036,0.319982 h 15.36008 c 0.1763,0 0.32035,-0.143299 0.32035,-0.319982 z m 60.47998,-2.880026 h -2.87999 v -2.879988 c 0,-0.176684 0.14292,-0.319982 0.32035,-0.319982 h 2.55993 c 0.17631,0 0.32036,0.143298 0.32036,0.319982 v 2.560006 c 0,0.176684 -0.1433,0.319982 -0.32036,0.319982 z m -35.19998,0 h -2.55992 c -0.17632,0 -0.32036,-0.143298 -0.32036,-0.319982 v -2.560006 c 0,-0.176684 0.14292,-0.319982 0.32036,-0.319982 h 2.55992 c 0.17632,0 0.32036,0.143298 0.32036,0.319982 v 2.560006 c 0,0.176684 -0.14292,0.319982 -0.32036,0.319982 z m -28.80006,0 h -8.95994 c -0.17632,0 -0.32037,-0.143298 -0.32037,-0.319982 v -8.959983 c 0,-0.176685 0.14293,-0.319983 0.32037,-0.319983 h 8.95994 c 0.1763,0 0.32036,0.143298 0.32036,0.319983 v 8.959983 c 0,0.176684 -0.1433,0.319982 -0.32036,0.319982 z m 22.40005,-3.19997 h -2.87999 v -2.880026 c 0,-0.176683 -0.14292,-0.319982 -0.32036,-0.319982 h -8.95995 c -0.1763,0 -0.32034,-0.143298 -0.32034,-0.319981 V 69.488379 h 3.2 v 2.879988 c 0,0.176684 0.14329,0.319982 0.32035,0.319982 h 5.75994 c 0.17631,0 0.32036,-0.143298 0.32036,-0.319982 v -2.560006 c 0,-0.176684 0.1433,-0.319982 0.32036,-0.319982 h 2.55993 c 0.17594,0 0.32035,-0.143298 0.32035,-0.319982 v -2.8798 h 2.88 c 0.17743,0 0.32035,-0.143299 0.32035,-0.319982 V 53.808624 c 0,-0.176685 -0.14292,-0.319983 -0.32035,-0.319983 h -2.88 v -2.879987 c 0,-0.176685 -0.14292,-0.319982 -0.32035,-0.319982 h -2.55993 c -0.17631,0 -0.32036,0.143297 -0.32036,0.319982 v 2.560006 c 0,0.176684 0.1433,0.319981 0.32036,0.319981 h 2.87995 v 6.079996 c 0,0.176684 -0.14293,0.319982 -0.32036,0.319982 h -5.75994 c -0.17631,0 -0.32035,-0.143298 -0.32035,-0.319982 v -5.760013 c 0,-0.176685 -0.1433,-0.319983 -0.32036,-0.319983 h -2.55994 c -0.17592,0 -0.32035,-0.143297 -0.32035,-0.319981 v -2.880026 h 2.87999 c 0.17631,0 0.32036,-0.143298 0.32036,-0.319982 v -2.880026 h 2.87994 c 0.17631,0 0.32037,-0.143298 0.32037,-0.319981 v -2.559819 c 0,-0.176684 0.14329,-0.319982 0.32035,-0.319982 h 2.55993 c 0.17631,0 0.32036,-0.143298 0.32036,-0.319982 v -2.879988 h 2.87999 c 0.17743,0 0.32035,-0.143298 0.32035,-0.319982 v -2.880025 h 2.87999 c 0.17593,0 0.32036,-0.143299 0.32036,-0.319982 v -2.560006 c 0,-0.176685 0.1433,-0.319983 0.32036,-0.319983 h 2.88006 v 6.399978 h -2.88006 c -0.17632,0 -0.32036,0.143298 -0.32036,0.319982 v 2.560006 c 0,0.176684 -0.1433,0.319982 -0.32036,0.319982 h -2.56061 c -0.1763,0 -0.32035,0.143298 -0.32035,0.319982 v 5.760014 c 0,0.176684 0.14292,0.319982 0.32035,0.319982 h 2.55994 c 0.1763,0 0.32035,-0.143298 0.32035,-0.319982 v -2.560007 c 0,-0.176683 0.1433,-0.319981 0.32036,-0.319981 h 2.56004 c 0.17632,0 0.32036,0.143298 0.32036,0.319981 v 2.560007 c 0,0.176684 0.14292,0.319982 0.32036,0.319982 h 2.56004 c 0.17631,0 0.32036,-0.143298 0.32036,-0.319982 v -2.560007 c 0,-0.176683 0.14292,-0.319981 0.32036,-0.319981 h 2.8801 v 6.400015 h -9.28012 c -0.17631,0 -0.32035,0.143298 -0.32035,0.319981 v 8.960022 c 0,0.176683 0.14329,0.319982 0.32035,0.319982 h 2.56005 c 0.17631,0 0.32035,0.143298 0.32035,0.319981 v 2.560007 c 0,0.176684 -0.1433,0.319982 -0.32035,0.319982 h -2.56005 c -0.17631,0 -0.32035,0.143298 -0.32035,0.319982 v 2.560005 c 0,0.176685 -0.14293,0.319983 -0.32036,0.319983 h -2.56147 c -0.17632,0 -0.32036,0.143297 -0.32036,0.319982 v 2.559968 c 0,0.176684 0.14292,0.319982 0.32036,0.319982 h 2.55992 c 0.17632,0 0.32037,0.143298 0.32037,0.319982 v 6.079996 h -6.40002 v -2.879989 c 0,-0.176683 -0.14292,-0.319981 -0.32035,-0.319981 h -2.55993 c -0.17631,0 -0.32037,0.143298 -0.32037,0.319981 v 2.560007 c 0,0.176684 0.1433,0.319982 0.32037,0.319982 h 2.87994 v 6.079995 c 0,0.176684 -0.14292,0.319982 -0.32035,0.319982 z m 41.59999,-3.200008 h -6.08 v -12.48001 c 0,-0.176684 0.1433,-0.319982 0.32035,-0.319982 h 5.75994 c 0.17631,0 0.32036,0.143298 0.32036,0.319982 v 12.159991 c 0,0.176684 -0.1433,0.319982 -0.32036,0.319982 z m -31.99997,0 h -2.56004 c -0.17631,0 -0.32036,-0.143298 -0.32036,-0.319981 v -2.879989 h 2.87995 c 0.17631,0 0.32036,0.143298 0.32036,0.319983 v 2.560006 c 0,0.176683 -0.1433,0.319981 -0.32036,0.319981 z m 16.32006,-3.520027 v -8.959983 c 0,-0.176684 -0.1433,-0.319982 -0.32036,-0.319982 h -8.96006 c -0.17743,0 -0.32036,0.143298 -0.32036,0.319982 v 8.959983 c 0,0.176685 0.14293,0.319983 0.32036,0.319983 h 8.96006 c 0.17743,0 0.32036,-0.143298 0.32036,-0.319983 z m -3.52003,-2.879987 h -2.56004 c -0.17632,0 -0.32036,-0.143299 -0.32036,-0.319982 v -2.560007 c 0,-0.176684 0.1433,-0.319982 0.32036,-0.319982 h 2.56004 c 0.17631,0 0.32036,0.143298 0.32036,0.319982 v 2.560007 c 0,0.176683 -0.1433,0.319982 -0.32036,0.319982 z m -28.80006,-6.400015 h -2.87999 v -2.879989 c 0,-0.176683 0.14329,-0.319982 0.32035,-0.319982 h 2.55993 c 0.17594,0 0.32036,0.143299 0.32036,0.319982 v 2.560007 c 0,0.176684 -0.1433,0.319982 -0.32036,0.319982 z m -6.40002,0 h -8.95995 c -0.17631,0 -0.32035,-0.143298 -0.32035,-0.319982 v -2.560007 c 0,-0.176683 -0.14293,-0.319982 -0.32036,-0.319982 h -12.48001 v -3.200007 h 16.00004 v 2.879988 c 0,0.176684 0.1433,0.319982 0.32035,0.319982 h 5.75994 c 0.17631,0 0.32036,0.143298 0.32036,0.319982 v 2.879988 z m -22.39994,0 h -2.56004 c -0.17631,0 -0.32036,-0.143298 -0.32036,-0.319982 v -2.560007 c 0,-0.176683 0.14293,-0.319982 0.32036,-0.319982 h 2.87999 v 2.879989 c 0,0.176684 -0.1433,0.319982 -0.32037,0.319982 z m 73.60006,-3.199971 h -2.56008 c -0.17632,0 -0.32036,-0.143298 -0.32036,-0.319981 v -2.560006 c 0,-0.176685 -0.14292,-0.319983 -0.32036,-0.319983 h -2.56004 c -0.17631,0 -0.32036,-0.143297 -0.32036,-0.319982 v -2.880025 h 6.08008 c 0.17631,0 0.32035,-0.143298 0.32035,-0.319982 v -2.560006 c 0,-0.176684 -0.1433,-0.319982 -0.32035,-0.319982 h -2.56005 c -0.17631,0 -0.32035,-0.143298 -0.32035,-0.319982 v -5.759976 c 0,-0.176684 -0.1433,-0.319982 -0.32036,-0.319982 h -2.56004 c -0.17632,0 -0.32037,-0.143298 -0.32037,-0.319982 v -2.560006 c 0,-0.176684 0.1433,-0.319982 0.32037,-0.319982 h 5.76004 c 0.17594,0 0.32036,-0.143298 0.32036,-0.319982 v -2.559631 c 0,-0.176684 0.14292,-0.319981 0.32036,-0.319981 h 2.55993 c 0.17631,0 0.32035,0.143297 0.32035,0.319981 v 5.760014 c 0,0.176684 -0.14292,0.319981 -0.32035,0.319981 h -2.55993 c -0.17744,0 -0.32036,0.143298 -0.32036,0.319983 v 2.560006 c 0,0.176683 0.14292,0.319982 0.32036,0.319982 h 2.55993 c 0.17631,0 0.32035,0.143298 0.32035,0.319981 v 8.960022 c 0,0.176683 -0.14292,0.319982 -0.32035,0.319982 h -2.55993 c -0.17744,0 -0.32036,0.143298 -0.32036,0.319981 v 2.560007 c 0,0.176684 -0.14329,0.319982 -0.32036,0.319982 z m -38.40009,0 h -2.55993 c -0.17631,0 -0.32036,-0.143298 -0.32036,-0.319981 v -2.560006 c 0,-0.176685 0.1433,-0.319983 0.32036,-0.319983 h 2.55993 c 0.17631,0 0.32035,0.143298 0.32035,0.319983 v 2.880025 z m 25.60006,-3.200007 h -2.87999 v -3.200007 h 2.87999 c 0.17743,0 0.32035,0.143298 0.32035,0.319981 v 2.880026 z m -9.60003,0 h -2.56003 c -0.17631,0 -0.32037,-0.143298 -0.32037,-0.319982 v -5.759976 c 0,-0.176684 0.1433,-0.319982 0.32037,-0.319982 h 2.56003 c 0.17631,0 0.32037,-0.143298 0.32037,-0.319982 v -2.879988 h 9.27996 c 0.17743,0 0.32036,0.143298 0.32036,0.319982 v 2.560006 c 0,0.176684 -0.1433,0.319982 -0.32036,0.319982 h -2.56004 c -0.17594,0 -0.32036,0.143298 -0.32036,0.319982 v 2.879988 h -6.08007 c -0.17706,0 -0.32036,0.143298 -0.32036,0.319982 v 2.559968 c 0,0.176685 -0.14329,0.319983 -0.32036,0.319983 z m -25.60005,0 h -2.55994 c -0.1763,0 -0.32035,-0.143298 -0.32035,-0.319982 v -2.559968 c 0,-0.176685 -0.14329,-0.319982 -0.32036,-0.319982 h -2.87998 v -2.879989 c 0,-0.176683 -0.14293,-0.319981 -0.32036,-0.319981 h -5.75994 c -0.17631,0 -0.32036,-0.143298 -0.32036,-0.319982 v -6.079996 h 3.20001 v 2.879988 c 0,0.176684 0.1433,0.319982 0.32035,0.319982 h 2.55994 c 0.17593,0 0.32036,-0.143298 0.32036,-0.319982 v -2.879988 h 3.20001 v 6.079996 c 0,0.176684 0.14329,0.319982 0.32034,0.319982 h 2.55994 c 0.1763,0 0.32036,0.143298 0.32036,0.319981 v 5.759976 c 0,0.176685 -0.1433,0.319982 -0.32036,0.319982 z m -6.40002,0 h -2.87995 v -2.879988 c 0,-0.176684 0.1433,-0.319982 0.32036,-0.319982 h 2.87995 v 2.879988 c 0,0.176684 -0.1433,0.319982 -0.32036,0.319982 z m -19.19993,0 h -2.56004 c -0.17631,0 -0.32036,-0.143298 -0.32036,-0.319982 v -2.559968 c 0,-0.176685 0.14293,-0.319982 0.32036,-0.319982 h 2.87999 v 3.200007 z m 67.20005,-3.200007 h -2.56008 c -0.17594,0 -0.32037,-0.143299 -0.32037,-0.319982 v -5.760014 c 0,-0.176684 0.1433,-0.319982 0.32037,-0.319982 h 2.56008 c 0.17705,0 0.32035,0.143298 0.32035,0.319982 v 6.079996 z m -64.00004,0 h -2.88006 v -3.200008 h 2.88006 c 0.1763,0 0.32036,0.143298 0.32036,0.319982 v 2.560006 c 0,0.176684 -0.1433,0.319982 -0.32036,0.319982 z m -3.20001,-3.200008 h -2.56004 c -0.17631,0 -0.32036,-0.143298 -0.32036,-0.319982 v -8.960021 c 0,-0.176684 0.14293,-0.319982 0.32036,-0.319982 h 2.87999 v 9.599985 z m 6.40002,-3.200007 h -2.56004 c -0.17632,0 -0.32037,-0.143298 -0.32037,-0.319982 v -2.560007 c 0,-0.176683 0.14293,-0.319982 0.32037,-0.319982 h 2.87998 v 2.879989 c 0,0.176684 -0.1433,0.319982 -0.32036,0.319982 z m 57.60002,-3.200008 h -2.56008 c -0.17594,0 -0.32036,-0.143298 -0.32036,-0.319982 v -2.560006 c 0,-0.176684 0.1433,-0.319982 0.32036,-0.319982 h 2.56008 c 0.17593,0 0.32035,0.143298 0.32035,0.319982 v 2.560006 c 0,0.176684 -0.14329,0.319982 -0.32035,0.319982 z m -6.40002,0 h -2.56004 c -0.17632,0 -0.32036,-0.143298 -0.32036,-0.319982 v -2.560006 c 0,-0.176684 -0.14292,-0.319982 -0.32036,-0.319982 h -2.87995 v -2.879913 c 0,-0.176684 -0.1433,-0.319982 -0.32036,-0.319982 h -5.76004 c -0.17707,0 -0.32037,-0.143298 -0.32037,-0.319982 v -2.879988 h 2.88 c 0.17593,0 0.32035,-0.143298 0.32035,-0.319982 v -6.080033 h 2.87999 c 0.17593,0 0.32036,0.143298 0.32036,0.319982 v 5.759976 c 0,0.176684 0.1433,0.319982 0.32035,0.319982 h 5.76006 c 0.17631,0 0.32035,0.143298 0.32035,0.319982 v 8.960021 c 0,0.176684 -0.14292,0.319982 -0.32035,0.319982 z m -32.00007,0 h -2.87995 v -2.879988 c 0,-0.176684 -0.1433,-0.319982 -0.32036,-0.319982 h -2.87995 v -2.87995 c 0,-0.176685 -0.14292,-0.319982 -0.32035,-0.319982 h -2.55998 c -0.17593,0 -0.32035,0.143297 -0.32035,0.319982 v 2.879987 h -2.87995 c -0.17631,0 -0.32036,0.143298 -0.32036,0.319983 v 2.879987 h -6.40001 v -2.879987 c 0,-0.176685 -0.1433,-0.319983 -0.32036,-0.319983 h -6.08007 v -2.879987 c 0,-0.176685 -0.1433,-0.319982 -0.32036,-0.319982 h -2.56008 c -0.17631,0 -0.32036,-0.143298 -0.32036,-0.319983 v -2.55993 c 0,-0.176685 0.1433,-0.319983 0.32036,-0.319983 h 8.96009 c 0.17594,0 0.32036,0.143298 0.32036,0.319983 v 2.560006 c 0,0.176683 0.14292,0.319981 0.32036,0.319981 h 2.55993 c 0.17631,0 0.32036,-0.143298 0.32036,-0.319981 v -2.560006 c 0,-0.176685 0.1433,-0.319983 0.32035,-0.319983 h 12.15999 c 0.17594,0 0.32036,-0.143297 0.32036,-0.319982 v -5.759976 c 0,-0.176683 0.14292,-0.319981 0.32036,-0.319981 h 2.55992 c 0.17632,0 0.32037,0.143298 0.32037,0.319981 v 8.959984 c 0,0.176684 0.1433,0.319982 0.32035,0.319982 h 2.55993 c 0.17631,0 0.32036,0.143298 0.32036,0.319982 v 2.879988 h -2.87998 c -0.17631,0 -0.32037,0.143298 -0.32037,0.319982 v 2.879988 z m -6.40002,0 h -2.87995 v -3.200007 h 3.20001 v 3.200007 z m 51.20013,-6.399977 h -2.56009 c -0.17631,0 -0.32036,-0.143299 -0.32036,-0.319982 v -2.559932 c 0,-0.176683 0.1433,-0.319981 0.32036,-0.319981 h 2.56009 c 0.17592,0 0.32035,0.143298 0.32035,0.319981 v 2.560006 c 0,0.176685 -0.1433,0.319983 -0.32035,0.319983 z m -35.20009,-3.200008 h -2.55993 c -0.17631,0 -0.32036,-0.143298 -0.32036,-0.319982 v -2.879988 h 3.20001 v 3.200007 z m 41.59999,-3.200007 h -21.75998 c -0.17632,0 -0.32036,-0.143298 -0.32036,-0.319982 V 15.408346 c 0,-0.176684 0.1433,-0.319982 0.32036,-0.319982 h 21.75998 c 0.1763,0 0.32035,0.143298 0.32035,0.319982 V 37.16836 c 0,0.176684 -0.14329,0.319982 -0.32035,0.319982 z m -38.39998,0 h -2.88 v -2.879989 c 0,-0.176683 -0.14291,-0.319982 -0.32035,-0.319982 h -2.55993 c -0.17631,0 -0.32036,0.143299 -0.32036,0.319982 v 2.879989 h -2.87999 c -0.17593,0 -0.32035,-0.143298 -0.32035,-0.319982 v -6.079996 h 6.08 c 0.1763,0 0.32035,-0.143298 0.32035,-0.319982 v -6.080145 h 2.87995 c 0.17743,0 0.32036,0.143298 0.32036,0.319981 v 12.480011 z m -19.20005,0 h -21.75997 c -0.17631,0 -0.32036,-0.143298 -0.32036,-0.319982 V 15.408346 c 0,-0.176684 0.14293,-0.319982 0.32036,-0.319982 h 21.75997 c 0.17631,0 0.32036,0.143298 0.32036,0.319982 V 37.16836 c 0,0.176684 -0.1433,0.319982 -0.32036,0.319982 z m 54.72004,-3.51999 V 18.608316 c 0,-0.176684 -0.1433,-0.319982 -0.32036,-0.319982 H 301.1221 c -0.1763,0 -0.32035,0.143298 -0.32035,0.319982 v 15.360036 c 0,0.176684 0.14329,0.319982 0.32035,0.319982 h 15.36008 c 0.1763,0 0.32036,-0.143298 0.32036,-0.319982 z m -25.91997,0.319982 h -2.87999 v -6.079996 c 0,-0.176683 -0.14292,-0.319981 -0.32035,-0.319981 h -2.56005 c -0.17631,0 -0.32035,-0.143299 -0.32035,-0.319982 v -2.560007 c 0,-0.176684 0.14329,-0.319982 0.32035,-0.319982 h 5.76005 c 0.17631,0 0.32036,0.143298 0.32036,0.319982 v 9.280003 z M 259.20255,33.968352 V 18.608316 c 0,-0.176684 -0.14329,-0.319982 -0.32035,-0.319982 h -15.36008 c -0.1763,0 -0.32036,0.143298 -0.32036,0.319982 v 15.360036 c 0,0.176684 0.1433,0.319982 0.32036,0.319982 h 15.36008 c 0.1763,0 0.32035,-0.143298 0.32035,-0.319982 z m 54.08008,-2.879988 h -8.9601 c -0.17594,0 -0.32036,-0.143298 -0.32036,-0.319982 v -8.959983 c 0,-0.176685 0.1433,-0.319983 0.32036,-0.319983 h 8.9601 c 0.17592,0 0.32035,0.143298 0.32035,0.319983 v 8.959983 c 0,0.176684 -0.1433,0.319982 -0.32035,0.319982 z m -41.6001,0 h -2.55994 c -0.1763,0 -0.32036,-0.143298 -0.32036,-0.319982 v -6.079996 h 2.87996 c 0.1763,0 0.32036,0.143298 0.32036,0.319982 v 6.080033 z m -16.00004,0 h -8.95994 c -0.17632,0 -0.32037,-0.143298 -0.32037,-0.319982 v -8.959983 c 0,-0.176685 0.14293,-0.319983 0.32037,-0.319983 h 8.95994 c 0.1763,0 0.32036,0.143298 0.32036,0.319983 v 8.959983 c 0,0.176684 -0.1433,0.319982 -0.32036,0.319982 z m 22.40005,-6.400015 h -2.55993 c -0.17631,0 -0.32036,-0.143298 -0.32036,-0.319982 v -2.559968 c 0,-0.176685 0.1433,-0.319983 0.32036,-0.319983 h 2.55993 c 0.17631,0 0.32035,0.143298 0.32035,0.319983 v 2.879987 z m -9.60002,0 h -2.55994 c -0.1763,0 -0.32035,-0.143298 -0.32035,-0.319982 v -2.559968 c 0,-0.176685 0.1433,-0.319983 0.32035,-0.319983 h 2.87996 v 3.200008 z m 22.40005,-3.200007 h -8.95994 c -0.17632,0 -0.32036,-0.143298 -0.32036,-0.319982 v -2.560007 c 0,-0.176684 0.14292,-0.319981 0.32036,-0.319981 h 2.55992 c 0.17632,0 0.32036,-0.143298 0.32036,-0.319982 v -2.560006 c 0,-0.176684 0.1433,-0.319982 0.32036,-0.319982 h 5.76005 c 0.17631,0 0.32035,0.143298 0.32035,0.319982 v 5.760013 c 0,0.176684 -0.14329,0.319982 -0.32035,0.319982 z m -19.20004,0 h -2.87999 v -2.880026 c 0,-0.176684 0.14329,-0.319982 0.32035,-0.319982 h 2.87996 v 2.880026 c 0,0.176684 -0.14331,0.319982 -0.32037,0.319982 z m 3.2,-3.200008 h -2.87998 v -2.879988 c 0,-0.176684 0.14329,-0.319982 0.32035,-0.319982 h 2.55993 c 0.17594,0 0.32036,0.143298 0.32036,0.319982 v 2.559969 c 0,0.176684 -0.14292,0.319981 -0.32036,0.319981 z"
       id="path548"
       style="fill:#2a2e39;fill-opacity:1;stroke:none;stroke-width:0.992516"
       inkscape:label="QR__code" /></g></svg>
