<?xml version="1.0" encoding="UTF-8" standalone="no"?>
<svg
   version="1.1"
   viewBox="0 0 650 200"
   xml:space="preserve"
   id="svg471"
   sodipodi:docname="thelogo_optimized_for_websafe.svg"
   width="650"
   height="200"
   inkscape:export-filename="thelogo_optimized_for_websafe.png"
   inkscape:export-xdpi="300"
   inkscape:export-ydpi="300"
   inkscape:version="1.2.2 (b0a8486541, 2022-12-01)"
   xmlns:inkscape="http://www.inkscape.org/namespaces/inkscape"
   xmlns:sodipodi="http://sodipodi.sourceforge.net/DTD/sodipodi-0.dtd"
   xmlns="http://www.w3.org/2000/svg"
   xmlns:svg="http://www.w3.org/2000/svg"><defs
   id="defs475" /><sodipodi:namedview
   id="namedview473"
   pagecolor="#505050"
   bordercolor="#ffffff"
   borderopacity="1"
   inkscape:showpageshadow="0"
   inkscape:pageopacity="0"
   inkscape:pagecheckerboard="1"
   inkscape:deskcolor="#505050"
   showgrid="false"
   inkscape:zoom="1.479485"
   inkscape:cx="365.32984"
   inkscape:cy="69.618822"
   inkscape:window-width="1920"
   inkscape:window-height="1011"
   inkscape:window-x="0"
   inkscape:window-y="0"
   inkscape:window-maximized="1"
   inkscape:current-layer="svg471" />
<path
   d="M 140.75264,9.71519 126.38945,15.30421 39.649466,48.958526 H 9 v 88.743224 c 0,14.04266 6.891122,28.04527 20.032331,37.66078 13.181273,9.45526 32.051728,14.6837 56.891818,14.6837 H 163.24894 V 49.018623 H 141.01306 L 140.75464,9.7552547 Z m 340.54962,20.232654 c -0.35457,0 -0.64103,0.286462 -0.64103,0.641035 V 74.25936 c 0,0.354572 0.28847,0.641034 0.64103,0.641034 h 43.67048 c 0.35457,0 0.63703,-0.286462 0.63703,-0.641034 V 30.588879 c 0,-0.354573 -0.28446,-0.641035 -0.63703,-0.641035 z m 115.38623,0 c -0.35457,0 -0.64104,0.286462 -0.64104,0.641035 V 74.25936 c 0,0.354572 0.28847,0.641034 0.64104,0.641034 h 43.67048 c 0.35457,0 0.64103,-0.286462 0.64103,-0.641034 V 30.588879 c 0,-0.354573 -0.28847,-0.641035 -0.64103,-0.641035 z m -51.28278,0.07832 c -0.35457,0 -0.63702,0.286462 -0.63702,0.641034 v 5.769312 h 5.76931 c 0.35457,0 0.64104,-0.286463 0.64104,-0.641036 v -5.128276 c 0,-0.354572 -0.28847,-0.641034 -0.64104,-0.641034 h -5.12828 z m -0.63702,6.410346 h -5.76931 c -0.35457,0 -0.64104,0.282455 -0.64104,0.637028 v 5.76931 h 5.76931 c 0.35458,0 0.64104,-0.286462 0.64104,-0.641034 v -5.769312 z m -6.41035,6.410345 h -5.76931 c -0.35457,0 -0.64103,0.286463 -0.64103,0.641035 v 5.128276 c 0,0.354572 0.28847,0.637028 0.64103,0.637028 h 5.12828 0.64103 v -6.410346 z m 0,6.410345 v 12.179658 c 0,0.354572 0.28847,0.641034 0.64104,0.641034 h 5.12827 0.64104 V 49.898243 c 0,-0.354573 -0.28846,-0.641036 -0.64104,-0.641036 z m 6.41035,12.820692 v 12.179657 c 0,0.354573 0.28446,0.641035 0.63702,0.641035 h 5.76932 V 69.12928 c 0,-0.354572 0.28847,-0.637028 0.64104,-0.637028 h 5.12827 c 0.35457,0 0.63703,0.282456 0.63703,0.637028 v 5.769311 h 5.76931 l 0.64103,0.03906 v -25.04041 c 0,-0.354573 -0.28646,-0.641035 -0.64103,-0.641035 h -5.76931 v 12.179658 c 0,0.354572 -0.28446,0.641034 -0.63703,0.641034 H 544.76468 Z M 557.58938,49.2572 v -5.76931 c 0,-0.354572 -0.28446,-0.641035 -0.63703,-0.641035 h -5.12827 c -0.35457,0 -0.64104,0.286463 -0.64104,0.641035 v 5.128276 c 0,0.354572 0.28847,0.637028 0.64104,0.637028 h 5.12827 0.63703 z m 0,25.641384 h -6.41034 v 5.769311 c 0,0.354573 0.28846,0.637028 0.64103,0.637028 h 5.12828 0.63702 v -6.410345 z m 13.46173,-44.87242 c -0.35457,0 -0.64103,0.286462 -0.64103,0.641034 v 5.128276 c 0,0.354573 -0.28847,0.641036 -0.64104,0.641036 h -5.12828 c -0.35457,0 -0.64104,0.282455 -0.64104,0.637028 v 5.128276 c 0,0.354572 0.28847,0.641034 0.64104,0.641034 h 17.94897 c 0.35457,0 0.64103,-0.286462 0.64103,-0.641034 V 30.663199 c 0,-0.354572 -0.28846,-0.641035 -0.64103,-0.641035 h -11.53862 z m -83.53482,6.330216 h 30.84979 c 0.35457,0 0.64103,0.286462 0.64103,0.641034 v 30.849793 c 0,0.354572 -0.28846,0.641034 -0.64103,0.641034 h -30.84979 c -0.35458,0 -0.64104,-0.286462 -0.64104,-0.641034 v -30.84979 c 0,-0.354572 0.28847,-0.641034 0.64104,-0.641034 z m 115.38622,0 h 30.84979 c 0.35457,0 0.64104,0.286462 0.64104,0.641034 v 30.849793 c 0,0.354572 -0.28847,0.641034 -0.64104,0.641034 h -30.84979 c -0.35457,0 -0.64104,-0.286462 -0.64104,-0.641034 v -30.84979 c 0,-0.354572 0.28847,-0.641034 0.64104,-0.641034 z m -482.77916,4.286919 v 29.447526 h 22.23588 V 168.85023 H 86.268706 c -21.835241,0 -36.258518,-4.74767 -44.471774,-10.69727 -8.313417,-5.96964 -11.238138,-12.72054 -11.238138,-20.43298 V 70.211025 H 44.10065 l 76.12286,-29.647849 z m 374.60458,2.203556 c -0.35457,0 -0.64104,0.286463 -0.64104,0.641035 v 17.948968 c 0,0.354572 0.28847,0.641034 0.64104,0.641034 h 17.94897 c 0.35457,0 0.64103,-0.286462 0.64103,-0.641034 V 43.487897 c 0,-0.354572 -0.28847,-0.641035 -0.64103,-0.641035 z m 115.38622,0 c -0.35457,0 -0.63703,0.286463 -0.63703,0.641035 v 17.948968 c 0,0.354572 0.28446,0.641034 0.63703,0.641034 h 17.94897 c 0.35457,0 0.64103,-0.286462 0.64103,-0.641034 V 43.487897 c 0,-0.354572 -0.28846,-0.641035 -0.64103,-0.641035 z m -276.44616,6.089828 -11.23814,1.111794 v 63.903143 h 11.23814 V 48.846545 Z m 236.3815,0.320517 c -0.35457,0 -0.64104,0.286463 -0.64104,0.641036 v 5.128276 c 0,0.354572 0.28847,0.641034 0.64104,0.641034 h 5.12828 c 0.35457,0 0.64104,0.286463 0.64104,0.641035 v 12.059463 h -5.72925 c -0.35458,0 -0.64103,0.286462 -0.64103,0.641034 v 5.128278 c 0,0.354572 -0.28446,0.641034 -0.63703,0.641034 h -5.76932 v 5.769312 c 0,0.354572 -0.28646,0.641034 -0.64104,0.641034 h -5.7693 v 5.769311 c 0,0.354573 -0.28847,0.641035 -0.64104,0.641035 h -5.12827 c -0.35457,0 -0.64104,0.286462 -0.64104,0.641034 v 5.128277 c 0,0.354572 -0.28846,0.637028 -0.64103,0.637028 h -5.72925 v -5.649117 c 0,-0.354573 -0.28846,-0.641035 -0.64103,-0.641035 h -5.12829 c -0.35457,0 -0.64103,-0.286462 -0.64103,-0.641034 V 69.125273 c 2e-5,-0.354572 -0.28847,-0.637028 -0.64103,-0.637028 h -5.12828 c -0.35457,0 -0.64103,0.282456 -0.64103,0.637028 v 11.538623 c 0,0.354572 -0.28847,0.637028 -0.64104,0.637028 h -24.43944 c -0.35457,0 -0.64103,0.286462 -0.64103,0.641035 v 5.128276 c 0,0.354572 -0.28847,0.641035 -0.64104,0.641035 h -5.12828 c -0.35457,0 -0.64103,-0.286463 -0.64103,-0.641035 v -5.128276 c 0,-0.354573 -0.28847,-0.641035 -0.64104,-0.641035 h -17.94897 c -0.35457,0 -0.63703,0.286462 -0.63703,0.641035 v 5.128276 c 0,0.354572 0.28446,0.641035 0.63703,0.641035 h 5.12829 c 0.35457,0 0.64103,0.286462 0.64103,0.641035 v 5.76931 h 12.17965 c 0.35457,0 0.64104,0.286463 0.64104,0.641035 v 5.76931 h 12.82069 v -5.76931 c 0,-0.354572 0.28446,-0.641035 0.63703,-0.641035 h 5.76931 v -5.76931 c 0,-0.354573 0.28847,-0.641035 0.64103,-0.641035 h 5.12828 c 0.35458,0 0.63703,0.286462 0.63703,0.641035 v 5.76931 h 5.76931 c 0.35457,0 0.64104,0.286463 0.64104,0.641035 v 5.76931 h 5.76931 0.68109 v 5.64912 c 0,0.35457 0.28847,0.64103 0.64104,0.64103 h 5.12827 c 0.35458,0 0.64104,0.28646 0.64104,0.64103 v 11.53863 c 0,0.35457 0.28846,0.64104 0.64103,0.64104 h 11.53863 c 0.35457,0 0.64103,-0.28647 0.64103,-0.64104 v -12.17966 h -5.76931 c -0.35457,0 -0.64103,-0.28646 -0.64103,-0.64103 v -5.12828 c 0,-0.35457 0.28847,-0.64103 0.64103,-0.64103 h 5.12828 c 0.35457,0 0.64103,0.28646 0.64103,0.64103 v 5.76931 h 5.76931 c 0.35457,0 0.64104,0.28646 0.64104,0.64103 v 24.43945 c 0,0.35458 -0.28647,0.63703 -0.64104,0.63703 h -5.76931 v 5.76931 c 0,0.35457 -0.28846,0.64104 -0.64103,0.64104 h -5.12828 c -0.35457,0 -0.64103,0.28646 -0.64103,0.64103 v 5.12827 c 0,0.35458 -0.28847,0.64104 -0.64103,0.64104 h -11.53863 c -0.35457,0 -0.64104,-0.28646 -0.64104,-0.64104 v -5.72924 h 5.72925 c 0.35457,0 0.64103,-0.28646 0.64103,-0.64104 v -5.12827 c 0,-0.35457 -0.28846,-0.63703 -0.64103,-0.63703 h -5.12827 c -0.35458,0 -0.64104,0.28246 -0.64104,0.63703 v 5.72925 h -6.37028 v 25.04041 c 0,0.35457 0.28847,0.64103 0.64104,0.64103 h 17.94897 c 0.35457,0 0.64103,0.28246 0.64103,0.63703 v 5.76932 h 5.76931 v -0.1212 c 0.35457,0 0.64103,-0.28647 0.64103,-0.64104 v -12.17965 h -5.76931 c -0.35457,0 -0.64103,-0.28246 -0.64103,-0.63703 v -5.12828 c 0,-0.35457 0.28847,-0.64104 0.64103,-0.64104 h 5.12828 c 0.35457,0 0.64103,0.28647 0.64103,0.64104 v 5.76932 h 12.8207 v -12.17967 c 0,-0.35457 -0.28446,-0.64103 -0.63703,-0.64103 h -5.12828 c -0.35457,0 -0.64104,-0.28646 -0.64104,-0.64103 v -5.12828 c 0,-0.35457 0.28847,-0.64103 0.64104,-0.64103 h 5.12828 c 0.35457,0 0.63703,-0.28647 0.63703,-0.64104 v -5.12828 c 0,-0.35457 0.28846,-0.64104 0.64103,-0.64104 h 5.12828 c 0.35457,0 0.64103,-0.28645 0.64103,-0.64103 v -5.12827 c 0,-0.35458 -0.28846,-0.64104 -0.64103,-0.64104 h -5.12828 c -0.35458,0 -0.64103,-0.28246 -0.64103,-0.63703 v -17.94897 c 0,-0.35457 0.28846,-0.64103 0.64103,-0.64103 h 18.59 V 94.120614 h 5.72925 c 0.35457,0 0.64104,0.286462 0.64104,0.641034 v 5.128278 c 0,0.354574 0.28845,0.641034 0.64103,0.641034 h 5.12828 c 0.35457,0 0.64103,-0.28646 0.64103,-0.641034 V 81.940957 c 0,-0.354573 -0.28847,-0.641035 -0.64103,-0.641035 h -11.53863 c -0.35457,0 -0.64104,-0.282456 -0.64104,-0.637028 V 69.124272 c 0,-0.354572 -0.28446,-0.637028 -0.63702,-0.637028 h -5.76931 V 80.6669 c 0,0.354573 -0.28847,0.637028 -0.64104,0.637028 h -5.7693 v 5.769312 c 0,0.354572 0.28245,0.641034 0.63702,0.641034 h 11.53862 c 0.35457,0 0.63703,0.286463 0.63703,0.641036 v 5.649116 h -5.72925 c -0.35457,2e-6 -0.64103,0.286462 -0.64103,0.641035 v 5.128277 c 0,0.354572 -0.28847,0.641032 -0.64104,0.641032 h -5.12827 c -0.35457,0 -0.64103,-0.28646 -0.64103,-0.641032 v -5.128277 c 0,-0.354573 -0.28847,-0.641035 -0.64104,-0.641035 h -5.12827 c -0.35458,2e-6 -0.64104,0.286462 -0.64104,0.641035 v 5.128277 c 0,0.354572 -0.28446,0.641032 -0.63702,0.641032 h -5.12829 c -0.35457,0 -0.64103,-0.28646 -0.64103,-0.641032 V 88.235115 c 0,-0.354572 0.28846,-0.641034 0.64103,-0.641034 h 5.12829 c 0.35457,0 0.63702,-0.286463 0.63702,-0.641035 v -5.128277 c 0,-0.354572 0.28846,-0.641034 0.64104,-0.641034 h 5.76931 V 68.483237 h 5.72924 0.64104 V 49.893234 c 0,-0.354572 -0.28847,-0.641034 -0.64104,-0.641034 h -11.53863 z m -19.832,121.79658 h -18.59001 c -0.35457,0 -0.64103,0.28646 -0.64103,0.64104 v 17.94896 c 0,0.35458 0.28846,0.64103 0.64103,0.64103 h 11.53862 c 0.35458,0 0.64103,-0.28645 0.64103,-0.64103 v -11.53862 c 0,-0.35457 0.28847,-0.64103 0.64104,-0.64103 h 5.76932 z m 0,6.41035 v 5.7693 c 0,0.35458 0.28846,0.64104 0.64103,0.64104 h 5.12828 0.64103 v -5.76931 c 0,-0.35457 -0.28847,-0.64103 -0.64103,-0.64103 z m 6.41034,6.41034 v 5.76931 c 0,0.35458 0.28446,0.64103 0.63703,0.64103 h 5.12827 c 0.35457,0 0.64104,-0.28645 0.64104,-0.64103 v -5.12828 c 0,-0.35457 -0.28647,-0.64103 -0.64104,-0.64103 h -5.76931 z m -25.64138,-83.3345 h -6.41035 v 5.76932 c 0,0.35457 -0.28446,0.64103 -0.63702,0.64103 h -5.12829 c -0.35457,0 -0.64103,-0.28646 -0.64103,-0.64103 v -5.76932 h -6.41034 v 12.17966 c 0,0.35457 0.28446,0.63703 0.63702,0.63703 h 11.53863 c 0.35457,0 0.63703,0.28646 0.63703,0.64103 v 5.76931 h 5.76931 c 0.35457,0 0.64103,0.28647 0.64103,0.64104 v 5.12828 c 0,0.35457 0.28847,0.64104 0.64104,0.64104 h 5.12827 c 0.35457,0 0.64103,-0.28647 0.64103,-0.64104 v -11.53863 c 0,-0.35457 -0.28846,-0.64103 -0.64103,-0.64103 h -5.12827 c -0.35458,0 -0.64104,-0.28246 -0.64104,-0.63703 v -12.17966 z m -6.41035,19.23104 h -5.76931 c -0.35457,0 -0.64104,0.28646 -0.64104,0.64103 v 5.76932 h 5.76932 c 0.35457,0 0.63703,-0.28646 0.63703,-0.64103 v -5.76932 z m -6.41035,-19.23104 h 5.76932 0.63703 v -6.410342 h -6.41035 v 6.410342 z m -19.23104,0 h -5.76931 c -0.35457,0 -0.64103,0.28246 -0.64103,0.63703 v 5.12828 c 0,0.35457 0.28847,0.64104 0.64103,0.64104 h 5.12828 c 0.35458,0 0.64103,-0.28647 0.64103,-0.64104 v -5.76931 z m -12.82068,-6.410342 h -5.76931 c -0.35458,0 -0.63703,0.286462 -0.63703,0.641035 v 17.948967 c 0,0.35457 0.28445,0.63703 0.63703,0.63703 h 5.12827 0.64104 V 94.125622 Z m 0,19.231042 v 6.41034 h 5.76931 c 0.35457,0 0.63702,-0.28646 0.63702,-0.64104 v -5.12827 c 0,-0.35457 -0.28446,-0.64103 -0.63702,-0.64103 z m 0,6.41034 h -5.76931 c -0.35458,0 -0.63703,0.28646 -0.63703,0.64103 v 5.12829 c 0,0.35457 0.28445,0.64103 0.63703,0.64103 h 5.12827 0.60298 v 6.41034 h -5.72925 c -0.35458,0 -0.63703,0.28246 -0.63703,0.63703 v 5.12828 c 0,0.35457 0.28445,0.64103 0.63703,0.64103 h 5.12828 c 0.35457,0 0.64103,-0.28646 0.64103,-0.64103 v -5.76931 h 25.04041 c 0.35457,0 0.64104,0.28246 0.64104,0.63703 v 5.12827 c 0,0.35457 0.28446,0.64104 0.63702,0.64104 h 17.94897 0.60298 v -5.76931 c 0,-0.35457 -0.28847,-0.63703 -0.64104,-0.63703 h -11.53862 c -0.35457,0 -0.64104,-0.28646 -0.64104,-0.64104 v -5.7693 H 486.11403 V 119.767 Z M 283.78749,49.858177 272.34902,50.003012 v 63.903138 h 11.41844 V 98.541349 l 3.04491,-3.285303 14.88402,18.610044 h 13.70212 L 294.16423,87.423405 312.65408,67.551333 H 298.71157 L 283.68732,83.657327 V 49.802689 Z m -85.9387,5.589021 -11.23814,1.197933 v 11.097911 h -6.37028 v 11.097912 h 6.37028 v 19.691781 c 0,9.214865 7.57222,16.686935 16.78709,16.686935 3.54572,0 9.27498,-1.03367 9.27498,-1.03367 l -1.37022,-10.6572 c 0,0 -4.82779,0.56291 -7.89274,0.56291 -3.04491,0 -5.54895,-2.54411 -5.54895,-5.589023 V 78.810906 H 211.3025 V 67.712994 h -13.44169 l -0.0196,-12.259787 z m 248.4009,0 -11.29824,1.197933 v 11.097911 h -6.37028 v 11.097912 h 6.37028 v 19.691781 c 0,9.214865 7.57223,16.686935 16.7871,16.686935 3.54572,0 9.27496,-1.03367 9.27496,-1.03367 l -1.35418,-10.6572 c 0,0 -4.82779,0.56291 -7.89274,0.56291 -3.04491,0 -5.54895,-2.54411 -5.54895,-5.589023 V 78.810906 h 13.44169 V 67.712994 h -13.44169 l 0.0312,-12.259787 z M 415.3999,66.485013 v 0.05869 c -5.62909,0 -9.71569,1.915091 -12.62037,5.108244 V 67.665518 H 391.5414 V 113.9402 h 11.23813 V 90.101728 c 0,-6.951219 5.62909,-12.540239 12.62037,-12.540239 3.46559,0 5.62908,0.398644 5.62908,0.398644 V 66.982415 c 0,0 -3.68595,-0.637028 -5.62908,-0.637028 z m -52.48471,0.05088 0.0353,0.0078 c -5.62909,0 -11.47852,2.163492 -16.46658,7.091445 v 0.07432 c -4.34701,4.547339 -6.75089,10.717297 -6.75089,17.107611 0,13.481761 10.5971,24.439451 23.83847,24.439451 13.18128,0 18.36965,-4.78773 18.36965,-4.78773 l -4.82779,-9.21488 c 0,0 -6.43038,2.7244 -13.5018,2.7244 -5.70921,0 -10.537,-3.76608 -12.23975,-9.034582 h 33.85464 v -4.867856 c -0.0739,-11.037814 -6.10986,-18.630067 -13.70212,-21.83524 -2.66429,-1.115801 -5.54895,-1.674703 -8.45364,-1.674703 z m -121.79656,0.0078 c -13.18128,0 -23.83848,10.977717 -23.83848,24.439444 0,13.421663 10.71729,24.239123 23.83848,24.239123 5.62907,0 9.71567,-1.91309 12.62036,-5.18838 v 4.06657 h 11.29823 V 67.825776 h -11.29823 v 4.086595 c -2.90469,-3.285302 -7.01132,-5.268502 -12.62036,-5.268502 z m 121.79656,11.097913 c 1.37021,0 2.74443,0.240387 3.94637,0.797286 3.14507,1.360195 5.62908,4.306951 6.49048,8.33345 h -22.23589 c 0.64304,-1.919098 1.60059,-3.766079 3.04491,-5.188375 2.66431,-2.644267 5.70921,-3.926336 8.71407,-3.926336 l 0.008,-0.02744 z m -121.79656,0.08614 c 6.75089,0 12.11955,5.428762 12.62036,12.219722 v 1.842974 c -0.48278,6.770928 -5.86947,12.279818 -12.62036,12.279818 -7.07142,0 -12.62037,-5.989666 -12.62037,-13.161241 0,-7.211639 5.54895,-13.16124 12.62037,-13.16124 v -0.02744 z m 380.61427,3.545723 c -0.35457,0 -0.64103,0.286462 -0.64103,0.641034 v 5.128277 c 0,0.354572 0.28847,0.641034 0.64103,0.641034 h 5.12828 c 0.35457,0 0.64103,-0.286462 0.64103,-0.641034 v -5.128277 c 0,-0.354572 -0.28846,-0.641034 -0.64103,-0.641034 z M 42.798549,86.081239 V 101.94684 H 69.241224 V 86.081239 Z m 49.68018,0 V 101.94684 H 118.92141 V 86.081239 Z m 540.872931,1.604589 c -0.35457,0 -0.64104,0.286463 -0.64104,0.641036 v 5.128276 c 0,0.354572 -0.28846,0.641034 -0.64103,0.641034 h -11.53863 c -0.35457,0 -0.64103,0.286462 -0.64103,0.641036 v 5.128276 c 0,0.354574 0.28846,0.641034 0.64103,0.641034 h 5.12828 c 0.35458,0 0.64103,0.28246 0.64103,0.63703 v 11.53862 c 0,0.35457 0.28847,0.63703 0.64105,0.63703 h 5.12827 c 0.35457,0 0.64103,0.28646 0.64103,0.64103 v 5.12828 c 0,0.35457 -0.28846,0.64103 -0.64103,0.64103 h -12.17966 v 5.76931 c 0,0.35458 0.28846,0.64104 0.64103,0.64104 h 5.12828 c 0.35458,0 0.64103,0.28646 0.64103,0.64103 v 5.12828 c 0,0.35458 0.28847,0.64104 0.64105,0.64104 h 5.12827 c 0.35457,0 0.64103,-0.28646 0.64103,-0.64104 v -5.12828 c 0,-0.35457 0.28647,-0.64103 0.64104,-0.64103 h 5.12827 c 0.35457,0 0.64104,-0.28646 0.64104,-0.64104 v -17.94896 c 0,-0.35458 -0.28847,-0.64103 -0.64104,-0.64103 h -5.12827 c -0.35457,0 -0.64104,-0.28647 -0.64104,-0.64104 v -5.12828 c 0,-0.35457 0.28647,-0.63703 0.64104,-0.63703 h 5.12827 c 0.35457,0 0.64104,-0.28646 0.64104,-0.64103 V 88.322857 c 0,-0.354573 -0.28847,-0.641035 -0.64104,-0.641035 h -5.12827 z M 619.88993,119.73756 V 107.5579 c 0,-0.35457 -0.28246,-0.64103 -0.63703,-0.64103 h -5.12827 c -0.35458,0 -0.64104,0.28646 -0.64104,0.64103 v 11.53862 c 0,0.35457 0.28847,0.64104 0.64104,0.64104 h 5.12827 z m -82.5332,-25.641386 h 5.72924 v 5.649118 c 0,0.354568 -0.28846,0.641038 -0.64103,0.641038 h -5.72925 v -5.64912 c 2e-5,-0.354574 0.28847,-0.641036 0.64104,-0.641036 z m 70.5138,0 c -0.35457,0 -0.63703,0.286462 -0.63703,0.641036 v 5.128276 c 0,0.354574 0.28446,0.641034 0.63703,0.641034 h 5.12827 c 0.35459,0 0.64104,-0.28646 0.64104,-0.641034 V 94.73721 c 0,-0.354574 -0.28846,-0.641036 -0.64104,-0.641036 z m -19.87207,12.820696 v 5.76931 c 0,0.35457 -0.28446,0.63703 -0.63703,0.63703 h -5.12828 c -0.35457,0 -0.64103,0.28646 -0.64103,0.64103 v 11.53862 c 0,0.35458 0.28847,0.64103 0.64103,0.64103 h 5.12828 c 0.35457,0 0.63703,-0.28645 0.63703,-0.64103 v -5.12828 c 0,-0.35457 0.28646,-0.64103 0.64103,-0.64103 h 12.17966 v -5.76931 c 0,-0.35457 0.28847,-0.64103 0.64104,-0.64103 h 5.12827 c 0.35457,0 0.64104,-0.28246 0.64104,-0.63703 v -5.12828 c 0,-0.35457 -0.28647,-0.64103 -0.64104,-0.64103 z m 12.82069,12.82069 v 6.41034 h -5.72924 c -0.35457,0 -0.64104,0.28646 -0.64104,0.64103 v 5.12829 c 0,0.35457 -0.28846,0.64103 -0.64103,0.64103 h -11.53863 c -0.35457,0 -0.64103,0.28246 -0.64103,0.63703 v 11.53862 c 0,0.35457 -0.28847,0.63703 -0.64104,0.63703 h -5.12827 c -0.35457,0 -0.64104,0.28646 -0.64104,0.64103 v 5.12828 c 0,0.35457 0.28647,0.64104 0.64104,0.64104 h 5.12827 c 0.35457,0 0.64104,0.28645 0.64104,0.64103 v 11.53862 c 0,0.35457 0.28846,0.64103 0.64103,0.64103 h 17.94897 c 0.35457,0 0.63703,0.28246 0.63703,0.63703 v 5.12828 c 0,0.35458 0.28847,0.64103 0.64103,0.64103 h 5.12828 c 0.35457,0 0.64103,0.28646 0.64103,0.64103 V 183.829 h 12.17966 v 0.0783 c 0.35458,0 0.64104,-0.28646 0.64104,-0.64103 v -5.12828 c 0,-0.35457 -0.28646,-0.64103 -0.64104,-0.64103 h -5.12827 c -0.35458,0 -0.64103,-0.28647 -0.64103,-0.64104 v -5.12827 c 0,-0.35457 0.28845,-0.64104 0.64103,-0.64104 h 11.53862 c 0.35457,0 0.64103,-0.28245 0.64103,-0.63702 v -5.76932 h -5.76931 c -0.35457,0 -0.63703,-0.28647 -0.63703,-0.64104 v -30.84978 c 0,-0.35457 -0.28646,-0.63703 -0.64103,-0.63703 h -5.12827 c -0.35458,0 -0.64104,-0.28646 -0.64104,-0.64103 v -5.12829 c 0,-0.35457 -0.28846,-0.64103 -0.64103,-0.64103 h -5.76932 v 5.76932 c 0,0.35457 -0.28646,0.64103 -0.64104,0.64103 h -5.12827 c -0.35457,0 -0.64103,-0.28646 -0.64103,-0.64103 v -5.76932 h 5.72924 0.64104 v -5.76931 c 0,-0.35457 -0.28647,-0.64103 -0.64104,-0.64103 h -5.76931 z m 6.45041,64.10346 h -5.76931 c -0.35457,0 -0.64103,-0.28647 -0.64103,-0.64104 v -5.12827 c 0,-0.35457 -0.28446,-0.64104 -0.63703,-0.64104 h -5.12828 c -0.35457,0 -0.64103,0.28647 -0.64103,0.64104 v 11.53861 c 0,0.35458 0.28847,0.64104 0.64103,0.64104 h 11.53862 c 0.35457,0 0.64104,-0.28646 0.64104,-0.64104 v -5.7693 z M 550.17742,126.1479 c -0.35458,0 -0.64103,0.28646 -0.64103,0.64103 v 5.12829 c 0,0.35457 0.28846,0.64103 0.64103,0.64103 h 5.12828 0.63703 v -5.76932 c 0,-0.35457 -0.28446,-0.64103 -0.63703,-0.64103 z m -248.4009,4.16673 -0.0978,0.0312 c -12.62037,0 -21.03394,8.45364 -21.03394,17.80874 0,1.27205 0.18229,2.52407 0.46474,3.76608 0.97157,3.92633 3.22521,6.89112 6.08983,8.91438 2.86462,2.02328 6.27012,3.20518 9.83588,4.06657 3.00485,0.72116 6.12989,1.29809 8.71406,2.1034 1.24401,0.40665 2.24362,0.87141 2.86462,1.38423 0.62101,0.51683 0.97958,0.98358 1.12983,2.10339 v 0.11338 l 0.0353,0.10557 c 0.002,0.0126 0,-0.0759 0,0.1799 0,0.83334 -0.43071,1.60058 -1.71077,2.38385 -1.28007,0.78927 -3.38546,1.35819 -5.84944,1.35819 -7.13151,0 -13.50179,-3.74605 -13.50179,-3.74605 l -2.06332,-1.29208 -7.19161,11.41842 2.08335,1.28407 c 0,0 9.33507,5.78934 20.63331,5.78934 12.68046,0 21.23427,-8.21325 21.23427,-17.36802 0,-0.72718 -0.0535,-1.38023 -0.14483,-2.00324 v -0.0391 c -0.76925,-5.30857 -3.54573,-9.09468 -7.13151,-11.53862 -3.60582,-2.42391 -7.89274,-3.62585 -12.17967,-4.52731 -2.44393,-0.51883 -4.74766,-0.93351 -6.6307,-1.60459 -0.9335,-0.34455 -1.64866,-0.69111 -2.08335,-1.03767 -0.4287,-0.34455 -0.63102,-0.621 -0.8013,-1.29208 l -0.0353,-0.0665 v -0.0353 c -0.018,-0.0941 -0.0391,-0.15083 -0.0391,-0.53285 0,-0.95955 0.4948,-1.89706 1.74082,-2.76446 1.25001,-0.8654 3.2252,-1.53047 5.60904,-1.53047 3.30534,0 5.60906,0.70313 7.07142,1.35017 1.45033,0.64504 1.89305,1.1118 1.89305,1.1118 l 1.63464,1.53047 10.0362,-8.77416 -1.51845,-1.78889 c 0,0 -1.64866,-1.89506 -4.7677,-3.56575 -3.12504,-1.6747 -7.89273,-3.2853 -14.32312,-3.2853 z m -119.99366,0.9275 v 56.09052 h 22.23588 c 15.58515,-0.0703 28.2456,-12.60034 28.2456,-28.04527 0,-15.42488 -12.74057,-27.84493 -28.2456,-28.04525 z m 55.8902,0 v 56.09052 h 39.86434 v -13.80228 h -25.84171 v -7.21163 h 18.93056 v -13.92247 h -18.93056 v -7.33184 h 25.84171 v -13.74217 h -39.86434 z m 91.54775,0 v 56.09052 h 14.0026 v -56.09052 z m 48.87889,0.0665 c -16.22619,0 -29.44753,12.98095 -29.44753,28.84656 0,15.8656 13.18128,29.04688 29.44753,29.04688 8.71407,0 16.96739,-3.74605 22.43621,-10.27659 l 0.58294,-0.6811 v -24.0388 H 374.0752 v 13.92247 h 13.12118 v 3.96641 c -2.62423,1.94313 -5.72924,3.2853 -9.09468,3.2853 -8.45364,0 -15.32473,-6.83102 -15.32473,-15.10438 0,-8.33345 6.87109,-15.04428 15.32473,-15.04428 4.06657,0 8.01293,1.66268 10.85752,4.46721 l 1.70676,1.68271 10.0362,-9.77577 -1.75283,-1.71276 c -5.52892,-5.42876 -13.06108,-8.45365 -20.83363,-8.45365 l -0.0312,-0.0391 z m 28.64623,0 v 56.09053 h 14.0026 v -32.6527 l 23.03718,32.6527 h 14.76383 v -56.09053 h -14.0627 v 32.6527 l -22.83685,-32.6527 h -14.76383 z m 220.35564,7.61229 c -0.35457,0 -0.64104,0.28646 -0.64104,0.64103 v 25.04041 h 12.17967 v 0.0391 c 0.35457,0 0.64103,-0.28647 0.64103,-0.64104 v -24.43944 c 0,-0.35457 -0.28847,-0.64103 -0.64103,-0.64103 h -11.53863 z m -38.46208,0.0391 h 17.94897 c 0.35457,0 0.64104,0.28646 0.64104,0.64104 v 17.94897 c 0,0.35457 -0.28647,0.64103 -0.64104,0.64103 h -17.94897 c -0.35457,0 -0.64103,-0.28646 -0.64103,-0.64103 v -17.94897 c 0,-0.35458 0.28646,-0.64104 0.64103,-0.64104 z m -392.63367,6.0097 h 7.95283 c 8.01293,0 14.38321,6.33022 14.38321,14.22295 0,7.89274 -6.37028,14.24299 -14.38321,14.24299 h -7.95283 v -28.44591 z m 282.45586,0.32052 c -0.35457,0 -0.64104,0.28646 -0.64104,0.64103 v 43.67048 c 0,0.35457 0.28847,0.64103 0.64104,0.64103 h 43.67048 c 0.35457,0 0.64103,-0.28646 0.64103,-0.64103 v -43.67048 c 0,-0.35457 -0.28846,-0.64103 -0.64103,-0.64103 z m 115.38622,0.0783 c -0.35457,0 -0.64103,0.28646 -0.64103,0.64104 v 5.12828 c 0,0.35457 0.28846,0.64103 0.64103,0.64103 h 5.12828 c 0.35457,0 0.64103,-0.28646 0.64103,-0.64103 v -5.12828 c 0,-0.35458 -0.28847,-0.64104 -0.64103,-0.64104 z m -108.97588,6.33022 h 30.8498 c 0.35457,0 0.64103,0.28646 0.64103,0.64103 v 30.84979 c 0,0.35458 -0.28847,0.64104 -0.64103,0.64104 h -30.8498 c -0.35457,0 -0.63703,-0.28646 -0.63703,-0.64104 v -30.84979 c 0,-0.35457 0.28446,-0.64103 0.63703,-0.64103 z m 6.53055,6.49048 c -0.35459,0 -0.63703,0.28646 -0.63703,0.64103 v 17.94897 c 0,0.35457 0.28445,0.63703 0.63703,0.63703 h 17.94896 c 0.35458,0 0.64103,-0.28246 0.64103,-0.63703 v -17.94897 c 0,-0.35457 -0.28846,-0.64103 -0.64103,-0.64103 z m 76.32317,0 v 5.76931 c 0,0.35457 0.28847,0.64103 0.64103,0.64103 h 5.12828 c 0.35457,0 0.64103,-0.28646 0.64103,-0.64103 v -5.12828 c 0,-0.35457 -0.28846,-0.64103 -0.64103,-0.64103 z m -5.76931,12.82068 c -0.35457,0 -0.64103,0.28647 -0.64103,0.64104 v 5.12828 c 0,0.35457 0.28846,0.63703 0.64103,0.63703 h 5.12828 c 0.35457,0 0.63702,-0.28246 0.63702,-0.63703 v -5.12828 c 0,-0.35457 -0.28446,-0.64104 -0.63702,-0.64104 z m 12.82069,0 c -0.35457,0 -0.64104,0.28647 -0.64104,0.64104 v 17.94897 c 0,0.35457 0.28647,0.64103 0.64104,0.64103 h 11.53862 c 0.35458,0 0.64104,-0.28646 0.64104,-0.64103 v -17.94897 c 0,-0.35457 -0.28847,-0.64104 -0.64104,-0.64104 z m 57.69311,0 c -0.35457,0 -0.64103,0.28647 -0.64103,0.64104 v 5.76932 h 5.76931 c 0.35457,0 0.64103,-0.28246 0.64103,-0.63703 v -5.12829 c 0,-0.35457 -0.28846,-0.64103 -0.64103,-0.64103 h -5.12828 z m -0.64103,6.41036 h -5.76931 c -0.35457,0 -0.64103,0.28646 -0.64103,0.64103 v 11.53862 c 0,0.35457 0.28846,0.64103 0.64103,0.64103 h 11.53862 c 0.35457,0 0.64103,-0.28646 0.64103,-0.64103 v -5.12828 c 0,-0.35457 -0.28846,-0.64103 -0.64103,-0.64103 h -5.12828 c -0.35457,0 -0.64103,-0.28646 -0.64103,-0.64104 z"
   style="fill:#2a2e39;stroke-width:29.6478"
   id="path469" />



</svg>
