<?xml version="1.0" encoding="UTF-8" standalone="no"?>
<!-- Created with Inkscape (http://www.inkscape.org/) -->

<svg
   version="1.1"
   id="svg2"
   width="228.8"
   height="145.92"
   viewBox="0 0 228.8 145.92"
   sodipodi:docname="error.svg"
   inkscape:version="1.2.1 (9c6d41e410, 2022-07-14)"
   xmlns:inkscape="http://www.inkscape.org/namespaces/inkscape"
   xmlns:sodipodi="http://sodipodi.sourceforge.net/DTD/sodipodi-0.dtd"
   xmlns="http://www.w3.org/2000/svg"
   xmlns:svg="http://www.w3.org/2000/svg">
  <defs
     id="defs6" />
  <sodipodi:namedview
     id="namedview4"
     pagecolor="#505050"
     bordercolor="#eeeeee"
     borderopacity="1"
     inkscape:showpageshadow="0"
     inkscape:pageopacity="0"
     inkscape:pagecheckerboard="0"
     inkscape:deskcolor="#505050"
     showgrid="false"
     inkscape:zoom="3.9202946"
     inkscape:cx="101.52298"
     inkscape:cy="67.979584"
     inkscape:current-layer="g8" />
  <g
     inkscape:groupmode="layer"
     inkscape:label="Image"
     id="g8">
    <rect
       style="display:inline;fill:#d8dee9;fill-opacity:1;stroke-width:7.55906;stroke-linecap:round"
       id="rect347"
       width="228.8"
       height="145.92"
       x="0"
       y="0" />
    <path
       style="fill:#4c566a;fill-opacity:1;stroke-width:1"
       d="m 203.50724,136.70717 c -2.64869,-0.0813 -2.88337,-0.13354 -2.88337,-0.64132 0,-0.30402 0.13502,-0.55277 0.30007,-0.55277 0.16504,0 0.71497,-0.31646 1.2221,-0.70325 0.50711,-0.3868 1.17658,-0.70327 1.48771,-0.70327 0.39305,0 0.64315,-0.27007 0.81948,-0.88493 0.35372,-1.23333 1.0451,-1.62378 1.74836,-0.98733 0.52699,0.47692 0.57168,0.46436 1.21201,-0.34051 0.61994,-0.77925 1.0531,-0.99685 1.82121,-0.91491 0.17184,0.0184 0.39002,0.68837 0.48484,1.48898 0.1521,1.28421 0.38199,1.70768 1.07801,1.98576 0.10311,0.0413 0.27543,0.5496 0.38294,1.12979 l 0.19547,1.05489 h -2.11809 c -1.16496,0 -2.28667,0.0355 -2.49273,0.0787 -0.20604,0.0433 -1.67215,0.0388 -3.25801,-0.01 z m 7.34595,-0.77051 c -0.0887,-0.23119 -0.27462,-0.35031 -0.41313,-0.26471 -0.39718,0.24548 -0.29368,0.68505 0.1613,0.68505 0.25095,0 0.3498,-0.16501 0.25183,-0.42034 z m 2.509,0.35001 c -0.16323,-0.34812 -0.4606,-1.20258 -0.66082,-1.89881 -0.20023,-0.69623 -0.48334,-1.4241 -0.62912,-1.6175 -0.14579,-0.1934 -0.18183,-0.35164 -0.0801,-0.35164 0.10175,0 0.0324,-0.28481 -0.15432,-0.63292 -0.31516,-0.58793 -1.46749,-11.6839 -1.40956,-13.57297 0.0438,-1.43189 -0.48322,-0.19715 -0.69055,1.6175 -0.13208,1.1561 -0.30338,1.61751 -0.60051,1.61751 -0.27754,0 -0.35402,0.16077 -0.2301,0.48371 0.1021,0.26604 0.10782,0.40591 0.0127,0.31083 -0.0951,-0.0951 -0.50002,0.13029 -0.89985,0.50085 -0.39985,0.37056 -0.84412,0.67374 -0.9873,0.67374 -0.53007,0 -1.13258,0.89734 -1.1755,1.75073 -0.0244,0.48389 -0.19909,0.9314 -0.38835,0.9945 -0.18927,0.0631 -0.34412,0.42916 -0.34412,0.81348 0,0.57076 -0.10307,0.66607 -0.56261,0.52022 -0.37882,-0.12024 -0.56261,-0.0506 -0.56261,0.21331 0,0.21553 -0.30241,0.67599 -0.67203,1.02322 -0.36963,0.34725 -0.7425,0.98363 -0.82861,1.41419 -0.20267,1.01331 -2.22628,1.15073 -2.39038,0.16232 -0.19991,-1.20426 -1.8212,-2.00491 -3.77453,-1.864 -0.56189,0.0405 -0.70286,1.32497 -0.16509,1.50422 0.20516,0.0684 0.32094,0.77173 0.31045,1.88589 -0.0143,1.51587 0.0616,1.79731 0.51672,1.91632 0.2934,0.0767 0.53346,0.30407 0.53346,0.50521 0,0.20114 0.15823,0.42955 0.35163,0.50759 0.1934,0.0781 0.0693,0.15188 -0.27581,0.1641 -0.52895,0.0187 -0.61189,0.15576 -0.5284,0.87291 l 0.0991,0.85071 -4.5175,-0.0771 -4.51749,-0.0771 -0.23662,-0.91424 c -0.13202,-0.51002 -0.41963,-0.91424 -0.65054,-0.91424 -0.23434,0 -0.41392,-0.25903 -0.41392,-0.59705 0,-0.46661 0.0822,-0.52883 0.37628,-0.28478 0.29056,0.24115 0.46225,0.15165 0.75367,-0.39287 0.26398,-0.49327 0.44161,-0.60125 0.59111,-0.35936 0.16184,0.26186 0.34279,0.22901 0.74534,-0.13528 0.29239,-0.2646 0.73397,-0.4811 0.98132,-0.4811 0.52111,0 1.61577,-1.28668 1.61577,-1.89921 0,-0.29263 -0.20899,-0.37686 -0.70148,-0.28272 -0.38581,0.0737 -0.83501,-0.0268 -0.99823,-0.22347 -0.35474,-0.42746 -0.2833,-0.47414 1.69971,-1.11068 0.85095,-0.27315 1.67377,-0.5881 1.82848,-0.6999 0.70302,-0.50799 2.0778,-0.80353 2.2116,-0.47545 0.0743,0.18216 0.14701,0.0781 0.1616,-0.23141 0.0216,-0.4587 0.0748,-0.48618 0.28821,-0.1488 0.14394,0.22761 0.34177,0.33376 0.43962,0.2359 0.31446,-0.31445 0.27698,-4.63855 -0.0437,-5.04365 -0.16904,-0.21352 -0.3941,-0.768 -0.50015,-1.23215 -0.10605,-0.46416 -0.25862,-1.06545 -0.33905,-1.3362 -0.0804,-0.27076 -0.0259,-0.49228 0.1212,-0.49228 0.1471,0 0.337,0.26591 0.42199,0.59091 0.0851,0.32539 0.28944,0.50752 0.45476,0.40535 0.16513,-0.10205 0.30024,0.007 0.30024,0.24205 0,0.23518 0.26664,0.67601 0.59252,0.97962 0.35221,0.32814 0.50551,0.69282 0.37797,0.89919 -0.15862,0.25666 -0.0381,0.29413 0.46237,0.14376 0.37231,-0.11186 1.15968,-0.2555 1.74972,-0.31921 0.59005,-0.0637 1.4324,-0.37186 1.87191,-0.68483 0.43951,-0.31296 0.9378,-0.56902 1.10732,-0.56902 0.16951,0 0.3082,-0.18988 0.3082,-0.42195 0,-0.46413 -0.46019,-0.58054 -0.60949,-0.15417 -0.0516,0.14729 -0.37005,-0.0438 -0.70773,-0.42455 l -0.61396,-0.69234 0.75461,-0.39621 c 0.41504,-0.21792 1.45084,-1.10109 2.30179,-1.96259 0.85095,-0.8615 1.71677,-1.56813 1.92404,-1.57031 0.49749,-0.005 1.43041,-1.14088 1.44226,-1.75564 0.0303,-1.57013 2.82241,-1.59725 2.82241,-0.0275 0,2.57982 1.07478,-0.82498 1.25877,-3.98766 0.054,-0.92831 0.0373,-1.40301 -0.0373,-1.05489 -0.15957,0.74573 -0.66064,0.85331 -0.65508,0.14064 0.006,-0.84494 0.3309,-1.75833 0.57151,-1.60962 1.1219,0.69338 1.42045,-8.362917 0.399,-12.103991 -0.21121,-0.773589 -0.466,-2.292636 -0.56618,-3.375659 -0.31807,-3.438666 -2.45768,-9.616652 -3.61004,-10.423795 -0.39531,-0.276893 -0.44824,-0.402409 -0.16605,-0.393778 1.62251,0.04962 3.28094,3.588098 4.08117,8.707785 0.25392,1.624536 0.69183,3.9664 0.97314,5.204141 0.47516,2.090761 0.66596,5.161267 0.66419,10.689587 -8.3e-4,2.50872 -0.57763,5.42864 -1.86172,9.42372 l -0.85895,2.6724 0.30268,6.05235 c 0.30092,6.01735 1.51557,11.84408 2.61006,12.52051 0.39686,0.24527 0.32947,0.69653 -0.10402,0.69653 -0.20594,0 -0.50797,-0.28482 -0.67119,-0.63294 z m -86.86217,-0.3379 c 0.46415,-0.38322 1.00107,-0.70131 1.19316,-0.70687 0.19208,-0.005 0.50736,-0.26329 0.7006,-0.57273 0.19325,-0.30944 0.57407,-0.56261 0.8463,-0.56261 0.27222,0 0.49494,-0.17438 0.49494,-0.38752 0,-0.21313 0.18988,-0.5451 0.42196,-0.7377 0.55925,-0.46413 0.53746,-1.30202 -0.0396,-1.52346 -0.53144,-0.20393 -1.50756,0.0449 -1.50756,0.38438 0,0.12626 -0.2537,0.29589 -0.56376,0.37698 -0.39394,0.10301 -0.50833,0.2919 -0.37973,0.62704 0.15785,0.41136 0.0579,0.45193 -0.70211,0.28498 -0.57985,-0.12734 -0.88615,-0.0864 -0.88615,0.11852 0,0.57307 -2.05586,1.53772 -3.50053,1.64252 -0.78227,0.0567 -1.94872,0.33398 -2.59214,0.6161 -1.13844,0.49914 -1.17356,0.49874 -1.30806,-0.0156 -0.11412,-0.43638 -0.34306,-0.50816 -1.31308,-0.41165 -0.82341,0.0819 -1.47399,-0.0512 -2.17483,-0.44478 -1.28781,-0.7233 -1.77007,-0.52517 -1.77007,0.72725 0,0.6898 -0.12732,0.99339 -0.4166,0.99339 -0.50234,0 -0.82711,-1.1298 -0.62647,-2.17938 0.0955,-0.49977 -0.0489,-1.03586 -0.41929,-1.556 -0.31079,-0.43645 -0.50239,-1.03322 -0.42578,-1.32615 0.0809,-0.30915 -0.0839,-0.73463 -0.39281,-1.01413 -0.66233,-0.59939 -0.77161,-2.06854 -0.11324,-1.52214 0.23037,0.19119 0.34949,0.45986 0.2647,0.59705 -0.0847,0.13719 0.0432,0.24943 0.2844,0.24943 0.31393,0 0.44706,0.29979 0.46848,1.0549 l 0.0299,1.05489 0.30568,-0.77359 c 0.16814,-0.42547 0.40785,-0.77359 0.53269,-0.77359 0.4487,0 0.21111,-0.61616 -0.68431,-1.77465 -0.50124,-0.64847 -0.95005,-1.23755 -0.99738,-1.30905 -0.0473,-0.0714 -0.32723,0.0206 -0.62201,0.20473 -0.65917,0.41165 -1.32272,-0.13535 -1.56479,-1.28995 -0.0869,-0.41465 -0.26835,-0.95985 -0.40314,-1.21156 -0.13479,-0.25171 -0.33336,-0.94795 -0.44127,-1.54718 -0.17989,-0.99893 -0.87017,-2.57772 -1.27582,-2.91801 -0.27089,-0.22725 -0.54093,-1.58873 -0.35247,-1.77718 0.27973,-0.27974 1.36624,1.28788 1.27321,1.83703 -0.0516,0.30469 0.088,0.50276 0.35446,0.50276 0.24259,0 0.43965,0.23679 0.43965,0.5283 0,0.29056 0.2701,0.70764 0.60023,0.92685 0.54804,0.36387 0.56144,0.43734 0.15405,0.84473 -0.24541,0.24541 -0.36783,0.52455 -0.27205,0.62033 0.24262,0.24263 0.64991,0.21802 0.60968,-0.0368 -0.10869,-0.6883 0.11476,-0.67966 0.72334,0.0279 0.37914,0.44086 0.84023,0.75127 1.02463,0.6898 0.18441,-0.0615 0.82675,0.32943 1.42743,0.86868 0.60068,0.53924 1.35744,0.99998 1.68167,1.02388 0.32424,0.0239 0.70699,0.25333 0.85056,0.50987 0.14357,0.25654 0.44463,0.46645 0.66902,0.46645 0.22439,0 0.40798,0.11677 0.40798,0.25949 0,0.50429 1.86071,0.85911 4.50087,0.85826 1.46982,-5.6e-4 3.27819,0.0629 4.01863,0.14084 1.0373,0.10916 1.38385,0.0436 1.51016,-0.28553 0.0998,-0.26006 0.36178,-0.36443 0.66957,-0.26674 0.27808,0.0883 0.58704,0.0287 0.68654,-0.13228 0.0995,-0.16101 0.45828,-0.28384 0.79727,-0.27297 0.59421,0.0191 0.59614,0.0285 0.0537,0.26154 -0.54481,0.23411 -0.54332,0.24238 0.0468,0.26152 0.33523,0.0109 0.6737,-0.13845 0.75218,-0.33185 0.11315,-0.27886 0.19375,-0.27961 0.38946,-0.004 0.18235,0.25719 0.49958,0.27554 1.2151,0.0704 0.53258,-0.15274 1.38587,-0.27771 1.89619,-0.27771 0.5504,0 1.18056,-0.23674 1.54903,-0.58192 0.42203,-0.39536 0.8543,-0.53587 1.34832,-0.43828 0.39994,0.079 1.07898,-0.0388 1.509,-0.26199 0.43003,-0.2231 0.95728,-0.40564 1.17167,-0.40564 0.21439,0 0.39126,-0.0949 0.39303,-0.21098 0.002,-0.11604 0.53977,-0.4568 1.19555,-0.75725 0.65577,-0.30044 1.36507,-0.7435 1.57622,-0.98456 0.28493,-0.3253 0.41771,-0.34822 0.51498,-0.0889 0.0944,0.25152 0.27937,0.27002 0.66051,0.066 0.3374,-0.18057 0.46489,-0.45159 0.35146,-0.74716 -0.1037,-0.27022 -0.0627,-0.39253 0.0984,-0.29303 0.46859,0.2896 1.7233,-0.73904 2.85959,-2.34433 1.25059,-1.76677 1.74089,-2.81788 1.04504,-2.24038 -0.23561,0.19553 -0.42839,0.47831 -0.42839,0.62835 0,0.37442 -1.11921,1.76808 -1.41989,1.76808 -0.13405,0 -0.44844,0.25318 -0.69865,0.56261 -0.2502,0.30944 -0.37477,0.40438 -0.2768,0.21099 0.098,-0.1934 0.0545,-0.35164 -0.0964,-0.35164 -0.15095,0 -0.33097,0.15824 -0.40005,0.35164 -0.0691,0.19339 -0.2368,0.24719 -0.37272,0.11955 -0.13822,-0.12979 -0.0312,-0.35294 0.24279,-0.50626 0.26946,-0.15081 0.48994,-0.38797 0.48994,-0.52703 0,-0.13906 0.31655,-0.5944 0.70344,-1.01186 0.4997,-0.53919 0.62092,-0.8585 0.4185,-1.1024 -0.19865,-0.23935 -0.15611,-0.4503 0.14046,-0.69642 0.35385,-0.29368 0.42616,-0.26446 0.42973,0.17366 0.004,0.42939 0.0521,0.45123 0.26276,0.1182 0.14213,-0.22469 0.20488,-0.49518 0.13943,-0.60107 -0.0654,-0.10589 0.0695,-0.34896 0.29987,-0.54016 0.54054,-0.44861 0.5388,-1.29772 -0.004,-1.50567 -0.7047,-0.27043 1.07393,-4.7086 2.56102,-6.39045 0.68174,-0.77101 0.42793,-0.89813 -0.59188,-0.29642 -1.1067,0.65297 -1.35626,0.261 -0.45187,-0.70974 0.70218,-0.75369 1.32196,-1.98978 1.56609,-3.12339 0.10859,-0.50418 0.31371,-0.84482 0.45584,-0.75699 0.14213,0.0878 0.26697,-0.006 0.2774,-0.20852 0.0105,-0.20252 0.0727,-0.77964 0.13829,-1.28247 0.0716,-0.54904 -0.005,-0.91424 -0.18973,-0.91424 -0.16998,0 -0.23617,0.18988 -0.14712,0.42196 0.0891,0.23207 0.0477,0.42196 -0.0917,0.42196 -0.13951,0 -0.24334,-0.363 -0.23073,-0.80668 0.0174,-0.61261 0.13708,-0.7768 0.49744,-0.68256 0.37934,0.0992 0.4826,-0.0912 0.51485,-0.9491 l 0.0404,-1.073185 -0.96421,1.052495 c -0.53032,0.57889 -1.10171,1.05251 -1.26975,1.05251 -0.48038,0 -1.76936,0.90982 -2.49088,1.75815 -0.36187,0.42548 -0.81694,0.77359 -1.0113,0.77359 -0.19434,0 -0.58246,0.25318 -0.8625,0.56261 -0.28004,0.30944 -0.76041,0.56261 -1.06748,0.56261 -0.30708,0 -0.69887,0.17057 -0.87065,0.37903 -0.17176,0.20845 -1.26172,0.66717 -2.4221,1.01936 -1.16038,0.35219 -2.26247,0.76218 -2.44909,0.91108 -0.18662,0.1489 -0.47242,0.18845 -0.6351,0.0879 -0.16268,-0.10056 -0.49374,0.0151 -0.73567,0.25708 -0.56275,0.56273 -1.48573,0.56256 -2.10778,-2.8e-4 -0.32262,-0.29196 -0.5489,-0.33934 -0.6717,-0.14066 -0.10218,0.16533 0.0211,0.29963 0.27497,0.29963 0.32833,0 0.22556,0.19739 -0.35882,0.6891 -0.53217,0.4478 -1.02574,0.63502 -1.40952,0.53466 -0.32481,-0.0849 -1.04872,-0.004 -1.60866,0.18156 -1.05791,0.34914 -2.53444,0.17353 -2.261,-0.26891 0.0863,-0.13949 0.0377,-0.32721 -0.10786,-0.41715 -0.14553,-0.0899 -0.31803,-0.004 -0.38332,0.19154 -0.0704,0.21053 -0.10636,0.1833 -0.0885,-0.0669 0.0185,-0.25866 0.4101,-0.47639 1.01165,-0.56261 0.74068,-0.10616 0.9846,-0.27865 0.99452,-0.70326 0.007,-0.30944 0.16546,-0.53097 0.35164,-0.49229 0.59906,0.12447 0.36033,-0.69457 -0.33532,-1.15038 -0.63554,-0.41642 -0.6855,-0.40627 -0.87963,0.17863 l -0.20582,0.62012 -0.1245,-0.63294 c -0.13187,-0.6703 -1.73967,-0.9131 -2.5682,-0.38782 -0.21341,0.13531 -0.80066,0.0895 -1.37256,-0.10713 -0.65644,-0.22568 -1.34917,-0.26173 -2.01806,-0.10504 -1.0064,0.23574 -2.69454,-0.15952 -2.44004,-0.5713 0.20003,-0.32367 -0.23637,-0.80663 -0.82262,-0.91037 -0.30596,-0.0542 -0.55914,0.0493 -0.56261,0.22974 -0.013,0.67788 -0.45743,0.74628 -0.62734,0.0965 -0.16462,-0.62952 -0.1917,-0.63833 -0.39441,-0.12836 -0.21001,0.52834 -0.224,0.52649 -0.39895,-0.0527 -0.12893,-0.42682 -0.35718,-0.56816 -0.78999,-0.48917 -0.33476,0.0611 -0.45755,0.0383 -0.27285,-0.0508 0.18471,-0.0891 0.25819,-0.3753 0.16329,-0.63606 -0.1574,-0.43247 -0.12318,-0.43087 0.38959,0.0182 0.99308,0.86969 1.3497,0.38136 0.4475,-0.61276 -1.17543,-1.29521 -1.19188,-1.34282 -0.63703,-1.84494 0.3238,-0.293047 0.74301,-0.407638 1.08925,-0.297738 0.46018,0.146058 0.57959,0.03527 0.65454,-0.607573 0.11595,-0.994446 -0.34711,-2.333519 -0.80691,-2.333519 -0.56725,0 -0.94189,-1.004934 -0.88963,-2.386404 l 0.0487,-1.287799 0.81192,0.777864 c 0.59216,0.567334 0.76862,0.950344 0.65196,1.415144 -0.11361,0.452685 -0.0362,0.637286 0.26737,0.637286 0.23503,0 0.42732,-0.146209 0.42732,-0.324908 0,-0.186061 0.23647,-0.110902 0.55336,0.17588 0.32273,0.29207 0.7917,0.438455 1.12522,0.351241 0.31452,-0.08228 0.57186,-0.03481 0.57186,0.105429 0,0.14023 0.16781,0.254967 0.37292,0.254967 0.59692,0 1.59583,1.240273 1.60052,1.987264 0.003,0.3876 0.0941,0.550055 0.21098,0.374082 0.11366,-0.171082 0.69956,-0.401755 1.30198,-0.512618 1.14095,-0.209955 2.24846,-0.967528 1.52686,-1.044428 -0.74743,-0.07964 2.75975,-0.535764 3.96306,-0.515409 0.68225,0.01155 1.33177,-0.126764 1.44337,-0.307337 0.14863,-0.240512 0.34351,-0.246622 0.72868,-0.02282 0.30356,0.176364 0.37015,0.309091 0.15754,0.314028 -0.20251,0.0045 -0.30048,0.118163 -0.21768,0.252136 0.34086,0.551509 1.59358,-0.0073 1.41185,-0.629542 -0.16956,-0.580807 -0.16096,-0.579786 0.2892,0.03428 0.46823,0.638782 1.14988,0.839136 1.32284,0.388818 0.19032,-0.495461 1.35965,-0.664709 1.35965,-0.196791 0,0.920182 1.46828,-0.112027 1.84422,-1.296504 0.0895,-0.28216 0.29565,-0.513018 0.45799,-0.513018 0.16233,0 0.2301,-0.248772 0.15058,-0.552824 -0.17937,-0.685954 0.75502,-1.061892 1.37025,-0.551298 0.54612,0.453243 0.84539,0.105843 1.04486,-1.212903 0.12167,-0.804315 0.0477,-1.116081 -0.31499,-1.327644 -0.38278,-0.223291 -0.30258,-0.278137 0.41681,-0.285046 0.48995,-0.0046 0.94405,-0.166788 1.00915,-0.360186 0.0937,-0.278301 0.21066,-0.275451 0.561,0.01367 0.29747,0.245469 0.50246,0.268539 0.62497,0.07033 0.10025,-0.162237 0.42799,-0.294971 0.72831,-0.294971 0.3003,0 0.546,-0.189881 0.546,-0.421957 0,-0.262393 0.29253,-0.438161 0.77359,-0.464803 1.29068,-0.07149 1.42955,-0.0974 1.63773,-0.305576 0.11033,-0.110326 0.0268,-0.409996 -0.1856,-0.665933 -0.35056,-0.422399 -0.29845,-0.446066 0.56475,-0.256478 0.85442,0.187665 0.92916,0.155683 0.73616,-0.315043 -0.50246,-1.225512 -0.48211,-1.559826 0.13488,-2.216583 0.35191,-0.374594 0.74164,-0.618167 0.86605,-0.541275 0.12441,0.07689 0.50737,-0.240471 0.85099,-0.705254 0.48312,-0.653455 0.77336,-0.807767 1.28008,-0.68059 0.71381,0.179155 0.7922,0.04098 0.39635,-0.698651 -0.19852,-0.370949 -0.14534,-0.483836 0.22791,-0.483836 0.61136,0 0.66558,2.019238 0.0642,2.39078 -0.3039,0.187753 -0.25782,0.281771 0.21098,0.430564 0.32988,0.104702 0.59979,0.315892 0.59979,0.469313 0,0.153424 -0.11341,0.208867 -0.25201,0.123207 -0.13861,-0.08565 -0.55001,0.100248 -0.91425,0.413129 l -0.66223,0.56888 0.89822,-0.121364 c 0.7515,-0.101539 0.91233,-0.02239 0.98458,0.484506 0.0605,0.424622 0.31776,0.6325 0.85992,0.694882 0.42548,0.04895 0.77359,0.22269 0.77359,0.386077 0,0.184936 0.15928,0.164882 0.42196,-0.05314 0.56468,-0.468642 0.54172,-1.406524 -0.0345,-1.406524 -0.36769,0 -0.39032,-0.07962 -0.11642,-0.409637 0.18697,-0.225297 0.2583,-0.541765 0.15848,-0.703262 -0.0998,-0.161494 0.0159,-0.293626 0.25709,-0.293626 0.24121,0 0.43856,0.126587 0.43856,0.281304 0,0.693246 0.42501,0.192779 0.45024,-0.530183 0.0159,-0.456006 0.35411,-1.161598 0.77359,-1.613987 0.42388,-0.457143 0.74531,-1.131479 0.74531,-1.563642 0,-0.417927 0.12865,-0.839374 0.28589,-0.936554 0.15724,-0.09718 0.21712,-0.287972 0.13306,-0.423983 -0.084,-0.136011 0.11751,-0.981726 0.44793,-1.87937 1.18771,-3.226629 1.69564,-7.837031 1.14687,-10.410051 -0.19482,-0.913415 -0.18268,-1.516186 0.0408,-2.027672 0.28975,-0.663199 0.33326,-0.56542 0.4897,1.100622 0.0944,1.005666 0.21263,1.512014 0.26266,1.125221 0.22201,-1.716197 -0.23216,-5.576303 -0.59278,-5.038228 -0.25729,0.383899 -0.11115,-1.141376 0.22664,-2.365443 0.13599,-0.492804 0.15491,-0.492955 0.51237,-0.0041 0.41791,0.571535 0.76801,-3.301338 0.3565,-3.943744 -0.11649,-0.18183 -0.20856,0.01496 -0.21099,0.450955 -0.003,0.425474 -0.13089,0.773588 -0.2856,0.773588 -0.15472,0 -0.28131,-0.126587 -0.28131,-0.281305 0,-0.154717 -0.17634,-0.281305 -0.39186,-0.281305 -0.44126,0 -0.73194,-0.592155 -0.73627,-1.499858 -0.005,-1.015219 -1.20868,-3.127299 -1.82745,-3.20612 -0.54677,-0.06965 -0.5471,-0.06565 -0.0132,0.160226 0.52879,0.223722 0.52701,0.23703 -0.0521,0.388474 -0.46169,0.120735 -0.5613,0.303539 -0.43291,0.794512 0.10691,0.408812 0.0606,0.572055 -0.12914,0.454816 -0.16274,-0.100583 -0.36007,-0.658372 -0.4385,-1.239534 -0.0785,-0.581162 -0.19063,-1.246537 -0.24934,-1.478614 -0.18105,-0.715615 -1.13634,-1.646259 -1.53343,-1.493879 -0.2264,0.08688 -0.49203,-0.158844 -0.66581,-0.615908 -0.17697,-0.465486 -0.43798,-0.703333 -0.67289,-0.613188 -0.21107,0.081 -0.52578,0.0053 -0.69935,-0.168317 -0.38815,-0.38815 -0.41407,-1.247711 -0.0415,-1.375166 0.15076,-0.05157 0.19853,-0.381538 0.10613,-0.733259 -0.15851,-0.603362 -0.19106,-0.611306 -0.57631,-0.140653 -0.38282,0.467687 -0.40031,0.461011 -0.28023,-0.106904 0.10817,-0.511578 -0.0525,-0.651231 -1.03402,-0.898367 -2.05483,-0.517424 -2.52551,-0.576349 -5.03004,-0.629717 -1.35378,-0.02886 -2.46141,-0.152719 -2.46141,-0.275269 0,-0.223623 2.46296,-0.564028 3.51631,-0.485985 2.10551,0.155992 3.00786,-1.097039 1.23507,-1.715038 -0.44664,-0.155845 -0.81254,-0.416568 -0.81254,-0.579335 0,-0.162766 -0.22153,-0.299963 -0.49228,-0.304883 -0.27075,-0.0049 -0.738,-0.194804 -1.03833,-0.421958 -0.69424,-0.5251 -1.51261,-0.523208 -2.78021,0.0065 -0.63449,0.265107 -1.06727,0.316862 -1.17618,0.140652 -0.0948,-0.15332 -0.6637,-0.278777 -1.26431,-0.278777 -0.60062,0 -1.17025,-0.126587 -1.26587,-0.281305 -0.0956,-0.154717 -0.48286,-0.281304 -0.86053,-0.281304 -0.70892,0 -0.8016,-0.245549 -0.50728,-1.344087 0.1212,-0.452416 0.31704,-0.594687 0.6661,-0.483901 0.30728,0.09753 0.56236,-0.02011 0.67392,-0.310818 0.1536,-0.400292 0.47279,-0.442148 2.21342,-0.290237 1.11867,0.09763 3.01499,0.259138 4.21405,0.358906 1.19907,0.09977 2.18011,0.285921 2.18011,0.413675 0,0.127755 0.17707,0.16433 0.39351,0.08128 0.21643,-0.08305 0.47707,-0.01578 0.57921,0.149483 0.10215,0.165263 0.0442,0.300481 -0.1288,0.300481 -0.59043,0 -0.0136,0.489536 0.76774,0.651632 0.52999,0.109943 1.08612,0.616725 1.73771,1.58351 0.52704,0.782002 1.0796,1.421821 1.2279,1.421821 0.14829,0 0.0666,0.309866 -0.18156,0.688592 -0.56516,0.862542 -0.34488,0.986111 2.48101,1.391775 0.30106,0.04322 0.59642,0.225751 0.65638,0.405628 0.16995,0.509829 0.54395,0.385084 0.70626,-0.235556 0.17098,-0.65382 0.7624,-0.762929 0.7624,-0.140653 0,0.234421 0.25004,0.421957 0.56262,0.421957 0.66339,0 0.73884,-0.510725 0.14087,-0.953555 -0.36205,-0.268118 -0.30865,-0.432785 0.37735,-1.163579 0.80131,-0.853623 1.12509,-2.444481 0.6266,-3.078727 -0.12519,-0.159272 -0.31711,-1.11115 -0.42652,-2.115282 -0.1094,-1.004134 -0.32348,-1.975792 -0.47573,-2.159242 -0.15225,-0.183451 -0.25412,-0.501172 -0.22636,-0.706049 0.0922,-0.680698 -0.0122,-1.031545 -0.43168,-1.451039 -0.22851,-0.228505 -0.44506,-0.803881 -0.48123,-1.278615 -0.0361,-0.474734 -0.22826,-0.925502 -0.42685,-1.001709 -0.19858,-0.07621 -0.59897,-0.529759 -0.88974,-1.007896 -0.53586,-0.881133 -3.28626,-3.980851 -5.74396,-6.473455 -1.26845,-1.286449 -2.71541,-2.238303 -3.40849,-2.242199 -0.16963,-10e-4 -0.66468,-0.187554 -1.10012,-0.41467 -0.43543,-0.227115 -1.41648,-0.495818 -2.18011,-0.597117 -0.76363,-0.1013 -1.38842,-0.294459 -1.38842,-0.429244 0,-0.134786 -0.32479,-0.245065 -0.72175,-0.245065 -0.39697,0 -0.9747,-0.135372 -1.28386,-0.300825 -0.40922,-0.21901 -0.67196,-0.209641 -0.96606,0.03444 -0.27029,0.224308 -0.52036,0.243607 -0.75562,0.05831 -0.49388,-0.389003 -1.77685,-0.664032 -2.01,-0.430881 -0.37648,0.376479 -5.55854,0.27383 -5.95023,-0.117866 -0.47707,-0.47706 -0.68989,-0.466387 -0.68989,0.0346 0,0.524162 -0.77418,0.755825 -2.44751,0.732398 -3.12911,-0.04381 -5.84699,0.292586 -6.27295,0.776415 -0.24355,0.276642 -0.92088,0.510433 -1.60203,0.552967 -1.35733,0.08476 -4.86798,1.601241 -4.86798,2.102803 0,0.11803 -0.17438,0.2146 -0.38752,0.2146 -0.21313,0 -0.54394,0.188486 -0.73514,0.41886 -0.19119,0.230373 -0.43929,0.362203 -0.55133,0.292956 -0.2724,-0.168356 -1.85044,1.516713 -3.6801,3.929714 -0.8212,1.083024 -1.76761,2.302733 -2.10313,2.710464 -3.16591,3.847348 -6.428208,16.596369 -3.66376,14.317988 0.29635,-0.244252 1.86518,-0.382677 3.38509,-0.298685 0.6553,0.03621 0.35667,0.207083 -1.3362,0.764526 -1.91779,0.631509 -2.18011,0.799482 -2.18011,1.395975 0,0.372946 -0.18988,0.750947 -0.42196,0.840001 -0.24052,0.0923 -0.42195,0.511846 -0.42195,0.975741 0,0.929546 -0.98545,1.190842 -1.21262,0.321534 -0.0707,-0.270756 -0.14334,0.109006 -0.16129,0.843915 -0.0179,0.734909 0.0718,1.336199 0.19946,1.336199 0.21471,0 0.28267,0.600661 0.34432,3.04303 0.0298,1.181367 -0.54626,2.004387 -0.926898,1.324226 -0.13865,-0.247762 -0.16975,-0.825403 -0.0691,-1.283648 0.15645,-0.712305 0.0992,-0.833168 -0.39474,-0.833168 -0.64152,0 -1.62414,1.538415 -1.16418,1.822683 0.24374,0.150641 0.92589,2.152879 0.77535,2.275801 -0.61591,0.502906 -1.32858,0.360589 -1.32858,-0.26531 0,-0.388088 -0.12865,-0.785127 -0.28589,-0.882307 -0.15724,-0.09718 -0.2027,-0.326179 -0.10103,-0.508887 0.10168,-0.182704 -0.0369,-0.123713 -0.308,0.131098 -0.733278,0.68927 -0.84072,2.707421 -0.291489,5.475262 0.268786,1.354556 0.481649,2.973804 0.473029,3.598329 -0.009,0.624522 0.10823,1.284784 0.25966,1.467247 0.65583,0.790222 -0.10963,3.096919 -1.191186,3.589639 -0.298591,0.136025 -0.305277,0.211226 -0.03019,0.33942 0.194361,0.09057 0.278031,0.286602 0.185934,0.435617 -0.10713,0.17334 -0.285091,0.17356 -0.494036,5.63e-4 -0.24349,-0.201547 -0.35076,0.492855 -0.421589,2.729063 -0.219339,6.925002 0.06919,15.090938 0.5233,14.810282 0.122373,-0.07563 0.15963,0.102899 0.08279,0.39673 -0.176305,0.674198 0.36577,1.716976 0.89255,1.716976 0.553567,0 1.979117,-1.463383 1.877227,-1.927037 -0.0463,-0.210692 0.051,-0.296709 0.21862,-0.193151 0.16616,0.102691 0.38406,-0.02686 0.48423,-0.287897 0.11081,-0.288771 0.0109,-0.57043 -0.25516,-0.719328 -0.26805,-0.150007 -0.43729,-0.633063 -0.43729,-1.248142 0,-0.551883 -0.20254,-1.227225 -0.45008,-1.500764 -0.24755,-0.273538 -0.45203,-0.803843 -0.4544,-1.178454 -0.003,-0.517902 -0.0656,-0.584335 -0.25986,-0.277243 -0.20419,0.322682 -0.33919,0.334461 -0.6716,0.05858 -0.330244,-0.274075 -0.441875,-0.270345 -0.541298,0.01809 -0.06889,0.199856 -0.181892,-0.107242 -0.251113,-0.682436 -0.119251,-0.990875 -0.08974,-1.036744 0.56181,-0.873217 0.477421,0.119826 0.626761,0.07404 0.488461,-0.149735 -0.10957,-0.177237 -0.381626,-0.322287 -0.604571,-0.322287 -0.222946,0 -0.405355,-0.134058 -0.405355,-0.297906 0,-0.16385 -0.126587,-0.219672 -0.281305,-0.124051 -0.370805,0.229171 -0.376841,-4.634926 -0.0069,-5.607786 0.184884,-0.486286 0.179472,-0.721574 -0.0166,-0.721574 -0.160018,0 -0.206208,-0.137106 -0.102643,-0.304677 0.111744,-0.180803 0.402742,0.04795 0.71573,0.56261 0.290085,0.477006 0.708614,0.867286 0.930054,0.867286 0.22145,0 0.64729,0.335855 0.94631,0.746347 l 0.54367,0.746346 -0.12352,-0.841636 c -0.0755,-0.514432 0.0391,-1.004297 0.29487,-1.260037 0.32532,-0.325319 0.36496,-0.695253 0.17818,-1.662867 -0.32781,-1.69817 -0.32165,-2.578719 0.0166,-2.369684 0.15472,0.09562 0.2813,0.870084 0.2813,1.721032 0,0.95982 0.1068,1.481177 0.28131,1.373322 0.154718,-0.09562 0.281298,0.03097 0.281298,0.281305 0,0.250338 0.1122,0.385821 0.24933,0.301069 0.37471,-0.231582 0.56517,0.829329 0.33612,1.872292 -0.25485,1.160479 -0.0532,3.312085 0.31037,3.312085 0.15822,0 0.19574,0.356796 0.0887,0.843915 -0.1449,0.659714 -0.0884,0.843915 0.25896,0.843915 0.28353,0 0.44431,0.248479 0.44431,0.68666 0,0.377662 0.11023,0.754791 0.24495,0.838059 0.13474,0.08327 0.32314,0.542188 0.41866,1.019815 0.1128,0.563969 0.2887,0.797328 0.50176,0.665652 0.21478,-0.132742 0.25205,-0.07976 0.10791,0.153458 -0.12128,0.196255 -0.0799,0.44288 0.0921,0.549197 0.17174,0.106136 0.46589,1.181281 0.65368,2.389213 0.27444,1.765264 0.46865,2.279588 0.98967,2.620977 0.77,0.504526 0.84177,1.1502 0.15595,1.403234 -0.27075,0.0999 -0.58951,0.317452 -0.70833,0.483455 -0.13952,0.194914 -0.45297,0.03431 -0.88495,-0.453407 l -0.66892,-0.75523 -0.14499,0.75523 c -0.0797,0.415378 -0.0337,0.889821 0.10221,1.054323 0.13595,0.164498 0.18571,0.797435 0.11056,1.406525 -0.0947,0.767258 -0.0623,0.936542 0.10563,0.551093 0.44303,-1.017306 1.51526,2.37925 1.09913,3.481723 -0.26959,0.714238 -0.24768,1.008908 0.12231,1.644768 0.24791,0.42605 0.53753,1.18062 0.64359,1.67683 0.10606,0.4962 0.461,1.4456 0.78875,2.10978 0.32776,0.66419 0.69297,1.84055 0.81157,2.61413 0.42137,2.74851 0.49689,3.36861 0.34259,2.81305 -0.23177,-0.83448 -0.65689,-1.17688 -0.48689,-0.39216 0.13936,0.64332 0.12315,0.63884 -0.3622,-0.10012 -0.27945,-0.42548 -0.58343,-0.77359 -0.67551,-0.77359 -0.25162,0 0.046,1.77691 0.36455,2.17654 0.15258,0.19142 0.20514,0.53643 0.11678,0.76668 -0.0884,0.23026 0.0229,0.85804 0.24732,1.39506 0.42707,1.02214 0.11184,1.66179 -0.51169,1.03827 -0.17219,-0.17219 -0.20509,-0.31307 -0.0731,-0.31307 0.13197,0 -0.009,-0.22152 -0.31209,-0.49228 -0.30364,-0.27075 -0.56253,-0.74545 -0.57532,-1.05489 -0.0128,-0.30943 -0.28074,-1.82848 -0.59544,-3.37565 -0.74005,-3.63842 -1.14198,-6.06071 -1.35362,-8.15786 -0.22612,-2.24067 -0.24257,-2.336925 -0.6427,-3.761635 -0.18997,-0.676445 -0.34542,-1.90879 -0.34542,-2.738541 0,-0.829751 -0.1311,-1.589668 -0.29135,-1.688704 -0.19022,-0.117567 -0.21799,0.05108 -0.08,0.485895 0.19621,0.618181 0.17431,0.635844 -0.30516,0.246206 -0.2841,-0.230864 -0.42309,-0.264134 -0.30887,-0.07394 0.29688,0.49441 -0.19717,1.275695 -1.374598,2.173764 l -1.02056,0.778417 0.0675,-1.508345 c 0.0371,-0.82959 0.20452,-1.684841 0.37195,-1.900557 0.25063,-0.322904 0.18055,-0.350053 -0.39664,-0.153637 -2.806045,0.954895 -3.53755,-0.09734 -4.104804,-5.90456 -0.210529,-2.155263 -0.51186,-4.047741 -0.669628,-4.205509 -0.194894,-0.194921 -0.286816,-0.142035 -0.286816,0.165041 0,0.320721 -0.171657,0.406992 -0.591404,0.297227 -0.325271,-0.08505 -0.673385,-0.03273 -0.773589,0.116296 -0.1002,0.149025 -0.498652,0.190348 -0.885447,0.09183 -0.678322,-0.172773 -0.66744,-0.191178 0.306839,-0.518952 0.812403,-0.273315 1.142751,-0.623149 1.68783,-1.787386 l 0.677655,-1.447515 -0.09309,-8.059338 c -0.132174,-11.442809 0.469073,-15.493006 2.5268,-17.02132 1.940984,-1.441608 3.034424,-5.035946 3.045654,-10.011654 0.004,-1.758676 0.20192,-3.463442 0.56869,-4.897506 0.32215,-1.259584 0.562608,-3.120581 0.562608,-4.354168 0,-2.680446 0.57939,-4.718588 1.96093,-6.89803 0.58845,-0.928306 1.92163,-3.61585 2.96263,-5.972319 2.4354,-5.51293 4.03331,-7.137793 8.8604,-9.009858 1.62453,-0.630036 3.64993,-1.53364 4.50087,-2.008008 0.96191,-0.536225 1.95408,-0.864414 2.62284,-0.867582 0.59161,-0.0028 2.6803,-0.458413 4.64153,-1.0124671 3.07289,-0.8681014 3.81866,-0.9828202 5.39436,-0.8297913 2.82609,0.2744658 11.48272,2.3658224 13.06805,3.1571174 1.66297,0.830042 8.53775,7.620566 9.40802,9.292704 0.30384,0.583822 1.33029,1.915496 2.28098,2.959275 1.44047,1.581515 1.83576,2.245334 2.37199,3.983338 0.35391,1.147059 1.10498,2.910817 1.66905,3.919462 0.95065,1.699919 1.0494,2.10172 1.35161,5.499709 l 0.32602,3.665802 0.7419,0.258629 c 1.1827,0.412292 1.45839,1.916415 1.57885,8.61437 0.0585,3.254627 0.18198,7.626429 0.27432,9.715118 0.0979,2.2153 0.0375,4.828434 -0.14524,6.271612 l -0.31314,2.473993 1.03088,1.670152 1.03088,1.670155 -0.63207,1.481951 c -0.34765,0.815073 -0.6591,1.513115 -0.69214,1.551203 -0.0331,0.03808 -0.0748,-0.579246 -0.0929,-1.371851 -0.0322,-1.413423 -0.59908,-3.042797 -1.36528,-3.924154 -0.28936,-0.332848 -0.3265,-0.765588 -0.14783,-1.721999 0.13126,-0.702584 0.21509,-1.67346 0.1863,-2.157502 -0.0288,-0.484038 0.0507,-0.880071 0.17675,-0.880071 0.12602,0 0.10155,-0.33556 -0.0544,-0.745688 -0.16075,-0.422808 -0.20249,-1.488604 -0.0964,-2.461418 0.10291,-0.943652 0.0867,-1.621583 -0.0359,-1.506518 -0.31942,0.29961 -0.46341,1.593392 -0.58719,5.276234 -0.0598,1.779253 -0.20356,4.847309 -0.31945,6.8179 -0.15908,2.704708 -0.12907,3.566575 0.12245,3.516312 0.18326,-0.03662 0.35226,0.06001 0.37556,0.214723 0.0233,0.154718 0.15428,0.416153 0.29106,0.58097 0.15832,0.190761 -0.55527,1.254922 -1.96354,2.92818 -2.44817,2.908839 -3.99556,6.007564 -3.32532,6.659123 0.19293,0.187557 3.32559,1.093783 6.96145,2.013839 6.48863,1.641946 17.15961,6.024058 17.15961,7.046714 0,0.146188 0.56975,0.246767 1.26613,0.223506 1.5772,-0.05268 1.65176,0.264972 0.12282,0.523283 -0.83054,0.140318 -1.27251,0.07876 -1.61751,-0.225267 -0.26109,-0.23009 -0.88536,-0.50562 -1.38727,-0.612288 -0.50192,-0.10667 -1.00827,-0.359822 -1.12522,-0.562562 -0.11696,-0.202739 -0.46583,-0.421892 -0.77526,-0.487006 -0.30944,-0.06511 -0.53097,-0.269105 -0.49229,-0.453314 0.0837,-0.399178 -0.40409,-0.455202 -0.53917,-0.06192 -0.0566,0.164721 -0.33899,0.136827 -0.71199,-0.07033 -2.63454,-1.46314 -3.4406,-1.844562 -4.28867,-2.029357 -0.53275,-0.116083 -1.14309,-0.385508 -1.3563,-0.59872 -0.21319,-0.213211 -0.75835,-0.387657 -1.21146,-0.387657 -0.45309,0 -1.07699,-0.253174 -1.38643,-0.56261 -0.59408,-0.594085 -1.12522,-0.737385 -1.12522,-0.303586 0,0.533837 2.32635,2.583272 3.11029,2.740058 1.1456,0.22912 1.60199,0.834182 0.81712,1.083288 -0.57724,0.18321 -1.46312,1.730254 -1.55441,2.714523 -0.11851,1.277734 -0.93976,1.834925 -1.44478,0.980234 -0.12372,-0.209382 -0.40377,-0.437773 -0.62233,-0.507527 -0.62248,-0.198664 -0.59185,-0.960813 0.0405,-1.00845 0.70047,-0.05276 0.88806,-0.230708 0.64973,-0.616335 -0.29608,-0.479072 -1.11126,-0.348079 -1.63413,0.262589 -0.55523,0.648454 -1.10252,0.709032 -1.90615,0.210979 -0.46772,-0.289868 -0.6138,-0.277513 -0.83167,0.07033 -0.19899,0.317718 -0.11002,0.467153 0.36022,0.604896 0.34348,0.100619 0.43387,0.195557 0.20089,0.210975 -0.23299,0.01536 -0.59494,0.415073 -0.80432,0.888119 -0.39785,0.898809 -0.19964,1.537482 0.25435,0.8196 0.14393,-0.227591 0.26171,-0.287218 0.26171,-0.1325 0,0.584418 -0.44866,0.909909 -1.52808,1.108609 l -1.11475,0.2052 0.68858,0.519402 c 0.37873,0.28567 0.62718,0.5639 0.55213,0.61827 -0.22168,0.16066 -1.50092,0.7189 -2.06694,0.90199 -0.39337,0.12725 -0.44825,0.26072 -0.22019,0.53552 0.34806,0.41938 -1.09113,2.2183 -1.71346,2.14174 -1.09681,-0.13491 -2.20509,0.90106 -1.29019,1.20602 0.18211,0.0607 0.23733,0.26211 0.12271,0.44756 -0.40166,0.6499 -1.09897,-0.44021 -0.91975,-1.43783 0.13854,-0.77125 0.0619,-0.70081 -0.52997,0.48695 -0.38057,0.76375 -0.69193,1.68151 -0.69193,2.03946 0,0.35795 -0.10627,0.65082 -0.23615,0.65082 -0.31541,0 -0.81014,1.12168 -1.04359,2.36604 -0.10937,0.58301 -0.35447,1.00962 -0.58005,1.00962 -0.21487,0 -0.39065,0.18988 -0.39065,0.42195 0,0.23208 -0.12659,0.42196 -0.28131,0.42196 -0.15472,0 -0.28131,0.28601 -0.28131,0.6356 0,0.34958 -0.25317,0.7937 -0.56261,0.98695 -0.30942,0.19324 -0.56261,0.57528 -0.56261,0.84899 0,0.2737 -0.1854,0.76234 -0.41201,1.08587 -0.22662,0.32354 -0.33291,0.66738 -0.23621,0.76409 0.0967,0.0967 -0.0974,0.41279 -0.43137,0.70242 -0.33395,0.28963 -0.68852,0.95502 -0.78794,1.47865 -0.0994,0.5236 -0.29398,1.09693 -0.43236,1.27404 -0.13838,0.17711 -0.22152,0.43028 -0.18476,0.56261 0.20024,0.72089 -0.42506,2.40075 -1.04479,2.80682 -0.37957,0.24869 -0.69013,0.61043 -0.69013,0.80385 0,0.63792 -1.18106,1.91755 -1.4172,1.53547 -0.27631,-0.44707 -1.07561,-0.13924 -1.30661,0.50318 -0.26942,0.74926 -1.15073,1.53376 -1.28169,1.14088 -0.0686,-0.20566 -0.32246,-0.11187 -0.68877,0.25444 -0.3191,0.31911 -0.75425,0.64198 -0.96699,0.71749 -0.22498,0.0798 -0.28242,0.24169 -0.1373,0.3868 0.14511,0.14512 0.30202,0.10239 0.37508,-0.10214 0.0691,-0.19339 0.25712,-0.35163 0.41788,-0.35163 0.49003,0 -0.36597,0.84311 -0.86592,0.85287 -0.5863,0.0115 -1.28483,0.5563 -1.52134,1.18661 -0.1016,0.27075 -0.39211,0.49227 -0.64559,0.49227 -0.30096,0 -0.40276,0.1515 -0.29336,0.43657 0.0967,0.25197 0.0492,0.36339 -0.11247,0.26352 -0.3631,-0.2244 -1.964,0.91356 -1.964,1.39605 0,0.20349 -0.25318,0.4362 -0.5626,0.51711 -0.30944,0.081 -0.56261,0.34005 -0.56261,0.57587 0,0.23579 -0.28483,0.46917 -0.63294,0.51861 -0.34812,0.0494 -0.63294,0.24402 -0.63294,0.43241 0,0.18838 -0.22152,0.60122 -0.49229,0.91745 -0.27075,0.31622 -0.49228,0.68893 -0.49228,0.82824 0,0.13932 -1.74057,0.26607 -3.86794,0.28169 l -3.86794,0.0284 z m -11.23564,-2.83573 c -0.69579,-0.52626 -1.00113,-0.52352 -1.00113,0.009 0,0.27496 0.26952,0.41884 0.77359,0.41301 0.74097,-0.009 0.75056,-0.0264 0.22754,-0.42195 z m 33.87072,-17.41789 c 0.018,-0.48303 -0.48144,0.23675 -0.67341,0.97051 l -0.18401,0.70325 0.42372,-0.70325 c 0.23305,-0.3868 0.42821,-0.82353 0.4337,-0.97051 z m 0.7886,-0.99863 c 0.2897,-0.4639 0.28093,-0.56261 -0.05,-0.56261 -0.88177,0 -1.32072,0.32881 -0.9827,0.73611 0.43353,0.52237 0.61739,0.49148 1.03268,-0.1735 z m -1.51865,-0.21098 c 0.0932,-0.27076 0.42189,-0.90369 0.73035,-1.40652 0.30846,-0.50284 0.45233,-0.91425 0.3197,-0.91425 -0.40206,0 -0.93334,0.79944 -0.73961,1.1129 0.0998,0.16149 0.0297,0.29363 -0.15576,0.29363 -0.34035,0 -1.07701,0.80534 -1.09355,1.19555 -0.0183,0.43092 0.77551,0.1931 0.93887,-0.28131 z m 2.33105,-1.6197 c 0.4155,-0.89583 0.10624,-0.88962 -0.54928,0.011 -0.36085,0.4958 -0.40109,0.69379 -0.14065,0.69222 0.20062,-8.7e-4 0.51108,-0.31768 0.68993,-0.70326 z m -46.42253,-8.64793 c -0.0933,-0.34811 -0.17937,-0.9494 -0.19129,-1.33619 -0.0202,-0.65547 -0.0376,-0.66387 -0.25634,-0.1237 -0.28219,0.69693 -0.0581,2.09282 0.33593,2.09282 0.15473,0 0.20499,-0.28481 0.1117,-0.63293 z m 39.92654,-7.48407 c 0.72285,0.199591 1.12559,0.194082 1.33797,-0.01827 0.16712,-0.167114 0.21836,-0.303846 0.11389,-0.303846 -0.10447,0 -0.0669,-0.323699 0.0835,-0.719336 0.16095,-0.423326 0.16609,-0.652955 0.0125,-0.558022 -0.14357,0.08873 -0.34433,0.02653 -0.44615,-0.138235 -0.12894,-0.20863 -0.30452,-0.200472 -0.57847,0.02689 -0.21634,0.17954 -0.58483,0.252952 -0.81887,0.16314 -0.2866,-0.109982 -0.42554,0.0089 -0.42554,0.364152 0,0.388949 -0.14773,0.488812 -0.56261,0.380319 -0.30943,-0.08092 -0.56261,-0.25895 -0.56261,-0.395622 2e-5,-0.136695 -0.21518,-0.248518 -0.4782,-0.248518 -0.37194,0 -0.4032,0.07501 -0.14064,0.337565 0.18565,0.185662 0.33756,0.540109 0.33756,0.787657 0,0.790937 0.65484,1.222547 0.89007,0.586646 0.17987,-0.486229 0.32344,-0.516918 1.2376,-0.264509 z m 3.92322,0.517182 c 0.0972,-0.157236 0.29453,-0.213054 0.43856,-0.124045 0.14402,0.089 0.26187,-0.08691 0.26187,-0.391037 0,-0.431725 -0.1387,-0.51892 -0.63294,-0.397933 -0.83071,0.203366 -1.36856,0.63767 -1.17584,0.949479 0.20898,0.338145 0.89069,0.315718 1.10835,-0.03646 z m -0.7061,-1.448819 c 0,-0.335221 -0.0359,-0.556748 -0.0795,-0.492283 -0.0438,0.06446 -0.24917,0.338738 -0.4564,0.609494 -0.32255,0.421389 -0.31109,0.492286 0.0795,0.492286 0.28057,0 0.4564,-0.234819 0.4564,-0.609497 z m 2.38773,-1.429966 c -0.10006,-0.348115 -0.23618,-0.830761 -0.3025,-1.072545 -0.16577,-0.604401 1.10406,-1.679712 1.6072,-1.361005 0.55503,0.351575 0.80845,0.309548 0.80845,-0.134077 0,-0.213131 0.19788,-0.551738 0.43973,-0.752458 0.57152,-0.474314 -0.14417,-0.960884 -1.00941,-0.686268 -0.36872,0.117033 -0.61581,0.02734 -0.72767,-0.264151 -0.0932,-0.242744 -0.35317,-0.441354 -0.57783,-0.441354 -0.22465,0 -0.33563,-0.117841 -0.24662,-0.261867 0.089,-0.144028 0.0148,-0.35279 -0.16508,-0.463913 -0.23273,-0.14384 -0.27261,0.01434 -0.13839,0.549107 0.18997,0.756876 -0.78109,2.145808 -1.50022,2.145808 -0.45011,0 -0.34982,0.747987 0.16997,1.267776 0.35324,0.353244 0.37003,0.450837 0.0704,0.408719 -0.9046,-0.127115 -1.17613,-0.0012 -0.84834,0.39394 0.17465,0.210436 0.61546,0.325655 0.9796,0.256047 0.49474,-0.09458 0.7009,0.02199 0.8158,0.461309 0.0845,0.323326 0.30069,0.587868 0.48032,0.587868 0.20506,0 0.2589,-0.235532 0.14467,-0.632936 z m 18.42883,-0.187538 c 0,-0.336665 -0.6023,-0.540403 -1.07847,-0.364813 -0.31275,0.11533 -0.31275,0.17796 0,0.376212 0.49853,0.316021 1.07847,0.309891 1.07847,-0.01139 z m -4.50087,-38.811365 c 0,-0.137031 -0.17436,-0.585235 -0.38747,-0.996005 -0.47058,-0.90702 -0.73775,-0.447744 -0.73775,1.268162 v 1.102211 l 0.56261,-0.562609 c 0.30944,-0.309435 0.56261,-0.674727 0.56261,-0.811759 z m -5.41784,-6.853801 c 0.82043,-1.711904 0.67258,-2.077821 -0.57818,-1.431028 -0.66546,0.344125 -0.97702,0.373001 -1.37086,0.127048 -0.76385,-0.47704 -0.61749,-0.131619 0.40458,0.954763 1.08471,1.152957 1.15198,1.168169 1.54446,0.349217 z m 0.44684,87.672737 c -0.0941,-0.24532 0.0867,-0.92921 0.40195,-1.51975 0.39331,-0.73686 0.48218,-1.16464 0.28328,-1.36354 -0.42207,-0.42208 -0.0412,-1.17156 0.59554,-1.17156 0.48344,0 0.51216,0.0923 0.24718,0.79431 -0.38394,1.0172 -0.092,2.16627 0.7693,3.02754 l 0.67904,0.67903 h -1.40256 c -1.02088,0 -1.44915,-0.12138 -1.57373,-0.44603 z m 3.44352,0.1966 c -0.0848,-0.13719 0.0343,-0.40586 0.2647,-0.59704 0.52812,-0.4383 0.54722,-2.22389 0.0282,-2.63882 -0.51068,-0.40832 -0.80209,-2.16432 -0.44865,-2.70341 0.24592,-0.37508 0.30744,-0.37508 0.55366,0 0.18523,0.28216 0.27842,0.30546 0.2813,0.0704 0.003,-0.1934 0.18672,-0.35164 0.40966,-0.35164 0.57879,0 0.8363,-0.54121 0.76454,-1.60683 -0.0349,-0.51825 0.0725,-0.92491 0.24443,-0.92491 0.16869,0 0.22848,-0.12658 0.13286,-0.2813 -0.0956,-0.15472 -0.0546,-0.28131 0.0912,-0.28131 0.39408,0 0.60795,1.09846 0.34818,1.78834 -0.12482,0.33151 -0.11492,0.90294 0.022,1.26983 0.16868,0.452 0.12333,0.91891 -0.14064,1.44807 -0.21904,0.43906 -0.29077,0.94087 -0.16385,1.14623 0.12416,0.20089 0.108,0.5853 -0.0359,0.85422 -0.33364,0.6234 -0.34017,1.45157 -0.01,1.24741 0.28792,-0.17794 0.59209,0.47484 0.59209,1.27067 0,0.57904 -2.59675,0.83586 -2.934,0.29017 z m 3.49661,-0.57788 c 0,-0.45503 0.13166,-0.90868 0.29259,-1.00814 0.18971,-0.11725 0.22844,0.0747 0.11014,0.54601 -0.11397,0.45414 -0.0654,0.72683 0.12939,0.72683 0.17149,0 0.3118,-0.20342 0.3118,-0.45206 0,-0.29663 0.15298,-0.39335 0.44496,-0.2813 0.24474,0.0939 0.49898,0.17075 0.56499,0.17075 0.066,0 -0.0381,0.25318 -0.23132,0.56261 -0.5699,0.91255 -1.62255,0.74081 -1.62255,-0.2647 z m 12.21935,0.45914 c 0.51838,-0.31861 1.96944,-1.74823 3.04718,-3.00214 0.40673,-0.47322 0.56866,-0.51392 0.88342,-0.22206 0.47151,0.4372 -0.15016,1.90454 -0.8069,1.90454 -0.21757,0 -0.66599,0.37976 -0.99649,0.84392 -0.48712,0.68409 -0.79709,0.84078 -1.63667,0.82737 -0.92158,-0.0146 -0.97565,-0.0534 -0.49054,-0.35163 z M 38.486728,136.13259 c -0.428943,-0.69405 0.348075,-0.91602 1.260129,-0.35999 l 0.955147,0.5823 -1.038292,8.8e-4 c -0.57106,5.6e-4 -1.100703,-0.0999 -1.176984,-0.22337 z m 2.830226,-0.68386 c -0.24194,-0.49956 -0.342549,-0.97426 -0.223578,-1.0549 0.11897,-0.0806 0.391115,-0.54857 0.604768,-1.03983 l 0.388457,-0.89321 0.959559,0.40093 c 1.330169,0.55578 1.45346,0.5177 1.45346,-0.44902 0,-0.63362 -0.178989,-0.9315 -0.703263,-1.17037 -0.764313,-0.34825 -0.753277,-0.32971 -0.807046,-1.35534 -0.02774,-0.5291 0.119875,-0.72553 0.596068,-0.79317 0.348115,-0.0494 0.632936,-0.2045 0.632936,-0.34459 0,-0.14009 0.379003,-0.1789 0.84223,-0.0863 1.776992,0.35539 3.667983,-2.10166 2.036108,-2.64562 -0.192554,-0.0642 -0.278545,-0.23247 -0.191091,-0.37397 0.08745,-0.14153 -0.10911,-0.2573 -0.436807,-0.2573 -0.327698,0 -0.517579,0.12659 -0.421958,0.28131 0.09562,0.15472 0.0398,0.2813 -0.12405,0.2813 -0.163849,0 -0.297907,-0.24599 -0.297907,-0.54667 0,-0.30066 -0.281342,-0.74371 -0.625203,-0.98456 -0.416778,-0.29192 -0.486587,-0.43791 -0.209401,-0.43791 0.22869,0 0.788433,-0.44691 1.243877,-0.99315 0.455442,-0.54622 0.992728,-0.92996 1.193968,-0.85273 0.201243,0.0772 0.365893,0.0177 0.365893,-0.13207 0,-0.14987 -0.134058,-0.27249 -0.297906,-0.27249 -0.16385,0 -0.214339,-0.13521 -0.112199,-0.30047 0.102141,-0.16527 0.353586,-0.23607 0.558766,-0.15733 0.294729,0.11309 0.313968,-0.0264 0.09163,-0.66415 -0.194899,-0.55908 -0.185568,-0.98642 0.03035,-1.38985 0.193712,-0.36195 0.206327,-0.58255 0.03332,-0.58255 -0.153151,0 -0.361576,-0.44306 -0.463163,-0.98457 -0.101587,-0.54151 -0.298276,-0.98456 -0.437086,-0.98456 -0.14254,0 -0.135187,-0.21426 0.01688,-0.49229 0.148101,-0.27076 0.346371,-1.09062 0.440597,-1.82192 0.09423,-0.73131 0.290592,-1.40336 0.436372,-1.49345 0.145777,-0.0901 0.266442,-0.63104 0.268147,-1.20211 0.0056,-1.88363 0.324407,-3.19054 0.739414,-3.03129 0.463584,0.17789 0.478825,0.0258 0.07334,-0.73183 -0.188734,-0.35266 -0.198104,-0.5093 -0.02403,-0.40171 0.15694,0.097 0.343134,0.0174 0.413765,-0.17704 0.116498,-0.32057 0.108321,0.25438 -0.03899,2.74097 -0.03887,0.65611 -0.11068,0.75001 -0.322685,0.42196 -0.445412,-0.68923 -0.319703,0.0388 0.278402,1.61251 0.307683,0.80952 0.641516,2.17033 0.741852,3.02403 0.100335,0.85369 0.26814,1.55217 0.372901,1.55217 0.335979,0 1.144173,1.97246 1.292765,3.15509 0.195993,1.5599 0.249933,1.60974 1.710747,1.58042 0.938962,-0.0188 1.435519,0.12773 1.855538,0.54776 l 0.573488,0.57348 -0.621308,0.87254 c -0.341717,0.47991 -0.739109,0.79975 -0.883088,0.71077 -0.143981,-0.089 -0.330522,0.0173 -0.41454,0.23629 -0.09282,0.2419 -0.408657,0.34916 -0.804976,0.27341 -0.649176,-0.1241 -1.258682,0.98048 -0.879536,1.59395 0.215221,0.34824 1.469511,0.5317 1.883952,0.27556 0.198207,-0.1225 0.522861,-0.0879 0.721446,0.0769 0.250386,0.20779 0.469098,0.20999 0.713493,0.007 0.878875,-0.72941 1.392921,0.33114 1.386575,2.86068 l -0.006,2.3926 -1.317982,1.26285 -1.317981,1.26283 0.592136,0.63559 c 1.117044,1.19902 0.832471,1.37342 -2.241007,1.37342 -2.81197,0 -3.689464,-0.26418 -3.433012,-1.03354 0.163536,-0.4906 -0.554556,-0.65221 -4.49376,-1.01128 -0.270756,-0.0247 -0.494221,-0.17599 -0.49659,-0.33623 -0.0087,-0.58591 -0.549822,0.57213 -0.553996,1.1855 -0.0025,0.37316 -0.177493,0.63294 -0.426264,0.63294 -0.232077,0 -0.421958,0.12659 -0.421958,0.28131 0,0.6755 -1.084281,0.22073 -1.494837,-0.62697 z m 18.733493,0.63748 c 1.665789,-0.32277 2.40932,-0.81887 2.233718,-1.49037 -0.10235,-0.39138 -0.04611,-0.51245 0.17466,-0.37601 0.179087,0.11069 0.325616,0.0746 0.325616,-0.0801 0,-0.15471 -0.126588,-0.35954 -0.281305,-0.45516 -0.154718,-0.0956 -0.281306,-0.41326 -0.281306,-0.70589 0,-0.29261 -0.221527,-0.66106 -0.492283,-0.81876 -0.300887,-0.17523 -0.355572,-0.30371 -0.140652,-0.33044 0.193397,-0.0241 0.478218,-0.0754 0.632935,-0.11404 0.154719,-0.0387 0.795126,-0.0862 1.423127,-0.10549 0.628003,-0.0194 1.069508,-0.15217 0.981121,-0.29518 -0.08838,-0.143 0.06238,-0.31296 0.335032,-0.37768 0.394305,-0.0936 0.33746,-0.18285 -0.277862,-0.43629 -0.425473,-0.17523 -0.773588,-0.44833 -0.773588,-0.60688 0,-0.15855 -0.185802,-0.28827 -0.412894,-0.28827 -0.633659,0 -0.0819,-1.21228 0.577807,-1.26953 1.554493,-0.13486 2.366831,-0.48223 2.366831,-1.01209 0,-0.302 0.200081,-0.62585 0.444622,-0.7197 0.266785,-0.10238 0.389832,-0.38013 0.307641,-0.69443 -0.07534,-0.2881 -0.0087,-0.52382 0.148085,-0.52382 0.156785,0 0.211466,-0.19179 0.121512,-0.42621 -0.08996,-0.23442 0.07741,-0.85523 0.371922,-1.37958 0.29451,-0.52436 0.460055,-1.02879 0.367876,-1.12097 -0.09218,-0.0922 -0.01991,-0.1676 0.160592,-0.1676 0.180505,0 0.32819,-0.26064 0.32819,-0.57921 0,-0.31856 0.112243,-0.50984 0.24943,-0.42505 0.36076,0.22296 1.050039,-0.6793 0.699766,-0.91598 -0.470146,-0.31769 -0.302628,-1.44414 0.240389,-1.6165 0.278528,-0.0884 0.442676,-0.26386 0.364774,-0.3899 -0.0779,-0.12605 0.0561,-0.3933 0.297781,-0.59387 0.24168,-0.20057 0.681534,-0.83926 0.97745,-1.41931 1.177565,-2.30822 1.265326,-1.72279 0.66508,4.43649 -0.181514,1.86258 -0.151249,2.04104 0.405018,2.38843 0.330654,0.20651 0.601191,0.54844 0.601191,0.75985 0,0.21351 0.174699,0.31734 0.392977,0.23358 0.493589,-0.1894 0.827585,1.26435 0.35726,1.55503 -0.240641,0.14872 -0.234054,0.28951 0.02571,0.54927 0.546646,0.54665 0.433285,1.14524 -0.180019,0.95058 -0.701115,-0.22252 -0.825866,0.22207 -0.589033,2.09922 0.127769,1.01269 0.208883,1.23134 0.234809,0.63294 0.04322,-0.99748 0.945322,-1.32941 1.275383,-0.46928 0.409634,1.06749 0.176052,3.40131 -0.39186,3.91526 -0.64842,0.58681 -0.709109,0.89294 -0.210979,1.06422 0.193397,0.0665 0.130103,0.0876 -0.140652,0.0469 -0.270757,-0.0407 -0.492284,0.0235 -0.492284,0.14277 0,0.11919 -0.481508,0.55039 -1.070014,0.95823 l -1.070024,0.74155 -6.173588,-0.0324 c -3.492716,-0.0183 -5.711714,-0.12184 -5.109966,-0.23844 z m 13.552219,-9.55545 c 0.08902,-0.14403 0.03113,-0.34266 -0.128638,-0.44139 -0.159765,-0.0987 -0.20483,-0.32901 -0.100142,-0.51172 0.104687,-0.18271 0.0824,-0.23399 -0.04955,-0.11396 -0.345609,0.3144 -0.457415,1.32894 -0.146456,1.32894 0.144616,0 0.335765,-0.11784 0.424779,-0.26187 z m 5.66821,9.38128 c -0.375829,-0.97941 -0.1991,-1.47891 0.462186,-1.30632 0.81413,0.21246 1.242432,0.64763 1.242432,1.26234 0,0.63992 -1.461467,0.67762 -1.704618,0.0439 z m 4.048825,-0.0864 c 0,-0.38396 0.271642,-0.58226 0.979574,-0.71506 0.861412,-0.1616 0.941029,-0.24549 0.66002,-0.69547 -0.239309,-0.38319 -0.236128,-0.84301 0.01268,-1.8311 0.182726,-0.72567 0.269801,-1.42042 0.193495,-1.54389 -0.0763,-0.12346 0.173413,-0.39153 0.554927,-0.59572 0.81064,-0.43383 0.852416,-0.63982 0.25161,-1.24063 -0.332893,-0.33289 -0.349852,-0.44206 -0.06868,-0.44206 0.205358,0 0.541795,-0.38048 0.747638,-0.8455 0.391632,-0.88475 0.694931,-0.88534 1.167537,-0.003 0.211654,0.39548 0.164127,0.64553 -0.189991,0.99965 -0.442132,0.44214 -0.430686,0.50361 0.179476,0.96386 0.432259,0.32605 0.544113,0.55811 0.332156,0.6891 -0.175765,0.10861 -0.319571,0.44319 -0.319571,0.7435 0,0.3003 -0.126587,0.546 -0.281305,0.546 -0.154718,0 -0.281305,0.12659 -0.281305,0.2813 0,0.15472 0.332292,0.28131 0.738426,0.28131 0.65854,0 0.721401,0.0851 0.581058,0.78684 -0.187007,0.93503 0.01676,1.322 0.829576,1.57544 0.338137,0.10543 0.660028,0.49185 0.73458,0.88182 l 0.132697,0.69417 h -3.477303 c -3.221467,0 -3.477303,-0.0391 -3.477303,-0.5313 z m 61.984009,0.0968 c -0.22442,-0.58482 0.24622,-1.0386 0.84061,-0.8105 0.61763,0.23699 0.59177,0.47037 -0.1,0.90239 -0.47705,0.29793 -0.59672,0.28307 -0.74061,-0.0919 z m 23.3053,-1.27444 c 0.0555,-0.16632 0.22107,-0.3024 0.36805,-0.3024 0.14698,0 0.3126,0.13608 0.36804,0.3024 0.0555,0.16632 -0.11018,0.3024 -0.36804,0.3024 -0.25786,0 -0.42348,-0.13608 -0.36805,-0.3024 z m 16.22845,-1.73705 c -0.0184,-0.1934 -0.007,-0.53471 0.025,-0.75847 0.0466,-0.32572 -0.0235,-0.33882 -0.35261,-0.0657 -0.33882,0.28121 -0.47138,0.19514 -0.75536,-0.49043 -0.41486,-1.00156 -0.16015,-1.61948 0.42594,-1.03338 0.21946,0.21945 0.50818,0.44195 0.6416,0.49444 0.34127,0.13427 0.63462,2.20523 0.31238,2.20523 -0.14499,0 -0.27862,-0.15824 -0.29695,-0.35163 z m -109.112993,-0.2109 c 0,-0.15472 0.189881,-0.28131 0.421958,-0.28131 0.232076,0 0.421957,0.12659 0.421957,0.28131 0,0.15472 -0.189881,0.2813 -0.421957,0.2813 -0.232077,0 -0.421958,-0.12658 -0.421958,-0.2813 z m 3.512052,0.0704 c 0.114037,-0.22513 -0.03026,-0.35164 -0.401095,-0.35164 -0.391675,0 -0.579212,-0.18216 -0.579212,-0.56261 0,-0.31256 -0.187538,-0.56261 -0.421958,-0.56261 -0.658405,0 -0.535427,-1.48163 0.158974,-1.91529 0.376817,-0.23533 0.550449,-0.59539 0.494177,-1.02479 -0.04772,-0.36411 0.154926,-0.92906 0.45031,-1.25545 0.318496,-0.35193 0.561985,-1.0786 0.598307,-1.78559 0.03368,-0.65569 0.07598,-1.40183 0.09398,-1.6581 0.02223,-0.31618 0.207301,-0.42029 0.575876,-0.32391 0.325619,0.0852 0.482007,0.30136 0.390488,0.53986 -0.08396,0.2188 -0.0075,0.57267 0.169826,0.78639 0.2478,0.29857 0.214698,0.49636 -0.14292,0.85398 -0.561983,0.56198 -0.774244,3.47768 -0.29633,4.07049 0.242151,0.30037 0.234517,0.42627 -0.03127,0.51573 -0.193398,0.065 -0.351632,0.52666 -0.351632,1.0257 0,0.49905 -0.199268,1.15309 -0.442819,1.45342 -0.243548,0.30033 -0.362667,0.38782 -0.264702,0.19442 z m 10.060911,-0.53794 c -0.377436,-0.1523 -0.493046,-0.93892 -0.137994,-0.93892 0.117501,0 0.371749,0.25317 0.564996,0.56261 0.348973,0.5588 0.2473,0.64839 -0.427002,0.37631 z m 70.54152,-0.89493 c 0.0119,-0.51156 0.55104,-0.95088 0.9697,-0.79023 0.2575,0.0988 0.39883,0.29186 0.31409,0.429 -0.18971,0.30695 -1.28974,0.61648 -1.28379,0.36123 z m 22.85043,-1.83118 c -0.12814,-0.17743 -0.39869,-0.65453 -0.60124,-1.06021 -0.20255,-0.40569 -0.57708,-0.72216 -0.83228,-0.70326 -0.50545,0.0374 -0.75991,-2.22758 -0.28334,-2.52211 0.13272,-0.082 0.2413,-0.40839 0.2413,-0.72524 0,-0.39653 0.13154,-0.52564 0.42196,-0.41419 0.27353,0.10496 0.42347,-0.008 0.42626,-0.32153 0.004,-0.41499 0.0429,-0.42369 0.277,-0.0615 0.14998,0.23207 0.27463,0.8065 0.277,1.2765 0.003,0.51785 0.31295,1.22424 0.78768,1.7929 0.5927,0.70994 0.75711,1.16332 0.67547,1.86262 -0.11302,0.96808 -0.94475,1.49231 -1.38981,0.87601 z M 37.127568,128.66528 c -0.573479,-0.32897 -1.206416,-0.90527 -1.406524,-1.28067 -0.448257,-0.84091 -2.63745,-3.12369 -2.99564,-3.12369 -0.537662,0 -0.555615,-0.79073 -0.02113,-0.93051 0.556579,-0.14555 0.768095,-0.75732 0.261838,-0.75732 -0.73537,0 -0.241972,-1.14715 0.56261,-1.30807 0.464153,-0.0928 0.843915,-0.27954 0.843915,-0.41492 0,-0.13538 0.260646,-0.24614 0.579211,-0.24614 0.318567,0 0.524288,0.0949 0.457158,0.21098 -0.06713,0.11604 -0.0087,0.46415 0.129825,0.77358 0.232732,0.51985 0.242812,0.51474 0.132613,-0.0672 -0.147843,-0.78068 1.827302,-1.56078 2.428811,-0.95927 0.477423,0.47742 1.043179,2.52159 1.062643,3.83949 0.0091,0.61887 0.191962,1.61719 0.406273,2.21849 0.729922,2.04797 -0.557226,3.12615 -2.441609,2.04521 z m 38.596899,-0.48845 c 0,-0.19512 -0.321039,-0.23313 -0.898304,-0.10634 -0.83908,0.18429 -0.86734,0.16632 -0.4286,-0.27241 0.367899,-0.36789 0.59309,-0.40367 1.038958,-0.16505 0.505808,0.27069 0.797502,0.84747 0.428598,0.84747 -0.07735,0 -0.140652,-0.13665 -0.140652,-0.30367 z m 49.592583,-1.7227 c 0.4379,-0.27833 2.37619,-0.28833 2.54522,-0.0131 0.0713,0.11604 -0.54853,0.21496 -1.37734,0.21981 -0.8288,0.005 -1.35434,-0.0882 -1.16788,-0.20667 z m -37.868949,-0.61856 c -0.176542,-0.46006 0.03092,-0.73077 0.560016,-0.73077 0.206289,0 0.375072,0.25318 0.375072,0.56261 0,0.63964 -0.70548,0.76651 -0.935088,0.16816 z m 76.887429,-0.38918 c 0,-0.12158 0.25317,-0.22103 0.56261,-0.22103 0.30943,0 0.56261,0.0995 0.56261,0.22103 0,0.12156 -0.25318,0.22102 -0.56261,0.22102 -0.30944,0 -0.56261,-0.0995 -0.56261,-0.22102 z m 5.06348,-0.10717 c 0,-0.18051 -0.0784,-0.24982 -0.17414,-0.15404 -0.60284,0.60283 -1.5291,-2.03643 -1.2871,-3.66749 0.10786,-0.72698 0.51887,-0.4352 1.09032,0.77406 0.36983,0.78257 0.77604,3.37566 0.52881,3.37566 -0.0868,0 -0.15789,-0.14769 -0.15789,-0.32819 z m -4.71185,-0.98333 c -0.4958,-0.20006 -0.42765,-0.6851 0.21098,-1.50153 l 0.5501,-0.70326 0.006,0.75699 c 0.004,0.41634 0.13285,0.83522 0.28757,0.93084 0.77985,0.48197 -0.0878,0.90718 -1.0549,0.51696 z m -3.1535,-0.36344 c -0.35436,-0.22415 -0.34471,-0.33283 0.0703,-0.79144 0.26461,-0.29238 0.49199,-0.77482 0.50528,-1.07206 0.017,-0.37876 0.0935,-0.31014 0.25596,0.22933 0.41026,1.36253 0.004,2.16225 -0.83156,1.63417 z m -19.26425,-0.54907 c -0.0866,-0.14019 -0.44222,-0.20209 -0.79019,-0.13753 -0.35879,0.0665 -0.44999,0.0365 -0.2107,-0.0692 0.23208,-0.10262 0.70074,-0.48378 1.04147,-0.84704 0.72754,-0.77567 1.01008,-0.81713 1.50496,-0.22084 0.32071,0.38644 0.2689,0.41556 -0.42808,0.24063 -0.74068,-0.18589 -0.78359,-0.14996 -0.65075,0.54493 0.1373,0.71824 -0.14332,1.0123 -0.46671,0.48904 z m 38.452,-0.65935 c 0.17722,-0.53227 1.05502,-0.60794 1.05502,-0.0909 0,0.26094 -0.24051,0.44258 -0.58605,0.44258 -0.34375,0 -0.53765,-0.14538 -0.46897,-0.35164 z M 31.304132,121.80539 c -0.159522,-0.27401 -0.293889,-0.35489 -0.298594,-0.17972 -0.0064,0.23544 -0.256746,0.23315 -0.960443,-0.009 -1.173318,-0.40338 -1.909361,-0.98872 -1.689854,-1.3439 0.09081,-0.14693 -0.05679,-0.51235 -0.328,-0.81203 -0.614677,-0.67921 -0.133336,-0.71817 0.650023,-0.0525 0.318678,0.27076 0.844396,0.67847 1.168262,0.90602 0.323866,0.22755 0.588848,0.5892 0.588848,0.80367 0,0.21905 0.172951,0.3236 0.394614,0.23852 0.513933,-0.19721 1.494852,0.49604 1.071814,0.75748 -0.168646,0.10423 -0.437148,-0.0346 -0.59667,-0.30869 z m 58.204277,0.36402 c 0,-0.81905 0.618733,-1.5878 1.01396,-1.25979 0.394658,0.32754 0.377149,0.39085 -0.163387,0.5908 -0.332977,0.12318 -0.526516,0.35162 -0.430088,0.50765 0.09643,0.15602 0.04127,0.28368 -0.122578,0.28368 -0.163849,0 -0.297907,-0.055 -0.297907,-0.12234 z m -9.538429,-0.54966 c -0.259779,-0.31302 -0.215023,-0.59126 0.206632,-1.28462 0.497756,-0.81849 0.549828,-0.84074 0.692343,-0.29576 0.230316,0.88072 -0.465067,2.10321 -0.898975,1.58038 z m -19.924027,-2.37341 c -0.430891,-0.26986 -0.810813,-2.01807 -0.438565,-2.01807 0.147914,0 0.429398,0.29982 0.625521,0.66628 0.430653,0.80468 0.31179,1.66413 -0.186956,1.35179 z m -37.070619,-2.63743 c -0.621322,-0.66503 -1.494801,-1.61566 -1.941063,-2.11254 l -0.811385,-0.90341 1.097148,0.17332 c 1.080689,0.17072 1.610257,0.55518 1.348388,0.97888 -0.237611,0.38446 1.153571,0.55417 1.976865,0.24116 l 0.79962,-0.30402 -0.458968,0.70048 c -0.620965,0.9477 -0.584166,1.36052 0.101872,1.14279 0.455168,-0.14448 0.524747,-0.0817 0.369288,0.33267 -0.168452,0.44909 -0.134314,0.46412 0.283075,0.1246 0.408913,-0.33262 0.474626,-0.32288 0.474626,0.0704 0,0.25103 -0.221528,0.45813 -0.492284,0.46025 -0.270756,0.003 -0.745458,0.0715 -1.054894,0.15423 -0.408727,0.10925 -0.871592,-0.18032 -1.692288,-1.05873 z m 85.099196,0.63596 c 0,-0.30031 -0.12658,-0.62425 -0.2813,-0.71987 -0.15471,-0.0956 -0.2813,-0.30268 -0.2813,-0.46014 0,-0.15746 0.31647,0.0898 0.70326,0.54949 0.81388,0.96726 0.86393,1.17652 0.28131,1.17652 -0.23208,0 -0.42197,-0.2457 -0.42197,-0.546 z m -18.118877,-1.03671 c -0.235039,-0.61251 -0.21524,-0.66772 0.239416,-0.66772 0.580307,0 0.721499,0.3659 0.293668,0.76104 -0.288949,0.26689 -0.402486,0.24701 -0.533084,-0.0933 z m -28.0805,-2.75932 c -0.07203,-0.3768 -0.02543,-0.8515 0.103551,-1.0549 0.149486,-0.23573 0.236075,0.0126 0.23882,0.68508 0.0049,1.20597 -0.150448,1.3738 -0.342371,0.36982 z m 28.386182,-0.19192 c -0.161052,-0.91445 -0.288736,-4.30807 -0.183976,-4.88977 0.02787,-0.15471 0.02814,-0.69271 5.63e-4,-1.19554 -0.03796,-0.69343 0.06574,-0.91424 0.429409,-0.91424 0.398628,0 0.450296,0.18241 0.306456,1.08194 -0.09515,0.59506 -0.09074,1.1642 0.0098,1.26476 0.309289,0.30928 0.380881,1.83455 0.09442,2.01158 -0.149197,0.0922 -0.195471,0.71321 -0.103269,1.38589 0.21291,1.55334 -0.297209,2.71041 -0.553468,1.25538 z m 105.228715,-1.39598 c -0.27076,-0.1577 -0.49228,-0.46114 -0.49228,-0.67429 0,-0.21317 -0.34812,-0.66563 -0.7736,-1.00547 -0.66289,-0.5295 -0.68601,-0.59103 -0.16152,-0.43004 0.42317,0.12988 0.69388,0.0416 0.87719,-0.28592 0.3724,-0.66544 0.90183,-0.23663 0.90183,0.73042 0,0.4459 0.1266,0.88895 0.28131,0.98457 0.81816,0.50564 0.20279,1.16749 -0.63293,0.68073 z m -176.816024,-0.3338 c -0.168859,-0.20347 -0.444203,-0.98209 -0.611876,-1.73029 -0.167672,-0.74818 -0.445734,-1.62911 -0.617916,-1.95762 l -0.313057,-0.59729 0.603542,0.53589 c 0.331948,0.29472 0.609099,0.80107 0.61589,1.12521 0.0068,0.32414 0.190968,1.09084 0.409284,1.70379 0.428619,1.20341 0.400369,1.50619 -0.08587,0.92031 z m 159.282054,-2.21221 c -0.30372,-0.49142 0.31653,-0.87855 0.68884,-0.42993 0.26125,0.31478 0.24248,0.43568 -0.0873,0.56224 -0.23107,0.0886 -0.50176,0.0291 -0.60154,-0.13231 z m 14.79125,-0.66647 c 0,-0.23207 -0.15523,-0.39031 -0.34496,-0.35162 -0.18971,0.0386 -0.37132,-0.24615 -0.40357,-0.63294 -0.0329,-0.39409 0.005,-0.48685 0.0843,-0.21098 0.19955,0.68745 0.64499,0.62001 0.46446,-0.0704 -0.081,-0.30943 -0.0375,-0.56242 0.0967,-0.5622 0.13408,2.4e-4 0.27849,0.50659 0.32091,1.12523 0.0424,0.61864 0.0108,1.1248 -0.0704,1.1248 -0.0812,0 -0.14745,-0.18988 -0.14745,-0.42195 z m 0.71532,-0.51381 c -0.14041,-0.6765 -0.10577,-1.33461 0.0932,-1.7714 0.39725,-0.87184 0.39844,-0.85822 -0.091,-1.04602 -0.27246,-0.10456 -0.35576,-0.0213 -0.25122,0.2512 0.0861,0.2242 0.0163,0.40763 -0.15497,0.40763 -0.17128,0 -0.3114,-0.26899 -0.3114,-0.59777 0,-0.51947 0.11513,-0.57474 0.87907,-0.42195 0.48349,0.0967 1.05314,0.17581 1.26587,0.17581 0.59873,0 0.47896,1.33937 -0.13726,1.53494 -0.3327,0.1056 -0.62355,0.60044 -0.79651,1.35515 l -0.27244,1.18883 z M 59.623077,107.31226 c -0.07071,-0.50282 -0.22469,-1.13576 -0.342179,-1.40652 -0.121657,-0.28037 -0.09425,-0.49229 0.06366,-0.49229 0.266387,0 0.671705,0.84246 1.048888,2.18012 0.126483,0.44857 0.059,0.63294 -0.231669,0.63294 -0.248808,0 -0.460707,-0.35962 -0.5387,-0.91425 z m -27.00651,-0.97335 c -0.382622,-0.42399 -0.467854,-0.92224 -0.388364,-2.2703 0.05602,-0.94991 -0.01036,-1.76451 -0.147499,-1.81022 -0.303139,-0.10106 0.838906,-3.596249 1.175061,-3.596249 0.130898,0 0.229261,-0.221528 0.218583,-0.492282 -0.01068,-0.270764 0.07383,-1.134491 0.187779,-1.919399 0.16448,-1.132929 0.114096,-1.520215 -0.244408,-1.878721 -0.248381,-0.248378 -0.451601,-0.633259 -0.451601,-0.855291 0,-1.129453 -2.352122,-2.630904 -4.719232,-3.012469 l -1.610128,-0.259543 1.761617,0.125979 c 2.97023,0.212408 4.318293,1.150012 5.49482,3.82175 0.436936,0.992218 1.082943,1.874037 1.740091,2.375272 1.019648,0.777722 1.350279,1.325903 1.737474,2.880695 0.170723,0.685548 0.142993,0.722818 -0.279059,0.375109 -0.25774,-0.212345 -0.468618,-0.502691 -0.468618,-0.645218 0,-0.142519 -0.299891,-0.582555 -0.666422,-0.977837 -0.771463,-0.831991 -1.754827,-0.802082 -1.669387,0.05082 0.3192,3.186184 0.43599,3.959594 0.627473,4.155264 0.578222,0.5909 -0.472536,3.56984 -1.259184,3.56984 -0.201788,0 -0.407815,0.20386 -0.45784,0.45303 -0.07909,0.39392 -0.154887,0.38217 -0.581156,-0.0902 z m 128.504593,-2.01728 c -0.0938,-0.1517 -0.0283,-0.36369 0.14545,-0.47108 0.23004,-0.14217 0.22426,-0.25191 -0.0213,-0.40365 -0.21449,-0.13256 -0.0718,-0.25913 0.39192,-0.34778 0.40102,-0.0766 0.72913,-0.0497 0.72913,0.0598 0,0.41634 -1.08207,1.42664 -1.24523,1.16265 z M 14.973779,103.13458 c -0.308787,-0.68059 -0.559782,-1.42732 -0.557768,-1.65939 0.002,-0.23208 0.321495,0.25793 0.709958,1.0889 0.388463,0.83098 0.639458,1.5777 0.557768,1.65939 -0.08169,0.0816 -0.401171,-0.40832 -0.709958,-1.0889 z m 151.769651,-0.14541 c -0.10166,-0.40505 -0.11408,-0.80722 -0.0276,-0.89371 0.2498,-0.24979 0.94766,0.86454 0.79332,1.26676 -0.22493,0.58616 -0.56677,0.41961 -0.76572,-0.37305 z m -76.516321,-0.61985 c -0.115296,-0.5139 -0.14045,-1.00354 -0.0559,-1.0881 0.211654,-0.21165 0.547,1.20939 0.391439,1.65875 -0.06925,0.20004 -0.220242,-0.0568 -0.335541,-0.57065 z m -40.381691,0.17583 c 0.411108,-0.49657 0.341794,-0.7946 -0.141657,-0.60908 -0.246572,0.0946 -0.423746,0.004 -0.426264,-0.2198 -0.0034,-0.29609 -0.06927,-0.28706 -0.29386,0.0403 -0.22818,0.33252 -0.272969,0.26825 -0.211307,-0.30328 0.08316,-0.77078 -0.787877,-2.010721 -2.014537,-2.867739 -0.982542,-0.686464 -0.434717,-0.603819 0.874329,0.131909 1.554894,0.8739 3.036889,3.20156 2.395374,3.76224 -0.254308,0.22225 -0.336241,0.25174 -0.182078,0.0655 z m 144.027132,-0.25398 c 0,-0.11851 -0.26272,-0.29884 -0.58382,-0.40075 -0.32109,-0.10191 -0.5315,-0.2376 -0.46757,-0.30153 0.174,-0.17401 1.8953,0.47159 1.8953,0.71084 0,0.1138 -0.18989,0.2069 -0.42196,0.2069 -0.23207,0 -0.42195,-0.097 -0.42195,-0.21546 z m -26.35494,-0.92015 c 0.0968,-0.25214 0.068,-0.45844 -0.0637,-0.45844 -0.13181,0 -0.33561,-0.28482 -0.45288,-0.63294 -0.28764,-0.853899 -0.30783,-1.067872 -0.0929,-0.984563 0.0998,0.03864 0.44792,-0.170827 0.7736,-0.465563 0.32596,-0.294982 0.59214,-0.389828 0.59214,-0.210973 0,0.178691 0.18988,0.3249 0.42197,0.3249 0.23207,0 0.42195,0.126591 0.42195,0.281309 0,0.154718 -0.18988,0.2813 -0.42195,0.2813 -0.48719,0 -0.54796,0.3241 -0.1377,0.73435 0.19148,0.19149 0.0394,0.49721 -0.46605,0.93666 -0.52872,0.45972 -0.69836,0.517 -0.5744,0.19396 z m 27.49993,-1.496733 c 0.0148,-1.014737 0.0802,-1.212201 0.26153,-0.790192 0.33596,0.781828 0.33596,1.761495 0,1.969135 -0.17357,0.10727 -0.27374,-0.34428 -0.26153,-1.178943 z M 53.81289,99.084095 c 0.93333,-1.299636 1.484674,-1.765918 0.748403,-0.632936 -0.226223,0.348118 -0.5877,0.917755 -0.803281,1.265873 -0.215583,0.348108 -0.495971,0.632938 -0.623084,0.632938 -0.127117,0 0.177967,-0.569647 0.677962,-1.265875 z m 121.21222,0.286664 c 0,-0.229127 0.31648,-0.496027 0.70327,-0.593109 0.81262,-0.203946 0.8113,-0.198764 0.36544,-1.431737 -0.31297,-0.865513 -1.06871,-1.315477 -1.06871,-0.6363 0,0.163836 -0.12659,0.219664 -0.2813,0.124045 -0.83129,-0.51376 -0.22699,-0.98457 1.26372,-0.98457 2.02984,0 4.02901,1.496289 2.32292,1.738589 -0.40676,0.05773 -0.66506,0.316073 -0.72284,0.722827 -0.0554,0.389855 -0.28522,0.632937 -0.59849,0.632937 -0.27972,0 -0.66618,0.189882 -0.85879,0.421954 -0.4496,0.541746 -1.12522,0.544964 -1.12522,0.0055 z M 89.970067,98.662141 c -0.402481,-1.963355 -0.412998,-2.531746 -0.04685,-2.531746 0.479782,0 0.717766,1.314327 0.458417,2.531746 l -0.209741,0.984564 z m 97.713773,0.223363 c 0,-0.155954 0.20011,-0.206763 0.44472,-0.1129 0.80057,0.307201 -1.37908,-1.777109 -2.33053,-2.228603 -0.94381,-0.447868 -1.23822,-0.976218 -0.54397,-0.976218 0.53987,0 4.39891,2.936776 4.39891,3.347621 0,0.10881 -0.44305,0.210401 -0.98457,0.225755 -0.54151,0.01536 -0.98456,-0.0997 -0.98456,-0.255655 z m 7.34655,-0.8333 c -0.0179,-0.258091 -0.10548,-0.701145 -0.19452,-0.984564 -0.15345,-0.488405 -0.14511,-0.489144 0.15959,-0.01418 0.17681,0.275619 0.26433,0.718673 0.19451,0.984573 -0.11436,0.435528 -0.13018,0.436937 -0.15958,0.01418 z m -82.45497,-5.960689 c 0,-0.57043 -0.47011,-0.831554 -1.44707,-0.803778 -0.57119,0.01623 -0.80596,-0.113993 -0.81232,-0.450626 -0.0112,-0.59283 -0.54811,-1.297451 -1.16478,-1.528593 -0.25876,-0.09699 -0.51193,-0.468908 -0.56261,-0.826483 -0.0593,-0.417912 -0.3125,-0.681495 -0.70903,-0.737924 -0.43058,-0.06127 -0.71606,-0.401116 -0.94528,-1.12522 -0.18061,-0.570589 -0.4744,-1.164021 -0.65286,-1.318738 -1.01305,-0.878313 -2.03781,-3.516312 -1.36595,-3.516312 0.3209,0 1.47079,1.222335 1.47253,1.565308 8.5e-4,0.144745 0.44379,0.744921 0.98457,1.333723 0.54078,0.588802 0.98322,1.170402 0.98322,1.292444 0,0.122044 0.32033,0.589699 0.71184,1.039238 0.3915,0.44954 0.65656,1.038744 0.58901,1.309345 -0.0675,0.270604 -0.005,0.564832 0.13905,0.653846 0.14403,0.08901 0.22709,-0.0058 0.18458,-0.210697 -0.0486,-0.233855 0.13214,-0.336188 0.48531,-0.274886 0.30944,0.05371 0.94237,0.129541 1.40653,0.168513 1.34867,0.11324 1.4299,0.1493 0.98456,0.437095 -0.33521,0.21663 -0.27737,0.275498 0.28131,0.286356 l 0.70326,0.01367 -0.67482,0.561935 c -0.63205,0.526316 -0.64348,0.584852 -0.18038,0.923476 0.27192,0.198846 0.44901,0.595858 0.39351,0.882245 -0.1244,0.641863 -0.80418,0.91749 -0.80418,0.326061 z m 2.26711,-0.277482 c -0.1633,-0.429541 -0.415,-0.708008 -0.55932,-0.618815 -0.34904,0.215721 -0.67111,-0.335753 -0.48274,-0.826614 0.23977,-0.624831 1.87049,0.101171 1.865,0.8303 -0.009,1.112434 -0.49544,1.476499 -0.82294,0.615129 z M 23.014174,91.337044 c -1.046586,-1.174615 -2.809872,-2.274939 -4.33925,-2.707779 l -1.32123,-0.373928 1.547177,0.169382 c 1.700888,0.18621 2.803964,0.745695 4.061226,2.05987 0.942223,0.984877 1.254524,1.038555 2.448899,0.420918 1.405902,-0.727018 1.149243,-0.319939 -0.313019,0.496473 l -1.352916,0.755361 z M 193.59124,90.520896 c 0,-0.764456 0.0949,-1.44809 0.21098,-1.519184 0.11604,-0.07109 0.21098,0.554396 0.21098,1.389978 0,0.835583 -0.0949,1.519216 -0.21098,1.519185 -0.11604,-3.1e-5 -0.21098,-0.625521 -0.21098,-1.389979 z M 14.399992,90.162753 c 0,-0.449387 1.711241,-1.634989 2.336846,-1.619039 0.184553,0.0046 0.08238,0.148234 -0.227059,0.318957 -0.309435,0.170722 -0.910724,0.633609 -1.336198,1.028643 -0.59282,0.550404 -0.773589,0.613832 -0.773589,0.271439 z m 50.916193,0.213472 c 0,-0.279452 1.678523,-0.996827 2.306796,-0.985887 l 0.646906,0.01125 -0.703263,0.37177 c -0.80005,0.422937 -2.250439,0.81147 -2.250439,0.602852 z M 195.0471,86.855595 c 0.81378,-1.395737 2.37804,-2.044741 4.02958,-1.671879 l 0.84392,0.190524 -1.03658,0.03328 c -1.50982,0.04847 -2.44727,0.484569 -3.57257,1.661926 l -0.99761,1.043754 z m -98.749064,0.132388 c -0.02529,-0.309436 -0.116268,-0.879079 -0.202158,-1.265873 -0.134793,-0.607019 -0.112556,-0.63491 0.162488,-0.203805 0.175259,0.274703 0.266226,0.844346 0.202154,1.265872 -0.07594,0.499536 -0.132509,0.570506 -0.162484,0.203806 z M 82.897743,85.890502 c 1.237742,-0.34947 2.601775,-0.723425 3.031185,-0.831008 l 0.780741,-0.195608 -0.627619,0.62762 c -0.625982,0.625981 -2.377513,1.032919 -4.450179,1.033924 -0.75078,2.82e-4 -0.450198,-0.150402 1.265872,-0.634928 z m 118.516837,0.219364 c -0.0721,-0.135906 0.0995,-0.690158 0.38137,-1.23167 l 0.51243,-0.984568 -0.17696,0.843915 c -0.22488,1.07247 -0.54791,1.690854 -0.71684,1.372323 z M 103.7358,80.867648 c -0.40438,-0.43942 -0.4302,-0.545442 -0.10216,-0.419564 0.33415,0.128228 0.40798,0.02236 0.30926,-0.443445 l -0.12969,-0.61189 0.44283,0.54605 c 0.92689,1.142924 0.4539,1.987399 -0.52024,0.928849 z m 100.29325,0.203495 c 0.23726,-0.237266 0.92897,-0.495875 1.53713,-0.574685 l 1.10573,-0.143294 -1.40651,0.574456 c -1.6862,0.688679 -1.79402,0.701196 -1.23635,0.143523 z m -77.38839,-2.241004 c 0,-0.440905 0.0219,-0.452375 1.07055,-0.560854 0.46562,-0.04816 0.60449,0.0478 0.49228,0.340216 -0.086,0.224017 -0.1563,0.460245 -0.1563,0.524952 0,0.0647 -0.31646,0.117644 -0.70326,0.117644 -0.43759,0 -0.70327,-0.159407 -0.70327,-0.421958 z m 10.58299,-3.26779 c -0.90958,-0.271509 -2.77675,-0.652593 -4.14925,-0.846847 -3.3163,-0.469372 -3.70949,-1.29615 -0.456,-0.958865 2.51538,0.260766 2.76127,0.301809 3.3745,0.563223 0.65593,0.279611 2.80656,0.0025 4.16035,-0.535918 0.29692,-0.118099 0.4453,0.0063 0.4748,0.397741 0.0338,0.449573 -0.12725,0.569535 -0.76485,0.569535 -0.63168,0 -0.82715,0.142205 -0.89676,0.652391 l -0.089,0.652395 z m -20.64534,-0.02042 c 0.25655,-0.769641 1.48689,-1.386248 2.19884,-1.101978 0.42209,0.168541 0.51374,0.282537 0.2359,0.29344 -0.2499,0.0098 -0.77621,0.271007 -1.1696,0.580442 -0.79579,0.625974 -1.43626,0.741444 -1.26514,0.228096 z m 4.30835,-1.332687 c -0.0629,-0.101874 0.25654,-0.213496 0.70998,-0.24805 0.45345,-0.03455 0.82445,-0.01226 0.82445,0.04951 0,0.204152 -1.4176,0.387577 -1.53443,0.198543 z M 99.038852,70.93016 c -0.0647,-2.102098 0.0845,-4.424189 0.32206,-5.011894 0.2159,-0.53408 0.24052,-0.514946 0.25664,0.199428 0.0102,0.451667 0.13835,0.715707 0.29914,0.616334 0.361568,-0.223466 0.358378,-0.161044 -0.13509,2.643006 -0.47256,2.685213 -0.69366,3.147543 -0.74275,1.553126 z M 126.4795,69.753749 c -0.16601,-0.11367 -0.38357,-0.4282 -0.48347,-0.698956 -0.0999,-0.270756 -0.43431,-0.492283 -0.74317,-0.492283 -0.30884,0 -0.69703,-0.253175 -0.86263,-0.562611 -0.22122,-0.413352 -0.589,-0.562609 -1.38632,-0.562609 -0.70515,0 -1.14195,-0.147784 -1.24716,-0.421957 -0.0891,-0.232077 -0.35576,-0.421958 -0.59271,-0.421958 -0.23692,0 -0.43078,-0.03248 -0.43078,-0.07218 0,-0.0397 -0.1203,-0.491642 -0.26734,-1.004315 l -0.26732,-0.932132 1.60352,0.06574 c 0.88195,0.03616 1.85323,0.234926 2.15841,0.441705 0.30519,0.206776 0.83571,0.375958 1.17895,0.375958 0.34324,0 0.6974,0.118664 0.78705,0.263693 0.1489,0.240945 1.488,0.216613 3.22981,-0.05869 0.37796,-0.05974 0.73689,-0.257677 0.79762,-0.439865 0.0607,-0.18219 0.2125,-0.268159 0.33728,-0.191045 0.12478,0.07711 0.80838,-0.07532 1.51913,-0.338739 1.12143,-0.415628 1.45087,-0.430422 2.49184,-0.111889 0.65975,0.201881 1.48438,0.38675 1.8325,0.410818 0.34811,0.02408 0.63294,0.170757 0.63294,0.325978 0,0.508226 -1.67042,1.872174 -2.17406,1.775184 -0.27053,-0.0521 -0.71486,0.128252 -0.9874,0.400786 -0.27253,0.272532 -0.76564,0.495513 -1.09581,0.495513 -1.06791,0 -2.7779,0.641103 -3.50341,1.313485 -0.86912,0.805473 -0.95978,0.811005 -0.95978,0.0586 0,-0.511652 -0.0635,-0.544418 -0.4434,-0.22907 -0.36746,0.304972 -0.48715,0.298829 -0.69895,-0.03588 -0.14056,-0.222131 -0.2575,-0.270953 -0.25987,-0.1085 -0.003,0.162454 0.1476,0.447275 0.33327,0.632936 0.36637,0.366377 -0.008,0.458204 -0.49874,0.12228 z m -4.90232,-13.244131 c 0,-0.130948 0.20212,-0.643235 0.44914,-1.138413 0.27373,-0.548716 0.3779,-1.184153 0.26673,-1.627085 -0.13141,-0.523587 -0.0214,-0.898133 0.39349,-1.339768 1.0394,-1.106392 1.11712,-3.834403 0.13518,-4.744911 -1.01999,-0.945784 -0.87741,-1.050218 0.97331,-0.712934 1.69234,0.308423 5.14767,0.177182 7.89702,-0.299946 2.20767,-0.38313 2.84722,-0.240612 1.19105,0.265416 -1.72683,0.527615 -2.52003,3.841486 -1.21196,5.063407 0.34295,0.320371 0.37372,0.265136 0.21178,-0.380124 -0.22485,-0.895843 -0.0848,-0.94231 0.64386,-0.213643 1.22342,1.22342 1.3535,3.541941 0.14232,2.536754 -0.55132,-0.457559 -0.53809,0.171284 0.0264,1.253682 0.2339,0.448492 0.36812,0.872575 0.2983,0.942409 -0.22728,0.227264 -0.72702,-0.232829 -0.72702,-0.669327 0,-0.233995 -0.15824,-0.601895 -0.35163,-0.817549 -0.9546,-1.064475 -1.04341,-1.229435 -0.75713,-1.406367 0.19757,-0.122109 0.18552,-0.309072 -0.0373,-0.577482 -0.18117,-0.218301 -0.25512,-0.396913 -0.16431,-0.396913 0.0908,0 -0.0836,-0.580138 -0.38751,-1.289195 -0.30394,-0.709055 -0.55262,-1.586636 -0.55262,-1.950177 0,-0.990132 -4.57103,-1.493496 -5.32058,-0.585906 -0.42603,0.515897 -0.691,2.418754 -0.33677,2.418754 0.17192,0 0.31261,0.126587 0.31261,0.281304 0,0.154718 -0.18989,0.281305 -0.42197,0.281305 -0.30369,0 -0.42195,0.310715 -0.42195,1.108617 0,0.60974 -0.13522,1.192187 -0.30048,1.294326 -0.16527,0.102142 -0.22567,0.38069 -0.13421,0.619001 0.1321,0.344247 0.0854,0.366161 -0.22734,0.106634 -0.32246,-0.267614 -0.45147,-0.09684 -0.71375,0.944777 -0.27136,1.077671 -0.87466,1.790429 -0.87466,1.033354 z m -8.01106,-4.252869 c -0.0922,-0.149261 -0.33843,-0.838607 -0.54707,-1.531886 l -0.37936,-1.260502 0.8319,-0.182714 c 0.45754,-0.100493 0.90417,-0.110433 0.99251,-0.02208 0.23776,0.237756 -0.50405,1.037807 -0.79533,0.857783 -0.13719,-0.08479 -0.24944,0.162313 -0.24944,0.549108 0,0.386794 0.11478,0.774199 0.25507,0.860902 0.14029,0.0867 0.20219,-0.127352 0.13754,-0.475681 -0.0646,-0.348328 -0.0482,-0.492655 0.0366,-0.320724 0.23276,0.471852 2.11796,-0.459722 2.03112,-1.003682 -0.0466,-0.292239 0.15642,-0.434137 0.62128,-0.434137 1.30671,0 1.30206,2.622448 -0.005,2.987551 -1.05042,0.293344 -2.74204,0.27953 -2.92959,-0.02391 z m 26.96419,-0.04114 c -1.57015,-0.442805 -2.38573,-2.603052 -1.07718,-2.853197 0.37959,-0.07255 0.69017,-0.0229 0.69017,0.110363 0,0.133263 -0.1519,0.242297 -0.33756,0.242297 -0.24538,0 -0.25312,0.08445 -0.0283,0.30925 0.39232,0.392322 1.4911,0.05985 1.4911,-0.451174 0,-0.410511 0.99751,-0.349021 3.23501,0.199423 0.61887,0.151696 1.53978,0.341619 2.04647,0.422055 2.64315,0.419592 1.34174,2.544282 -1.34186,2.190733 -1.67681,-0.220908 -2.36443,-0.229986 -3.23636,-0.04272 -0.30944,0.06645 -0.9581,0.0093 -1.44147,-0.127024 z m -30.69735,-1.0855 c -0.3374,-0.540282 0.17068,-0.928707 1.61724,-1.236328 l 0.70327,-0.149557 -0.63294,0.522797 c -0.34812,0.287539 -0.63294,0.647198 -0.63294,0.799241 0,0.518309 -0.74273,0.563274 -1.05463,0.06385 z m 37.66555,-1.946182 c -0.94264,-0.597328 0.16417,-1.483295 1.59393,-1.275878 1.64053,0.237998 2.10372,0.963106 0.61523,0.963106 -0.29117,0 -0.60765,0.126587 -0.70326,0.281306 -0.21195,0.342941 -0.98874,0.359172 -1.5059,0.03147 z m -40.26788,-3.125815 c -0.30042,-0.194143 0.0236,-0.272689 1.12521,-0.272689 1.10152,0 1.42564,0.07855 1.12522,0.272689 -0.23207,0.14998 -0.73842,0.272688 -1.12522,0.272688 -0.38679,0 -0.89314,-0.122708 -1.12521,-0.272688 z m -1.22293,-2.462259 c -0.20316,-0.328708 0.13162,-1.757315 0.41181,-1.757315 0.13668,0 0.24851,-0.252103 0.24851,-0.560228 0,-0.308123 0.24053,-0.710445 0.53453,-0.894051 0.294,-0.183605 0.46985,-0.502436 0.39077,-0.708517 -0.19166,-0.499429 1.14816,-2.226185 1.87476,-2.416192 0.317,-0.0829 0.50544,-0.03595 0.41873,0.104344 -0.0866,0.140289 0.0144,0.25507 0.22464,0.25507 0.21028,0 0.53202,0.149702 0.71498,0.332672 0.58161,0.581609 2.86342,0.520889 3.2426,-0.08629 0.39789,-0.637121 0.98646,-0.667811 2.06087,-0.107464 0.75589,0.394221 0.76556,0.420331 0.1562,0.421957 -0.378,0.0012 -0.5739,0.12411 -0.4686,0.294482 0.0995,0.16101 0.42345,0.215775 0.71986,0.121695 0.30127,-0.09562 0.53894,-0.03864 0.53894,0.129209 0,0.165146 -0.21408,0.300262 -0.47572,0.300262 -0.41656,0 -0.4078,0.0543 0.0704,0.436524 0.52736,0.421588 0.52319,0.430182 -0.12201,0.251202 -0.37389,-0.10372 -0.74963,-0.05334 -0.85331,0.114421 -0.10189,0.164861 -1.22494,0.386453 -2.49567,0.492427 -1.39023,0.11594 -2.43657,0.344666 -2.62713,0.574276 -0.17418,0.209872 -0.5828,0.38159 -0.90804,0.38159 -0.32524,0 -0.97433,0.424857 -1.44241,0.944129 -0.93885,1.041523 -2.00998,1.706939 -2.21464,1.375795 z"
       id="path293" />
  </g>
</svg>
