<?xml version="1.0" encoding="UTF-8" standalone="no"?>
<!-- Created with Inkscape (http://www.inkscape.org/) -->

<svg
   width="512"
   height="512"
   viewBox="0 0 135.46667 135.46667"
   version="1.1"
   id="svg5"
   xml:space="preserve"
   xmlns="http://www.w3.org/2000/svg"
   xmlns:svg="http://www.w3.org/2000/svg"><defs
     id="defs2" /><path
     style="fill:#4c566a;fill-opacity:1;stroke-width:0.264583"
     d="m 12.700011,89.746637 c 0,3.048455 2.45447,5.503335 5.50331,5.503335 h 99.059969 c 3.04846,0 5.50339,-2.45488 5.50339,-5.503335 V 29.996184 c 0,-3.048446 -2.45493,-5.503329 -5.50339,-5.503329 H 67.733291 c -8.25499,0 -11.00668,-11.792851 -19.26168,-11.792851 h -30.26829 c -3.04884,0 -5.50331,2.454488 -5.50331,5.503328"
     id="path1027-3" /><rect
     style="fill:#999999;fill-opacity:1;stroke-width:0.264583"
     width="110.06666"
     height="75.642113"
     x="12.69754"
     y="38.657894"
     rx="7.4083333"
     ry="7.4083338"
     id="rect2509-6" /><rect
     style="fill:#e6e6e6;stroke-width:0.264583"
     width="110.06666"
     height="75.642113"
     x="12.700012"
     y="34.424572"
     rx="7.4083333"
     ry="7.4083338"
     id="rect1174-7" /><path
     id="path1722-5"
     style="fill:#4c566a;fill-opacity:1;stroke-width:0.264583"
     d="m 82.719301,41.245423 c -1.98106,0.13147 -25.78097,11.413687 -33.85112,11.492691 h -7.7708 V 58.838521 86.2495 c 0,4.380707 1.41917,7.96345 4.256,10.748494 2.83604,2.784222 17.30103,4.178366 22.54149,4.178366 5.24046,0 19.38629,-1.393976 22.22215,-4.178366 2.83604,-2.785044 4.2523,-6.367787 4.2523,-10.748494 V 58.838521 52.738114 h -7.76708 c 0,0 -1.90188,-11.624157 -3.88294,-11.492691 z m -33.85135,18.937705 h 37.73429 v 13.587799 0.710397 c 0,0 0.004,0.790138 0,1.272458 l -0.0157,2.613514 c -0.005,0.184573 -0.01,0.388638 -0.0161,0.495464 v 0.574421 c 0,0.297917 -0.0634,0.579536 -0.17515,0.834256 0.095,3.254641 -1.92116,3.998499 -1.92116,3.998499 -1.87492,1.03852 -13.25014,2.066598 -16.57935,2.066598 -3.3292,0 -14.61599,-0.834671 -16.90239,-2.066598 0,0 -1.88924,-0.996337 -1.8944,-3.882961 -0.14613,-0.2836 -0.22964,-0.606141 -0.22964,-0.949794 v -1.516146 -2.167253 -1.34915 -0.692987 z m 10.31993,6.324172 c -3.3912,0 -6.14025,2.799676 -6.14025,6.253035 0,3.453356 2.74905,6.252783 6.14025,6.252783 3.39123,0 6.1405,-2.799427 6.1405,-6.252783 0,-3.453359 -2.74927,-6.253035 -6.1405,-6.253035 z m 17.09093,0 c -3.39122,0 -6.14025,2.799676 -6.14025,6.253035 0,3.453356 2.74903,6.252783 6.14025,6.252783 3.3912,0 6.14049,-2.799427 6.14049,-6.252783 0,-3.453359 -2.74929,-6.253035 -6.14049,-6.253035 z" /><path
     id="path2859"
     style="fill:#ff0066;fill-opacity:1;stroke-width:0.264583"
     d="m 18.203511,12.700004 c -3.04884,0 -5.50354,2.454704 -5.50354,5.50354 v 2.645834 c 0,-3.048837 2.4547,-5.50354 5.50354,-5.50354 h 30.26792 c 8.25499,0 11.00689,11.793079 19.26187,11.793079 H 117.2631 c 3.04845,0 5.50354,2.45458 5.50354,5.503023 v -2.645833 c 0,-3.048443 -2.45509,-5.503024 -5.50354,-5.503024 H 67.733301 c -8.25498,0 -11.00688,-11.793079 -19.26187,-11.793079 z" /></svg>
