<?xml version="1.0" encoding="UTF-8" standalone="no"?>
<!-- Created with Inkscape (http://www.inkscape.org/) -->

<svg
   width="360"
   height="640"
   viewBox="0 0 360 640"
   version="1.1"
   id="svg5"
   inkscape:version="1.2 (dc2aedaf03, 2022-05-15)"
   sodipodi:docname="marker.svg"
   xmlns:inkscape="http://www.inkscape.org/namespaces/inkscape"
   xmlns:sodipodi="http://sodipodi.sourceforge.net/DTD/sodipodi-0.dtd"
   xmlns="http://www.w3.org/2000/svg"
   xmlns:svg="http://www.w3.org/2000/svg">
  <sodipodi:namedview
     id="namedview7"
     pagecolor="#ffffff"
     bordercolor="#eeeeee"
     borderopacity="1"
     inkscape:showpageshadow="0"
     inkscape:pageopacity="0"
     inkscape:pagecheckerboard="true"
     inkscape:deskcolor="#a8a8a8"
     inkscape:document-units="px"
     showgrid="false"
     shape-rendering="crispEdges"
     inkscape:zoom="10.0125"
     inkscape:cx="181.1236"
     inkscape:cy="335.23096"
     inkscape:current-layer="layer1" />
  <defs
     id="defs2" />
  <g
     inkscape:label="Layer 1"
     inkscape:groupmode="layer"
     id="layer1">
    <path
       style="fill:#242424;fill-opacity:1;stroke:#242424;stroke-width:19.9261;stroke-opacity:0"
       id="path260"
       d="m 113.89592,175.75266 c 1.61328,0.45301 3.17262,1.05902 4.83978,1.35907 4.19403,0.75487 18.98511,2.14517 21.90245,2.34654 16.60746,1.14631 33.32724,1.07144 49.97807,1.25469 11.86251,-0.14146 21.75022,-0.21193 33.57518,-0.53491 2.97133,-0.081 5.9368,-0.27401 8.90792,-0.36039 4.76251,-0.13844 9.52844,-0.18969 14.29157,-0.31394 8.91524,-0.23257 14.30624,-0.45146 23.02343,-0.7717 5.3153,-0.19642 10.63509,0.0349 15.95102,-0.0528 1.70929,-0.0283 3.41977,-0.0853 5.12219,-0.21208 0.96305,-0.0716 2.02041,0.002 2.86261,-0.38172 0.32373,-0.14752 -0.007,-0.60146 -0.0515,-0.89923 -0.33243,-2.16333 -0.7218,-4.32069 -1.0827,-6.48103 -0.25484,-0.50459 -0.14362,-1.29964 -0.76455,-1.51374 -0.81901,-0.2825 -9.23886,-0.2438 -9.52111,-0.24224 -4.42658,0.0243 -8.85106,0.19342 -13.27775,0.20038 -2.83787,0.004 -5.6753,-0.0589 -8.51293,-0.0882 -3.37491,-0.0825 -6.75007,-0.15857 -10.12474,-0.24764 -3.91014,-0.10313 -7.81776,-0.28435 -11.72959,-0.32896 -7.52262,-0.0857 -15.64563,0.11062 -23.17152,0.35401 -10.61222,0.3432 -7.1659,0.0343 -14.09779,0.87205 -2.45574,0.21468 -4.91147,0.42934 -7.36721,0.64404 -3.46911,0.16731 -6.94771,0.23604 -10.40734,0.50226 -1.14902,0.0884 -6.3166,0.90748 -7.80527,1.23692 -2.0392,0.45127 -2.66076,0.75788 -4.50422,1.45533 -2.51609,1.43593 -5.44586,2.07903 -8.43421,2.53521 -3.45693,0.26228 -6.87342,0.78152 -10.21686,1.53252 -0.3433,0.11957 -1.90964,0.59983 -1.87197,0.94784 0.30791,2.84519 0.50475,5.83441 2.03675,8.40888 0.57561,0.96731 2.38312,1.02987 3.69204,1.2182 3.15165,0.45345 6.38162,0.4233 9.56593,0.68934 0.67163,0.0561 1.33093,0.18441 1.9964,0.27664 1.96216,-0.0181 3.9251,-0.006 5.88647,-0.0538 4.9526,-0.1233 5.06024,-0.37089 9.91782,-0.23212 1.77536,0.0506 3.54379,0.20612 5.31635,0.30102 6.76521,0.36224 5.48295,0.28506 12.50194,0.54708 2.32237,0.0563 4.64368,0.16392 6.96706,0.16926 6.93269,0.016 10.39468,0.0577 16.59564,-0.53028 2.43151,-0.23054 4.81514,-0.74889 7.25207,-0.93829 1.02123,-0.0793 2.05144,-0.0379 3.07715,-0.0567 7.08965,0.46989 0.70106,-0.0228 9.80731,0.97054 2.72528,0.29727 5.46228,0.52239 8.18644,0.8264 1.43567,0.16017 2.84634,0.47244 4.291,0.5661 7.52298,0.48768 11.16683,0.31706 18.62721,0.24329 5.79654,-0.22981 11.62831,-0.57092 17.29621,-1.64027 0.7747,-0.14609 1.5474,-0.31206 2.29039,-0.54154 0.3541,-0.10943 0.98362,-0.16196 0.9785,-0.46805 -0.0492,-2.9409 -0.75564,-5.85064 -1.13345,-8.77597 -0.25463,-0.11549 -0.48257,-0.28302 -0.76386,-0.34636 -1.33913,-0.30142 -4.96616,-0.40353 -5.71521,-0.43446 -1.91541,-0.0791 -3.83201,-0.13898 -5.74864,-0.19537 -7.72132,-0.22729 -10.59405,-0.26378 -18.72441,-0.42758 -19.6607,-0.21106 -39.53884,0.44849 -58.66769,4.42778 -1.78522,0.37135 -3.52321,0.87742 -5.28482,1.31615 -0.93622,0.33463 -2.50019,0.21591 -2.80865,1.00394 -0.23141,0.59125 1.54034,0.2667 2.1742,0.61704 0.16717,0.0924 -0.2491,0.28631 -0.24374,0.44993 0.0951,2.88926 0.26323,5.77831 0.54336,8.65971 0.009,0.0846 0.29461,-0.019 0.28842,-0.10408 -0.21204,-2.90214 -0.62036,-5.79277 -0.93054,-8.68917 -3.74667,-1.32272 -7.6314,-1.11471 -11.6858,-1.1764 -3.04694,-0.0463 -6.06334,0.13078 -9.09793,0.31366 -2.15569,0.14075 -2.9929,0.24228 -5.30118,0.15537 -1.3724,-0.0517 -2.73358,-0.25695 -4.10723,-0.27847 -5.50807,-0.0863 -10.5929,0.61372 -15.96829,1.43226 -6.50515,1.63347 -13.34997,2.59541 -19.46934,5.1176 -0.70404,0.29017 -1.36136,0.64885 -2.04202,0.9733 -0.51493,0.32843 -1.07651,0.61413 -1.54475,0.98532 -2.02926,1.60865 -3.17196,4.09638 -1.88437,6.5496 0.84127,1.60286 3.25035,2.3358 5.14709,3.1644 0.68123,0.29758 7.78467,1.15889 7.95883,1.18156 14.96099,1.35012 29.94268,2.56843 44.95129,3.5223 2.66664,0.10979 5.33123,0.26011 7.99996,0.32913 2.42415,0.0627 4.85065,0.0317 7.27567,0.0661 10.52691,0.14877 21.03704,0.22005 31.56686,0.10765 2.12905,-0.0646 4.26091,-0.0845 6.38717,-0.19373 4.15706,-0.21346 5.80942,-0.45384 9.74747,-0.90554 1.13558,-0.13024 2.27245,-0.25361 3.40647,-0.39251 0.86044,-0.10551 1.70865,-0.28899 2.57662,-0.34028 0.91301,-0.0539 1.8308,0.0181 2.74618,0.0257 1.25855,0.11655 2.53387,0.14735 3.77566,0.3496 0.39206,0.0639 0.67157,0.40532 1.06932,0.43936 1.66486,0.14273 3.34746,0.0955 5.02164,0.0821 3.90856,-0.0308 7.77884,-0.31471 11.6423,-0.76044 0.71714,-0.10634 1.43579,-0.20643 2.15141,-0.31927 0.72824,-0.11478 1.4428,-0.29753 2.18064,-0.36087 0.63357,-0.0543 1.28519,0.17426 1.86632,-0.0261 -1.7268,-1.59529 -1.73452,-1.49529 -2.40791,-5.42406 -0.1167,-0.68134 1.17343,-1.35636 0.77796,-1.96566 -0.33641,-0.51827 -1.44057,-0.20128 -2.16449,-0.17069 -1.49328,0.0634 -2.96811,0.29602 -4.45103,0.45124 -1.94693,0.20381 -3.89232,0.41722 -5.83848,0.62582 -2.30763,0.27798 -4.61534,0.5557 -6.92293,0.83399 -8.22962,0.99251 -7.29125,0.96843 -15.75261,1.62502 -5.48773,0.42584 -10.99655,0.66066 -16.48403,1.08869 -2.3684,0.18474 -4.72625,0.4488 -7.08933,0.67321 -2.99551,0.86127 -6.43874,0.38444 -9.45747,1.22355 -0.24334,0.0677 0.87818,0.31741 0.6272,0.36334 -0.9066,0.1657 -1.85895,0.0229 -2.78847,0.0321 -2.9722,0.0286 -1.90515,0.0274 -4.77613,-0.0161 -3.54189,0.26871 -7.03859,-0.21219 -10.55406,-0.4636 -0.71073,-0.0467 -1.42654,-0.0574 -2.13221,-0.14005 -1.0247,-0.12008 -6.48997,-1.09194 -6.76599,-1.13164 -1.82794,-0.26301 -3.66377,-0.49561 -5.50724,-0.67467 -6.57877,-0.63899 -6.23432,-0.48638 -12.80169,-0.51018 -12.95899,0.37274 0.7738,-0.11561 -10.51724,0.53409 -2.48277,0.1429 -4.97614,0.15857 -7.4557,0.33418 -1.54198,0.10919 -3.06826,0.50993 -4.59881,0.69015 -0.57118,0.0674 -1.14999,0.0821 -1.72502,0.12329 -0.69676,-0.0358 -1.39622,-0.0465 -2.09038,-0.10741 -1.04288,-0.0916 -2.07295,-0.26852 -3.11726,-0.34902 -3.21504,-0.24775 -6.33138,-0.14183 -9.53364,0.10634 -0.94129,0.19525 2.47991,10.93918 3.42116,10.74392 v 0 c 3.24776,0.2368 6.41632,0.36203 9.67267,0.0734 0.99183,-0.0878 1.96633,-0.27751 2.95543,-0.38338 0.68424,-0.0732 1.37466,-0.10242 2.06196,-0.15358 2.48855,0.0987 1.1306,-0.006 3.80124,0.32598 0.93215,0.11549 1.8962,0.11834 2.79708,0.34348 0.13423,0.0335 -0.24864,0.30411 -0.1114,0.3278 2.20317,0.38032 7.95824,0.59317 9.92248,0.69278 2.06387,0.0574 4.12653,0.17847 6.19157,0.17193 7.27319,-0.0226 14.45827,-0.96261 21.71775,-1.06616 3.46835,0.0695 6.94311,0.18066 10.36027,0.70728 2.5625,0.24034 5.10914,0.579 7.67601,0.78918 2.35582,0.1929 4.72024,0.31663 7.07309,0.532 12.17392,1.11427 -4.0278,0.016 10.98105,0.92679 2.58334,0.007 5.1687,0.10337 7.75003,0.0212 2.9065,-0.0924 5.8062,-0.30813 8.70011,-0.54512 10.97397,-0.89871 21.83157,-2.67713 32.20955,-5.73598 4.56629,-1.58788 5.47797,-1.71902 9.34389,-3.64274 0.91827,-0.45695 1.89037,-0.87856 2.65743,-1.49076 1.01376,-0.80906 2.50326,-1.57884 2.62512,-2.72528 0.46559,-4.38061 -0.38949,-4.59963 -2.905,-6.12681 -2.53577,-0.90867 -5.40624,-1.07965 -8.07152,-1.67295 -9.42807,-1.24628 -19.06156,-0.98197 -28.51575,-0.005 -0.94308,0.0197 -1.88681,0.0939 -2.82923,0.0596 -0.94871,-0.0347 -1.88513,-0.18791 -2.82977,-0.26673 -1.2172,-0.10158 -2.43665,-0.18446 -3.65521,-0.27437 -4.07822,-0.30087 -5.92756,-0.47523 -10.18288,-0.55951 -2.12519,-0.0421 -4.25166,-0.007 -6.3775,-0.0107 -7.2513,0.0707 -14.52854,0.19842 -21.76712,-0.26371 -2.27486,-0.14522 -4.53539,-0.41126 -6.80492,-0.60306 -2.56033,-0.21637 -5.12299,-0.41432 -7.68447,-0.62151 -15.59235,-1.19787 -31.2907,-2.43937 -46.94326,-1.12024 -1.66425,0.15661 -3.3383,0.256 -4.99278,0.46968 -1.05408,0.13631 -2.71088,-0.21706 -3.12125,0.57829 -0.49765,0.96455 1.25849,1.90974 1.29872,2.95407 0.0636,1.65195 -0.66442,3.26174 -0.99643,4.89263 -0.0308,0.15162 -0.25456,0.37466 -0.0923,0.45484 0.27694,0.13684 0.64912,-0.0125 0.97368,-0.0194 2.79186,-0.29555 5.55963,-0.68793 8.3109,-1.17698 4.14352,-0.73649 8.23534,-1.71853 12.48775,-1.99006 4.74236,-0.56182 9.46382,-1.2163 14.17861,-1.91393 1.76846,-0.26168 4.25014,-0.7954 6.17039,-0.82775 0.78125,-0.0125 1.55864,0.092 2.33797,0.13807 3.06001,0.16534 6.20296,0.44049 9.27099,0.27978 0.079,-0.004 -0.14841,-0.16677 -0.0719,-0.1826 6.2099,-1.28043 0.595,0.31363 4.89228,-0.98323 -0.0124,-2.88591 0.007,-5.77203 -0.0368,-8.65775 -4.6e-4,-0.0311 -0.094,-0.0853 -0.0948,-0.0542 -0.0561,2.90846 -0.22068,5.81987 -0.0726,8.72626 0.0106,0.22124 0.2765,0.44547 0.54255,0.49955 1.68205,0.34193 3.42666,0.43706 5.13998,0.65561 1.25301,0.258 2.50604,0.516 3.75909,0.77399 2.08338,0.24028 4.15504,0.56029 6.25017,0.72087 19.89537,1.52498 39.80512,-0.4822 59.40081,-3.20957 3.36809,-0.55416 6.75565,-1.03627 10.10428,-1.6625 3.13785,-0.58679 9.06236,-1.97025 12.47942,-2.83812 0.96968,-0.24629 1.91612,-0.55027 2.88826,-0.79009 0.63118,-0.15573 1.29132,-0.22935 1.9183,-0.39572 0.50976,-0.13542 0.98825,-0.33781 1.48238,-0.50671 -0.13689,-2.9636 -0.1082,-5.9352 -0.41061,-8.8908 -0.0499,-0.48814 -1.83396,-0.95192 -2.40013,-1.10263 -5.15079,-1.37092 -10.58106,-1.87474 -15.94492,-2.34257 -2.9739,-0.14735 -5.9435,-0.37175 -8.92174,-0.44212 -5.49334,-0.12971 -19.54517,0.10741 -23.93003,0.34332 -4.82244,0.25955 -8.49915,1.04871 -13.16853,1.55346 -1.23672,0.13381 -2.4853,0.1825 -3.72791,0.27374 -1.03919,-0.0107 -2.08171,0.036 -3.11756,-0.0322 -2.61646,-0.17194 -5.18933,-0.65589 -7.80035,-0.87543 -5.06814,-0.42615 -9.93281,-0.65568 -15.03719,-0.3315 -17.65759,0.52288 3.8667,-0.12525 -12.63911,0.40414 -1.78863,0.0574 -3.57658,0.16445 -5.36661,0.15714 -4.75301,-0.0194 -4.86227,-0.32792 -9.67784,-0.62797 -1.96487,-0.1224 -3.93612,-0.16534 -5.90418,-0.24822 -3.51376,0.0506 -7.04,-0.0917 -10.54128,0.15217 -0.64678,0.045 -1.14238,0.50184 -1.7414,0.70381 -1.28343,0.43275 -3.52436,0.11728 -3.89975,1.19822 -0.93112,2.68109 0.60871,5.55543 0.58726,8.33979 -0.002,0.25051 -0.67825,0.28384 -0.65561,0.53369 0.0177,0.19353 0.47487,0.0611 0.7123,0.0916 4.06344,-0.0457 8.17439,-0.39348 11.97948,-1.61092 1.78361,-0.53152 3.48554,-1.10461 5.18883,-1.7855 0.24104,-0.0964 1.86329,-0.79391 2.27698,-0.86409 0.13246,-0.0226 0.25629,0.0702 0.38442,0.10515 2.15914,0.37309 4.31584,0.59201 6.51014,0.80912 1.53762,0.15216 3.08855,0.22972 4.61455,0.44495 0.52044,0.0734 0.97754,0.3453 1.49828,0.41732 2.32422,0.32145 4.67422,0.50643 7.01134,0.75965 12.08798,0.45073 24.20973,1.09245 36.31848,0.95948 10.30468,-0.11311 13.4617,-0.3504 23.61448,-1.28587 3.31309,-0.30529 6.61371,-0.69293 9.92055,-1.03939 2.73645,-0.3239 5.46913,-0.66931 8.20936,-0.97164 7.94727,-0.87684 5.61073,-0.42486 13.09877,-1.51948 2.49279,-0.3644 6.97257,-0.98694 9.42098,-1.92692 1.56658,-0.60141 2.9489,-1.4754 4.42335,-2.21313 0.0698,-2.45152 0.66525,-4.93023 0.20893,-7.35459 -0.22238,-1.18144 -3.89225,-2.95134 -4.82541,-3.29933 -6.58419,-2.4552 -13.97313,-2.83869 -20.97347,-4.00552 -8.80441,-1.02687 -13.46986,-1.67329 -22.61186,-2.26713 -13.03464,-0.84669 -22.84046,-0.81149 -36.40834,-1.0291 -5.54913,-0.0889 -11.09776,-0.20914 -16.64772,-0.25101 -5.79989,-0.0436 -11.60029,-0.004 -17.40042,-0.006 -16.36066,0.49807 -32.81021,0.75566 -49.04392,2.65792 -4.44865,0.52127 -14.80502,2.15134 -19.82648,3.44799 -1.55239,0.40086 -2.9928,1.04301 -4.48917,1.5645 -0.80261,0.2204 3.05912,9.38158 3.86173,9.16119 z" />
    <path
       style="fill:#242424;fill-opacity:1;stroke:#242424;stroke-width:10;stroke-opacity:0"
       id="path1213"
       d="m 182.66189,275.93914 c 16.039,0 32.07799,0 48.11699,0 2.71781,0 5.43561,0 8.15342,0 2.30727,0 4.61466,0.0223 6.92183,0 6.06199,-0.0586 12.12088,-0.32402 18.17223,-0.67282 2.80582,-0.21728 4.65913,0.26147 3.74411,-4.76155 -0.16402,-0.90042 -4.00693,-0.5638 -4.6272,-0.52409 -0.51543,0.0679 -1.03319,0.11988 -1.54629,0.20357 -1.41432,0.2307 -1.82229,0.3841 -3.21576,0.63875 -0.7097,0.12969 -3.31843,0.52378 -3.8377,0.58574 -0.9805,0.11699 -1.96525,0.19516 -2.94787,0.29273 -9.38596,0.70914 -18.79083,1.12758 -28.17862,1.81277 -2.6566,0.1449 -5.276,0.62581 -7.91624,0.91543 -1.44282,0.15827 -1.77001,0.15708 -3.22912,0.23936 -2.03172,0.11738 -4.0633,0.0274 -6.09302,-0.0671 -0.9276,-0.0613 -1.79026,-0.40693 -2.67936,-0.64001 -0.30838,-0.0808 -0.62028,-0.14757 -0.93042,-0.22135 -3.23974,-0.58676 -6.55733,-0.54713 -9.83867,-0.53151 -1.26118,-0.0184 -2.51672,0.0526 -3.64546,0.65414 -0.14299,0.0292 0.27182,-0.12564 0.19512,-0.12234 -0.11838,0.005 -0.23299,0.0435 -0.35,0.0622 -0.4857,0.0776 -0.9705,0.15817 -1.4555,0.24071 -0.8245,0.10601 -1.63987,0.27378 -2.47065,0.32623 -0.68082,0.002 -1.2785,-0.28088 0.11766,5.00491 0.10332,0.39115 0.80833,0.0368 1.21268,0.0501 0.704,0.0232 1.40819,0.0398 2.11229,0.0596 8.23873,0.16395 16.47977,0.15485 24.71977,0.15155 1.92663,-0.002 3.85326,-0.004 5.77988,-0.007 7.20197,-0.009 14.39907,-0.0503 21.59858,-0.26566 4.81922,-0.14417 9.99613,-0.37775 14.82259,-0.58235 4.71486,-0.19527 9.42746,-0.44945 14.14379,-0.60959 1.78081,-0.0605 3.55797,-0.079 5.33575,-0.19942 1.52172,-0.22213 2.85337,-0.24357 2.57699,-3.41977 -0.0844,-0.97043 -1.50482,-1.26048 -2.36704,-1.71371 -0.27207,-0.14302 -0.61465,-0.02 -0.92199,-0.0152 -0.3053,0.005 -1.10061,0.0694 -1.41333,0.093 -1.59767,0.17795 -3.16635,0.54156 -4.72924,0.90738 -1.25718,0.27618 -2.43767,0.86439 -3.71597,1.04837 -0.76024,0.10941 -1.1988,0.083 -2.03637,0.1004 -5.74221,0.0699 -11.47613,-0.22184 -17.19715,-0.68637 -1.97543,-0.0852 -3.91158,-0.51228 -5.87424,-0.70836 -2.64173,-0.26391 -3.7251,-0.26504 -6.58062,-0.39299 -7.65985,-0.28214 -15.32237,-0.48188 -22.98226,-0.76537 -1.80125,-0.0941 -3.60438,0.0877 -5.3985,0.22412 -5.25208,0.45897 -10.52172,0.95993 -15.70211,1.96562 -2.07762,0.5584 -3.72237,0.93294 -3.25509,4.05113 0.0977,0.65191 0.95333,0.91065 1.42999,1.36598 0.32457,0.14019 2.30724,-4.44991 1.98267,-4.5901 v 0 c 0.39578,0.42151 1.13893,0.68836 1.18734,1.26453 0.0842,1.00209 -0.46417,1.96454 -0.83759,2.89826 -0.0556,0.13907 -0.27197,0.12644 -0.40188,0.20099 -0.27852,0.15985 2.28436,-1.12893 0.91668,-0.29638 2.06085,-0.40163 4.12886,-0.69057 6.21231,-0.95466 2.96607,-0.37598 5.93798,-0.71129 8.92065,-0.92593 1.55589,-0.11788 3.12153,-0.28866 4.68378,-0.21042 7.64833,0.28372 15.29927,0.48373 22.94764,0.76344 2.50745,0.10856 3.8231,0.12282 6.16951,0.35148 2.03921,0.19872 4.04997,0.65046 6.10233,0.73562 5.95662,0.48496 11.92748,0.78906 17.90627,0.70413 1.28331,-0.0487 1.73753,-0.0121 2.89974,-0.21607 1.31116,-0.23011 2.54607,-0.73067 3.8274,-1.07468 1.31449,-0.30756 2.63298,-0.61585 3.97453,-0.78039 0.36768,-0.0275 0.73652,-0.0401 1.10361,-0.0747 0.038,-0.004 0.13743,-4.3e-4 0.11106,-0.0281 -0.54192,-0.56773 -1.74023,-0.84918 -1.69642,-1.63281 0.16433,-2.93926 3.3136,-3.45913 1.74363,-3.17136 -1.7293,0.11783 -3.46052,0.13039 -5.19269,0.18961 -4.72208,0.16143 -9.4405,0.41477 -14.16114,0.61056 -4.79965,0.20321 -9.93549,0.43479 -14.72877,0.57782 -7.1629,0.21373 -14.32344,0.25363 -21.48877,0.2626 -1.92539,0.002 -3.85077,0.005 -5.77615,0.007 -8.14097,0.004 -16.28292,0.0116 -24.42269,-0.14752 -0.68209,-0.0188 -1.36429,-0.0341 -2.04629,-0.0563 -0.40011,-0.013 -1.03496,-0.41414 -1.19997,-0.0494 -2.17792,4.81406 -2.37741,5.05694 0.0308,4.96665 0.98592,-0.0793 1.95909,-0.24685 2.93708,-0.39002 1.04167,-0.17819 2.12562,-0.2682 3.09654,-0.70863 0.29082,-0.15433 -0.19524,0.0522 -0.25188,0.0559 -0.041,0.003 0.0781,-0.0272 0.11883,-0.0325 0.55474,-0.0716 0.86545,-0.054 1.48714,-0.0671 2.84693,-0.017 5.72143,-0.0504 8.54111,0.38826 1.49887,0.33319 2.94321,0.91753 4.49423,0.9962 2.25431,0.10461 4.51084,0.1977 6.76703,0.0632 1.66048,-0.0992 1.92694,-0.0936 3.56536,-0.27548 2.55197,-0.28331 5.08462,-0.7429 7.65252,-0.88515 9.43326,-0.68707 18.88396,-1.10295 28.3145,-1.8266 1.05634,-0.10777 2.11486,-0.19593 3.16902,-0.32331 0.76253,-0.0922 3.23629,-0.47743 4.1125,-0.63794 0.93309,-0.17094 1.94048,-0.41959 2.87949,-0.57704 0.4034,-0.0676 0.81055,-0.11048 1.21583,-0.16573 0.37014,-0.0252 0.73993,-0.0564 1.11044,-0.0756 0.21279,-0.0111 0.65758,0.19708 0.63905,-0.0152 -0.0244,-0.27963 -0.71626,-0.21334 -0.68332,-0.49209 0.69108,-5.84864 2.79164,-4.42205 0.76713,-4.22782 -0.57102,0.0548 -1.14422,0.0839 -1.71634,0.12582 -5.95669,0.34226 -11.92088,0.60339 -17.88799,0.66026 -2.30717,0.022 -4.61455,0 -6.92183,0 -2.7178,0 -5.43561,0 -8.15341,0 -16.039,0 -32.078,0 -48.117,0 -0.35351,0.006 -0.27497,5.00494 0.0785,4.99938 z" />
    <path
       style="fill:#242424;fill-opacity:1;stroke:none;stroke-width:10.6576;stroke-opacity:0"
       id="path1215"
       d="m 147.2141,313.18425 -0.19205,3.33177 c 7.25531,-0.11392 14.49245,-0.60793 21.73022,-1.0286 7.85044,-0.44209 15.48051,2.3703 23.09583,1.92731 4.1693,-0.25686 8.33733,-0.52949 12.50447,-0.81205 1.70875,-0.11587 5.64083,-4.69401 7.35156,-4.78452 0.16114,-0.006 0.63536,0.0305 0.48343,-0.0171 -6.65314,-0.12153 -40.79241,1.89643 -60.01711,2.92446 -1.28953,9.4e-4 -2.57904,-0.006 -3.86856,-0.009 -1.2575,-0.003 13.03605,-3.33477 11.77853,-3.33577 -1.19821,-2.3e-4 -2.39642,-1.3e-4 -3.59463,-10e-5 -1.2741,3e-5 -2.5482,4e-5 -3.8223,5e-5 -1.03984,1e-5 -2.07967,1e-5 -3.11951,1e-5 -0.51963,0 -1.03926,-1e-5 -1.55887,-1e-5 -2.08385,2.1e-4 -0.49761,-0.0699 -0.11461,5 0.006,0.0813 0.18501,0 0.27751,0 h 0.92933 7.32324 l -2.0601,3.33177 h 6.73157 c 2.16531,0.003 4.32999,0.007 6.49481,-0.035 4.65256,-0.0949 20.80129,2.40173 25.45307,2.27955 2.01393,-0.0503 4.02774,-0.10941 6.0423,-0.13608 0.79493,-0.009 1.58872,0.007 2.38214,-0.0386 0.74586,-0.0348 1.47144,-0.18823 2.20348,-0.30437 0.66112,-0.0474 1.32284,-0.0708 1.98366,-0.12927 0.56421,-0.0601 3.35534,-4.54096 3.9225,-4.56968 0.0563,-0.003 0.22465,7e-5 0.16919,-0.009 -2.79876,-0.47803 -3.92718,4.92715 -3.69844,-0.23799 0.007,-0.14275 2.52552,-4.55117 2.67542,-4.60587 0.008,-0.003 0.0325,-0.0123 0.0237,-0.0109 -0.12749,0.0215 -2.47881,4.49096 -2.60578,4.51466 -0.74268,0.13999 -1.42545,0.45857 -2.16508,0.59967 -0.14815,0.028 -0.29472,0.0636 -0.44444,0.0841 -0.95123,0.13025 -1.92662,0.17272 -2.88385,0.25351 -0.81648,0.0689 -1.63226,0.14409 -2.44848,0.21518 -1.94342,0.22025 -3.89628,0.36064 -5.84609,0.52697 -2.12561,0.1335 -15.74789,-2.3289 -17.87196,-2.17522 -2.49456,0.20311 -4.9713,0.52007 -7.46903,0.69634 -1.72689,0.14195 -3.45403,0.28082 -5.18694,0.34923 -0.92181,0.0335 -1.84452,0.0359 -2.76695,0.0365 l -2.85113,-0.003 c -1.63447,-9.6e-4 -3.26892,-7.7e-4 -4.90339,-8.1e-4 -4.25871,-0.49637 7.75436,-3.41907 3.85692,-3.5035 -2.3492,-0.0531 -4.69872,-0.093 -7.04861,-0.11073 -0.51321,-0.003 -1.02643,-0.005 -1.53966,-0.006 -0.15477,-1.9e-4 -0.31214,-0.0248 -0.46432,5e-5 -0.38792,0.0634 -0.77166,0.14505 -1.1575,0.21758 0.0174,1.54541 -0.25624,3.11478 0.0521,4.63622 0.058,0.28605 0.62528,0.18671 0.94202,0.26835 1.93725,0.49931 3.94219,0.80961 5.91476,1.17766 2.63653,0.51974 5.32167,0.79423 8.00404,1.05099 1.50512,0.16515 -12.52799,3.49169 -11.01701,3.57347 2.10962,0.1694 4.22727,0.10833 6.34126,0.0621 1.94537,-0.004 3.859,-0.27663 5.77042,-0.55992 1.52136,-0.30899 3.06811,-0.4963 4.61068,-0.70494 1.40057,-0.16503 2.78543,-0.41389 4.17086,-0.6551 2.06896,-0.30968 15.66803,2.19938 17.76128,2.11759 1.93626,-0.066 3.87398,-0.0868 5.81152,-0.0946 0.78308,-0.002 1.56616,7.5e-4 2.34924,0.002 0.81519,10e-4 1.63038,10e-4 2.44558,0.002 0.89224,-0.0444 1.77974,-0.12546 2.67308,-0.15512 0.48253,-0.013 0.96523,-0.0211 1.44795,-0.0262 0.15031,-0.002 0.52082,-0.0407 0.69105,0.0348 0.73576,0.13871 1.47237,0.26981 2.21651,0.3684 0.53825,0.0666 3.30449,-4.33506 3.84646,-4.30124 4.00608,0.24586 0.39494,-4.9879 0.39494,-4.9879 v 0 c 0,0 -3.0195,4.38946 -3.41451,4.34243 -0.71068,-0.0888 -1.40871,-0.23547 -2.11344,-0.3542 -1.09306,-0.13497 -2.1871,-0.11272 -3.28862,-0.0723 -0.81935,0.0285 -1.63636,0.0777 -2.45215,0.15138 -0.81222,-1.6e-4 -1.62444,-4.1e-4 -2.43667,-0.002 -0.79513,-10e-4 -1.59028,-0.004 -2.38543,-0.002 -2.01328,0.008 -4.02675,0.0302 -6.03869,0.0995 -2.37827,0.0939 -16.26321,-2.39624 -18.61101,-2.02737 -1.30554,0.22783 -2.61041,0.46353 -3.93053,0.61792 -1.56887,0.21231 -3.14332,0.40317 -4.69087,0.71631 -1.64695,0.24409 -3.2913,0.49667 -4.96895,0.49209 -1.956,0.0429 -3.91517,0.10626 -5.86702,-0.055 -1.4182,-0.0707 12.70971,-3.40667 11.29683,-3.55288 -2.49286,-0.23773 -4.98931,-0.48756 -7.43935,-0.97154 -1.53218,-0.28588 -3.07214,-0.55079 -4.59444,-0.87611 -0.30987,-0.0662 -0.61465,-0.15025 -0.92502,-0.21465 -0.0465,-0.01 -0.13932,-0.0488 -0.14282,-0.007 -0.12575,1.50425 -0.15631,3.01349 -0.23446,4.52023 -0.3418,0.0563 -0.68601,0.10234 -1.0254,0.16899 -0.0539,0.0106 0.11052,-1.7e-4 0.16581,-1.8e-4 0.59427,-7e-5 1.18852,0.002 1.78276,0.006 2.31952,0.0174 4.6387,0.057 6.95755,0.10939 3.94395,0.0854 -7.66303,3.5358 -3.71735,3.50502 1.63292,4e-5 3.26584,-1.5e-4 4.89876,8.1e-4 0.95322,7e-4 1.90643,0.002 2.85964,0.003 1.00682,-6.1e-4 2.01393,-0.004 3.02003,-0.0416 1.79925,-0.0723 3.59309,-0.21059 5.386,-0.36025 2.50074,-0.17806 16.47817,2.10556 18.97479,1.89395 2.15165,-0.15568 4.3052,-0.28371 6.45813,-0.42226 1.95359,-0.16672 3.91032,-0.30695 5.85744,-0.52794 0.80159,-0.0698 1.60273,-0.14379 2.40455,-0.21151 1.19392,-0.10084 2.39618,-0.17165 3.58019,-0.348 0.21035,-0.0313 0.41664,-0.081 0.62497,-0.12151 0.67492,-0.158 3.57191,-4.79593 4.22386,-5.00869 0.21817,-0.0489 1.21593,-0.16836 1.23467,-0.31419 0.37372,-2.908 1.43224,-4.93411 -1.57592,-4.76654 -0.64967,0.0329 -3.52324,4.51956 -4.16966,4.58697 -0.81007,0.0733 -1.62641,0.0686 -2.43142,0.18522 -0.54792,0.089 -1.08807,0.21232 -1.64644,0.2396 -0.60678,0.10091 -1.38251,-0.049 -2.00377,0.0224 -2.04244,0.0273 -4.0841,0.0864 -6.12587,0.13773 -4.6383,0.12183 -20.77354,-2.37507 -25.41261,-2.28048 -2.12181,0.0432 -4.2436,0.0356 -6.36592,0.0337 h -6.73157 l 2.0601,-3.33177 h -7.32324 -0.92933 c -0.0924,0 -0.27137,-0.0813 -0.27751,0 -0.383,5.06991 -1.96925,4.9998 0.1146,5 0.51962,0 1.03925,1e-5 1.55888,1e-5 1.03985,0 2.0797,0 3.11956,-1e-5 1.27412,-10e-6 2.54825,-2e-5 3.82238,-5e-5 1.19745,-3e-5 2.39491,-1.3e-4 3.59235,1e-4 1.2529,4.2e-4 -13.04528,3.33277 -11.79238,3.33577 1.30895,0.003 2.6179,0.0101 3.92686,0.009 1.56104,-0.0106 3.12479,-0.0497 4.67365,-0.23658 2.91625,-0.3864 5.79904,-0.93996 8.69343,-1.43331 0.9969,-0.18067 1.99586,-0.35268 2.99083,-0.54141 1.41605,-0.26862 2.81697,-0.61047 4.2571,-0.77107 3.77303,-0.46598 19.06907,1.84719 22.85118,1.44593 3.97718,-0.39291 10.17674,-5.2401 14.11359,-5.88597 0,0 1.92312,-0.28402 2.31576,-0.35976 0.29216,-0.0564 0.0794,-0.14261 0.86726,-0.20265 -5.69262,0.18994 -92.07976,-0.0871 -65.76145,1.44367 z"
       inkscape:export-filename="path1215.svg"
       inkscape:export-xdpi="96"
       inkscape:export-ydpi="96"
       sodipodi:nodetypes="ccccscccccsssccscccccccccccccccccsscccccccccccscssccccccccccccccccssccccccccccccccscccssccccccccccssccsccccccsccccscsssscccccscccsccc" />
    <path
       style="fill:#000000;fill-opacity:1;stroke:none;stroke-width:10.3812;stroke-opacity:0"
       id="path1384"
       d="m 138.52918,336.50816 c 1.09977,0.0813 1.44154,0.11392 2.73664,0.15806 4.49973,0.15334 9.00761,0.1166 13.50947,0.13546 4.51537,0.003 9.02886,0.12128 13.54399,0.15188 7.27889,0.0358 14.5574,0.10534 21.83643,0.10524 3.66047,0.0261 7.31884,-0.0872 10.97784,-0.15285 2.96886,-6.8e-4 5.93731,-0.0103 8.90561,-0.0658 1.97983,-0.0366 3.95863,-0.10494 5.93719,-0.17834 1.40312,-0.0527 2.80616,-0.10752 4.2092,-0.16207 2.6116,-0.10494 0.97657,0.25983 0.14438,-4.95652 -0.35222,0.081 -0.69219,0.19279 -1.04242,0.28008 -0.74295,0.15855 -1.52318,0.12284 -2.28014,0.12458 -1.57869,-0.037 -3.15736,-0.075 -4.73078,-0.20351 -2.14429,-0.23397 -4.30439,-0.24462 -6.46008,-0.22948 -3.1258,0.004 -6.25122,0.0212 -9.37644,0.0785 -3.13903,0.0658 -6.277,0.16733 -9.41449,0.27797 -1.20063,0.0429 -2.40108,0.0899 -3.60153,0.13681 -1.63863,0.0458 -3.27264,0.16917 -4.90788,0.27167 -2.67689,0.1787 -5.34562,0.44559 -8.01457,0.70424 -1.9488,0.24072 -3.91353,0.22751 -5.87439,0.18965 -2.82381,-0.0512 -5.64654,-0.19092 -8.46203,-0.39767 -1.51003,-0.11371 -3.01967,-0.23242 -4.52997,-0.34418 -0.6556,-0.0422 -1.31087,-0.0864 -1.96633,-0.12984 -0.49954,-0.0146 -0.99751,-0.0507 -1.49701,-0.0675 -1.11825,-0.0136 -2.23627,0.0409 -3.35342,0.0808 -1.0011,0.0165 -1.99785,0.0951 -2.99401,0.18212 -0.61262,0.0593 -1.2244,0.13142 -1.83487,0.20798 -0.61969,0.0838 -1.24313,0.13644 -1.86091,0.23212 -0.46336,0.0592 -0.9138,0.15726 -1.35251,0.31012 -0.77922,0.30225 -1.55575,0.72071 -1.76231,1.65555 -0.17171,0.7772 0.13715,1.60553 0.45334,2.34263 0.19605,0.45697 0.94937,0.71212 1.40097,0.90051 0.40651,0.16303 0.8631,0.19895 1.26944,0.36128 0.34006,0.13635 0.67835,0.28567 1.02224,0.42026 0.63027,0.20888 1.27032,0.39485 1.91658,0.55594 0.89476,0.27691 1.81292,0.4593 2.73952,0.61614 1.7729,0.28443 3.57203,0.36025 5.36547,0.44506 1.07101,0.0585 2.13452,0.18768 3.20288,0.27442 1.99096,0.11284 3.97371,0.31418 5.95857,0.492 0.91987,0.0961 1.8412,0.17818 2.76668,0.20367 0.34265,0.006 0.68537,5e-4 1.0278,-0.0109 0.23367,-0.008 0.13837,-0.0143 0.26418,-0.002 0.84474,0.0316 1.69002,0.004 2.53453,-0.0191 1.24899,-0.0398 2.49779,-0.0849 3.74648,-0.13185 0.71267,-0.0293 1.42499,-0.0575 2.13833,-0.066 2.21859,0.0205 4.43659,0.0146 6.65482,-0.0271 2.29965,-0.0158 4.59894,-0.0579 6.89866,-0.0538 0.99461,0.003 1.98917,0.0169 2.98366,-5.3e-4 0.98329,-0.0253 1.96603,-0.0662 2.94885,-0.10383 1.40062,-0.0566 2.80192,-0.0992 4.20156,-0.17458 1.07871,-0.0473 2.15185,-0.1528 3.22388,-0.269 0.54487,-0.0595 1.09327,-0.0819 1.64093,-0.10643 0.56603,-0.039 1.13302,-0.0141 1.69976,-0.007 0.96786,0.004 1.93528,-0.0339 2.90231,-0.0668 0.96047,-0.0327 1.92058,-0.0665 2.87955,-0.1263 1.71114,-0.11642 3.41985,-0.26594 5.12437,-0.44762 0.67518,-0.0717 1.34955,-0.15215 2.0274,-0.19924 0.3426,-0.0211 0.68576,-0.0333 1.02885,-0.0454 0.38781,-0.0139 0.77558,-0.0287 1.16335,-0.0435 0.1805,-0.0129 0.34564,0.0154 0.57698,0.0306 -0.0483,-0.003 -0.0966,-0.009 -0.14491,-0.0108 -0.0114,-4.1e-4 0.0224,0.005 0.0337,0.007 0.0449,0.008 0.0898,0.0166 0.13504,0.0227 0.28723,0.0385 0.56981,0.0552 0.85949,0.0633 0.33912,0.0309 0.67965,0.0487 1.02015,0.06 0.20265,0.005 0.40544,0.005 0.60809,-5e-5 0.0368,-8.2e-4 0.14732,3.7e-4 0.11063,-0.003 -0.0407,-0.004 -0.0819,0.001 -0.12289,0.002 -2.08738,-0.12718 -1.85188,-1.6197 -2.04459,-3.85066 -0.0258,-0.29772 0.85921,-0.75848 1.16586,-0.87979 -0.77431,0.18609 -1.59698,0.20242 -2.39083,0.25804 -2.7803,0.19917 -5.55724,0.43623 -8.33332,0.68024 -2.00519,0.16461 -4.01331,0.2973 -6.02048,0.43989 -1.72257,0.10545 -3.44202,0.24717 -5.16202,0.38286 -2.18876,0.15161 -4.37353,0.34677 -6.55861,0.53756 -1.0801,0.093 -2.16073,0.18237 -3.24362,0.24254 -1.13961,0.0526 -2.27989,0.0922 -3.41993,0.13587 -1.45312,0.0466 -2.9032,0.14922 -4.3538,0.23825 -0.81377,0.0342 -1.62774,0.11043 -2.44282,0.10909 -1.29759,-0.0322 -2.5949,-0.0896 -3.89218,-0.13789 -1.29463,-0.031 -2.58799,-0.0952 -3.88291,-0.11655 -0.78595,-0.009 -1.56753,-0.0847 -2.35102,-0.13448 -0.49795,-0.0235 -0.98842,-0.0861 -1.47702,-0.17376 -0.91522,-0.12841 -1.84079,-0.13407 -2.76405,-0.12835 -0.99082,0.0143 -1.98123,0.0464 -2.97139,0.082 -1.50474,-0.004 -3.00909,0.0482 -4.51291,0.0917 -1.40658,0.0346 -2.81116,0.12698 -4.21277,0.23886 -2.5035,0.17346 -5.00949,0.31466 -7.5156,0.45137 -0.86859,0.049 -1.73813,0.0725 -2.6037,0.15788 -0.50473,0.0562 -1.01143,0.0935 -1.51871,0.12237 -0.2245,0.01 -0.44881,0.0252 -0.67348,0.0318 -0.0318,9.7e-4 -0.12728,8.6e-4 -0.0954,6.5e-4 0.0494,-0.001 0.0993,-0.009 0.14808,-0.002 0.19364,0.0281 0.38439,0.0713 0.57659,0.10691 0.4112,0.27951 1.09055,0.38454 1.23358,0.83851 0.52031,1.65145 0.59871,2.97106 -0.92326,3.6741 -0.32924,0.0895 0.38763,-0.0515 0.43928,-0.0593 0.27285,-0.0374 0.54825,-0.0518 0.82336,-0.0658 0.55258,-0.0121 1.09566,0.0358 1.64056,0.11618 0.81499,0.15313 1.63153,0.29917 2.44451,0.46187 1.19476,0.29681 2.39353,0.39142 3.62235,0.47855 1.13384,0.0581 2.2602,0.1995 3.39306,0.26854 0.44163,0.0269 1.64778,0.0761 2.09468,0.0951 2.20663,0.0903 4.4123,0.1696 6.62111,0.18791 1.76467,-0.003 3.5293,-0.001 5.29377,-0.0279 1.69389,-0.0322 3.38694,-0.093 5.07982,-0.15434 1.30584,-0.048 2.61153,-0.0993 3.91725,-0.14972 1.76631,-0.0586 3.53103,-0.13427 5.2944,-0.24503 1.32624,-0.0944 2.64898,-0.22509 3.97411,-0.33099 0.4973,-0.0421 0.99609,-0.0637 1.49484,-0.0839 1.11723,0.0554 2.23581,0.0875 3.35364,0.13298 1.70214,0.0744 3.4057,0.0601 5.10846,0.0209 1.78173,-0.0722 3.56452,-0.0915 5.34765,-0.10097 1.14197,8.4e-4 2.28327,-0.0369 3.42427,-0.0763 1.70797,-0.049 3.4137,-0.13362 5.11842,-0.24099 0.71773,-0.0441 1.43482,-0.0973 2.15297,-0.13533 0.68424,-0.0322 1.36888,-0.0564 2.0534,-0.0826 0.98995,-0.0252 1.97905,-0.0967 2.96948,-0.10231 0.4492,0.0314 0.9018,0.0717 1.34609,0.14342 0.40066,0.0721 0.80788,0.0963 1.21274,0.13768 0.41942,0.047 0.84135,0.059 1.26336,0.0561 0.17659,-0.003 0.35314,-0.007 0.52964,-0.0133 0.0435,-10e-4 0.17408,-0.003 0.13055,-0.005 -0.0738,-0.003 -0.29451,-0.0105 -0.22166,0.001 0.0922,0.0146 0.1868,0.006 0.28018,0.008 -0.41141,-0.0203 -0.46202,-0.004 -0.9692,-0.1866 -0.16058,-0.0577 -0.29982,-0.15721 -0.44974,-0.23581 3.06091,2.1055 6.2699,-1.91118 3.20899,-4.01668 v 0 c -0.1872,-0.10425 -0.36037,-0.23414 -0.56159,-0.31276 -0.58669,-0.22925 -0.69149,-0.21032 -1.20968,-0.24812 0.0446,0.002 0.17886,0.009 0.13408,0.008 -0.30948,-0.006 -0.61699,-0.0167 -0.92632,10e-4 -0.20685,0.003 -0.41337,-0.002 -0.61888,-0.0264 -0.31911,-0.0326 -0.63991,-0.0484 -0.95552,-0.10558 -0.7437,-0.1059 -1.49387,-0.19343 -2.24684,-0.2053 -1.04632,0.0122 -2.09118,0.073 -3.13688,0.10632 -0.71354,0.0272 -1.42722,0.0526 -2.14047,0.0859 -0.73692,0.0393 -1.47286,0.0927 -2.20933,0.13858 -1.65006,0.10388 -3.30103,0.18587 -4.95428,0.23291 -1.0844,0.0375 -2.16909,0.074 -3.25443,0.073 -1.81775,0.01 -3.63523,0.0293 -5.45156,0.10246 -1.57951,0.0368 -3.15972,0.0516 -4.73867,-0.0177 -1.27455,-0.0515 -2.54995,-0.10629 -3.82501,-0.13293 -0.57446,0.023 -1.14888,0.049 -1.72164,0.0976 -1.29218,0.10349 -2.58217,0.22973 -3.87522,0.32393 -1.71668,0.10793 -3.4347,0.18037 -5.1542,0.23786 -1.30124,0.0502 -2.60246,0.10059 -3.90375,0.14922 -1.65235,0.0602 -3.3049,0.11946 -4.95823,0.15119 -1.71908,0.0264 -3.4383,0.0242 -5.15756,0.0274 -2.14258,-0.0172 -4.282,-0.0958 -6.42249,-0.18288 -0.20931,-0.009 -1.65037,-0.0687 -1.90689,-0.084 -1.14123,-0.0682 -2.27576,-0.21343 -3.41804,-0.27035 -0.98884,-0.0695 -1.93641,-0.13029 -2.89623,-0.3808 -0.92001,-0.18378 -1.84357,-0.35192 -2.76756,-0.51695 -0.9127,-0.12571 -1.82983,-0.19896 -2.75344,-0.16547 -0.47631,0.0252 -0.95277,0.0566 -1.42403,0.12856 -0.40824,0.0656 -0.81813,0.12798 -1.21631,0.23753 -0.50971,0.16263 -1.52387,0.50542 -1.65516,0.9698 -0.85743,3.03259 -0.59483,2.70605 1.20211,3.97449 0.2521,0.0556 0.50093,0.12608 0.75632,0.16681 0.47469,0.0757 0.96591,-0.0183 1.44195,-0.0191 0.58836,-0.0339 1.1761,-0.077 1.76159,-0.14147 0.7789,-0.0785 1.56302,-0.087 2.34446,-0.13795 2.5559,-0.13944 5.1117,-0.28337 7.66484,-0.46145 1.30243,-0.10578 2.60813,-0.18947 3.91524,-0.22257 1.51747,-0.044 3.03522,-0.0939 4.55363,-0.093 0.93413,-0.0337 1.86847,-0.0645 2.80324,-0.0783 0.38932,-0.003 0.77889,-0.008 1.16799,0.008 0.21562,0.009 0.31521,0.0211 0.53428,0.0407 0.004,1.9e-4 3.8e-4,-0.007 5.5e-4,-0.0111 0.70477,0.12597 1.41463,0.21358 2.13166,0.25274 0.87423,0.0548 1.74656,0.13745 2.6236,0.14527 1.25413,0.0196 2.50667,0.0851 3.76056,0.11329 1.38161,0.0513 2.76323,0.11547 4.14545,0.14179 0.92137,-0.01 1.84113,-0.07 2.76081,-0.11985 1.40521,-0.0862 2.80992,-0.18609 4.21758,-0.23144 1.17493,-0.0444 2.35013,-0.0849 3.52452,-0.14087 1.14325,-0.0642 2.28433,-0.15657 3.42463,-0.25549 2.16901,-0.18939 4.33767,-0.38322 6.51034,-0.53354 1.70494,-0.1345 3.40931,-0.27519 5.11681,-0.37948 2.03949,-0.1449 4.07991,-0.27975 6.11732,-0.44758 2.74362,-0.24117 5.48809,-0.47563 8.23588,-0.67251 1.20034,-0.0861 2.42466,-0.13942 3.58336,-0.46995 0.14474,-0.0485 0.29495,-0.0847 0.43422,-0.14551 0.30132,-0.13143 1.27905,-0.63923 1.26286,-0.95083 -0.13189,-2.53802 0.017,-3.76948 -2.18482,-3.94193 -0.21679,-0.004 -0.43296,-8.5e-4 -0.64971,-6.6e-4 -0.35804,-0.0101 -0.71446,-0.0441 -1.07212,-0.0614 -0.0266,2e-5 -0.0532,-9.7e-4 -0.0798,5e-5 -0.006,1.1e-4 -0.0245,-1e-5 -0.0187,0.002 0.0188,0.006 0.0788,0.0113 0.0587,0.0121 -0.19072,0.007 -0.42314,-0.14642 -0.60773,-0.0856 -0.38687,-0.0228 -0.77383,-0.0679 -1.16224,-0.038 -0.38623,0.0145 -0.77246,0.029 -1.1587,0.0433 -0.40828,0.015 -0.81667,0.0292 -1.2243,0.0559 -0.74657,0.0534 -1.49001,0.13608 -2.23356,0.2175 -1.62268,0.17323 -3.24941,0.31544 -4.87839,0.42668 -0.90157,0.0589 -1.8048,0.0852 -2.70786,0.11793 -0.87864,0.0296 -1.75758,0.0652 -2.63694,0.0639 -0.67605,-0.008 -1.35267,-0.0317 -2.02796,0.0128 -0.66943,0.0306 -1.33952,0.0603 -2.00541,0.13429 -0.96922,0.10504 -1.93907,0.20279 -2.91455,0.24383 -1.36886,0.0752 -2.7397,0.11285 -4.10952,0.17037 -0.94289,0.0364 -1.88572,0.0752 -2.82903,0.10024 -0.95654,0.0175 -1.91316,9.5e-4 -2.86978,-3.9e-4 -2.33959,-0.004 -4.67875,0.038 -7.01825,0.0549 -2.2081,0.0418 -4.4159,0.045 -6.62437,0.0267 -0.75976,0.0112 -1.51862,0.0366 -2.27765,0.0695 -1.23026,0.0463 -2.46059,0.0912 -3.69115,0.13003 -0.75765,0.021 -1.51593,0.0476 -2.27377,0.0176 -0.41374,-0.002 -0.82655,0.0167 -1.24033,0.0145 -0.80265,-0.0184 -1.60053,-0.10458 -2.39845,-0.18248 -2.00263,-0.17919 -4.00309,-0.38259 -6.01185,-0.49652 -1.13174,-0.0896 -2.2579,-0.23212 -3.393,-0.28653 -1.56592,-0.074 -3.13761,-0.13174 -4.68681,-0.37276 -0.42229,-0.0689 -0.61676,-0.0936 -1.01033,-0.18008 -0.45655,-0.10033 -0.89776,-0.25207 -1.35202,-0.36015 -0.3933,-0.0718 -0.76353,-0.23839 -1.15518,-0.31867 -0.43958,-0.17141 -0.86483,-0.37375 -1.31334,-0.52492 -0.39415,-0.12521 -0.79382,-0.23772 -1.19531,-0.33634 0.34452,0.16729 0.85767,0.38745 0.9892,0.73089 0.89025,2.32471 0.63397,2.12543 -0.86716,3.66136 -0.0435,0.0446 -0.10055,0.0542 -0.15669,0.0645 0.091,-0.0374 0.0142,-0.004 -0.14924,0.0267 -0.0185,0.004 -0.0749,0.008 -0.0563,0.005 0.17429,-0.0273 0.35017,-0.0465 0.52354,-0.0792 0.56317,-0.09 1.13466,-0.12499 1.69904,-0.2091 0.5334,-0.0702 1.06931,-0.1294 1.60474,-0.18323 0.89714,-0.0784 1.79437,-0.15183 2.69619,-0.16372 0.98552,-0.0357 1.97162,-0.0814 2.95802,-0.0802 0.43632,0.0133 0.87133,0.0484 1.30776,0.0583 0.63856,0.0405 1.27664,0.0868 1.91531,0.1263 1.51193,0.11185 3.02325,0.23035 4.5349,0.34453 2.92064,0.21274 5.84832,0.36003 8.77752,0.41213 0.5595,0.01 1.11889,0.0267 1.67846,0.03 1.62509,0.01 3.24962,-0.0682 4.86351,-0.24575 2.60361,-0.25231 5.20695,-0.51327 7.81824,-0.68857 1.58962,-0.0997 3.17785,-0.22088 4.77078,-0.26472 1.19325,-0.0466 2.38646,-0.0933 3.57988,-0.13598 3.10481,-0.1098 6.21012,-0.21011 9.31644,-0.27532 3.10378,-0.0571 6.20776,-0.073 9.31211,-0.0777 1.9855,-0.015 3.97518,-0.009 5.94988,0.21074 1.73698,0.13927 3.47934,0.18839 5.22216,0.22235 1.2222,-0.007 2.46573,0.004 3.65491,-0.29577 0.27959,-0.0697 0.55846,-0.13846 0.83121,-0.22942 0.015,-0.005 -0.21931,0.0442 -0.12546,0.0227 0.0465,-0.0108 0.0938,-0.0188 0.14068,-0.0282 -0.67994,-5.19196 1.04109,-5.01582 -1.57319,-4.91302 -1.39925,0.0545 -2.79851,0.10908 -4.19783,0.16163 -1.94304,0.0723 -3.88632,0.1397 -5.83063,0.17537 -2.96698,0.0556 -5.93409,0.0632 -8.9016,0.0657 -3.62415,0.0656 -7.2477,0.17735 -10.87331,0.1519 -7.26594,1.7e-4 -14.53134,-0.0695 -21.79711,-0.10509 -4.52009,-0.0304 -9.03853,-0.14921 -13.55887,-0.15197 -4.41475,-0.0185 -8.83535,0.0175 -13.24815,-0.12849 -1.22714,-0.0406 -1.53485,-0.0709 -2.59092,-0.14903 -3.798,-0.28304 -4.22939,4.70091 -0.43137,4.98395 z"
       inkscape:export-filename="../../public-HTML-CSS/felix-foto-projekt/felix-foto-4/img/retouch.svg"
       inkscape:export-xdpi="96"
       inkscape:export-ydpi="96" />
  </g>
</svg>
