<?xml version="1.0" encoding="UTF-8" standalone="no"?>
<!-- Created with Inkscape (http://www.inkscape.org/) -->

<svg
   width="512"
   height="512"
   viewBox="0 0 135.46666 135.46666"
   version="1.1"
   id="svg30554"
   inkscape:version="1.2 (dc2aedaf03, 2022-05-15)"
   sodipodi:docname="taklert_design.logo_alt.svg"
   inkscape:export-filename="/home/taklert/Documents/GitHub/taklert.design/img/favicon.png"
   inkscape:export-xdpi="96"
   inkscape:export-ydpi="96"
   xmlns:inkscape="http://www.inkscape.org/namespaces/inkscape"
   xmlns:sodipodi="http://sodipodi.sourceforge.net/DTD/sodipodi-0.dtd"
   xmlns="http://www.w3.org/2000/svg"
   xmlns:svg="http://www.w3.org/2000/svg">
  <sodipodi:namedview
     inkscape:zoom="0.48613591"
     inkscape:cx="639.73879"
     inkscape:cy="232.44528"
     inkscape:window-width="1920"
     inkscape:window-height="1011"
     inkscape:window-x="0"
     inkscape:window-y="0"
     inkscape:window-maximized="1"
     inkscape:current-layer="layer2"
     id="namedview3589"
     pagecolor="#ffffff"
     bordercolor="#ffffff"
     borderopacity="1"
     inkscape:pageshadow="0"
     inkscape:pageopacity="0"
     inkscape:pagecheckerboard="false"
     showgrid="false"
     inkscape:showpageshadow="2"
     inkscape:deskcolor="#d1d1d1">
    <inkscape:page
       x="0"
       y="0"
       width="135.46666"
       height="135.46666"
       id="page2794" />
    <inkscape:page
       x="145.46666"
       y="0"
       width="507.99997"
       height="285.75"
       id="page2796" />
  </sodipodi:namedview>
  <defs
     id="defs30551">
    <inkscape:path-effect
       effect="fillet_chamfer"
       id="path-effect7710"
       is_visible="true"
       lpeversion="1"
       satellites_param="F,0,0,1,0,0,0,1 @ F,0,0,1,0,0,0,1 @ F,0,0,1,0,0,0,1 @ F,0,0,1,0,0,0,1 @ F,0,0,1,0,0,0,1 @ F,0,0,1,0,0,0,1 @ F,0,0,1,0,0,0,1 @ F,0,0,1,0,0,0,1 @ F,0,0,1,0,0,0,1 @ F,0,0,1,0,0,0,1 @ F,0,0,1,0,0,0,1 @ F,0,0,1,0,0,0,1 @ F,0,0,1,0,0,0,1 @ F,0,0,1,0,0,0,1 @ F,0,0,1,0,0,0,1 @ F,0,0,1,0,0,0,1 @ F,0,0,1,0,0,0,1 @ F,0,0,1,0,0,0,1 @ F,0,0,1,0,0,0,1 @ F,0,0,1,0,0,0,1 @ F,0,0,1,0,0,0,1 @ F,0,0,1,0,0,0,1 @ F,0,0,1,0,0,0,1 @ F,0,0,1,0,0,0,1 @ F,0,0,1,0,0,0,1 @ F,0,0,1,0,0,0,1 | F,0,0,1,0,0,0,1 @ F,0,0,1,0,0,0,1 @ F,0,0,1,0,0,0,1 @ F,0,0,1,0,0,0,1 @ F,0,0,1,0,0,0,1 @ F,0,0,1,0,0,0,1 @ F,0,0,1,0,0,0,1 @ F,0,0,1,0,0,0,1 @ F,0,0,1,0,0,0,1"
       unit="px"
       method="bezier"
       mode="F"
       radius="26"
       chamfer_steps="4"
       flexible="true"
       use_knot_distance="false"
       apply_no_radius="true"
       apply_with_radius="true"
       only_selected="true"
       hide_knots="false"
       nodesatellites_param="F,0,0,1,0,0,0,1 @ F,0,0,1,0,0,0,1 @ F,0,0,1,0,0,0,1 @ F,0,0,1,0,0,0,1 @ F,0,0,1,0,0,0,1 @ F,0,0,1,0,0,0,1 @ F,0,0,1,0,0,0,1 @ F,0,0,1,0,0,0,1 @ F,0,0,1,0,0,0,1 @ F,0,0,1,0,0,0,1 @ F,0,0,1,0,0,0,1 @ F,0,0,1,0,0,0,1 @ F,0,0,1,0,0,0,1 @ F,0,0,1,0,0,0,1 @ F,0,0,1,0,0,0,1 @ F,0,0,1,0,0,0,1 @ F,0,0,1,0,0,0,1 @ F,0,0,1,0,0,0,1 @ F,0,0,1,0,0,0,1 @ F,0,0,1,0,0,0,1 @ F,0,0,1,0,0,0,1 @ F,0,0,1,0,0,0,1 @ F,0,0,1,0,0,0,1 @ F,0,0,1,0,0,0,1 @ F,0,0,1,0,0,0,1 @ F,0,0,1,0,0,0,1 | F,0,0,1,0,0,0,1 @ F,0,0,1,0,0,0,1 @ F,0,0,1,0,0,0,1 @ F,0,0,1,0,0,0,1 @ F,0,0,1,0,0,0,1 @ F,0,0,1,0,0,0,1 @ F,0,0,1,0,0,0,1 @ F,0,0,1,0,0,0,1 @ F,0,0,1,0,0,0,1" />
    <inkscape:path-effect
       effect="fillet_chamfer"
       id="path-effect7591"
       is_visible="true"
       lpeversion="1"
       satellites_param="F,0,0,1,0,0,0,1 @ F,0,0,1,0,0,0,1 @ F,0,0,1,0,0,0,1 @ F,0,0,1,0,0,0,1 @ F,0,0,1,0,0,0,1 @ F,0,0,1,0,0,0,1 @ F,0,0,1,0,0,0,1 @ F,0,0,1,0,0,0,1 @ F,0,0,1,0,0,0,1 @ F,0,0,1,0,0,0,1 @ F,0,0,1,0,0,0,1 @ F,0,0,1,0,0,0,1 @ F,0,0,1,0,0,0,1 @ F,0,0,1,0,0,0,1 @ F,0,0,1,0,0,0,1 @ F,0,0,1,0,0,0,1 @ F,0,0,1,0,0,0,1 @ F,0,0,1,0,0,0,1 @ F,0,0,1,0,0,0,1 @ F,0,0,1,0,0,0,1 @ F,0,0,1,0,0,0,1 @ F,0,0,1,0,0,0,1 @ F,0,0,1,0,0,0,1 @ F,0,0,1,0,0,0,1 @ F,0,0,1,0,0,0,1 @ F,0,0,1,0,0,0,1 | F,0,0,1,0,0,0,1 @ F,0,0,1,0,0,0,1 @ F,0,0,1,0,0,0,1 @ F,0,0,1,0,0,0,1 @ F,0,0,1,0,0,0,1 @ F,0,0,1,0,0,0,1 @ F,0,0,1,0,0,0,1 @ F,0,0,1,0,0,0,1 @ F,0,0,1,0,0,0,1"
       unit="px"
       method="bezier"
       mode="F"
       radius="0"
       chamfer_steps="20"
       flexible="false"
       use_knot_distance="true"
       apply_no_radius="true"
       apply_with_radius="true"
       only_selected="true"
       hide_knots="false"
       nodesatellites_param="F,0,0,1,0,0,0,1 @ F,0,0,1,0,0,0,1 @ F,0,0,1,0,0,0,1 @ F,0,0,1,0,0,0,1 @ F,0,0,1,0,0,0,1 @ F,0,0,1,0,0,0,1 @ F,0,0,1,0,0,0,1 @ F,0,0,1,0,0,0,1 @ F,0,0,1,0,0,0,1 @ F,0,0,1,0,0,0,1 @ F,0,0,1,0,0,0,1 @ F,0,0,1,0,0,0,1 @ F,0,0,1,0,0,0,1 @ F,0,0,1,0,0,0,1 @ F,0,0,1,0,0,0,1 @ F,0,0,1,0,0,0,1 @ F,0,0,1,0,0,0,1 @ F,0,0,1,0,0,0,1 @ F,0,0,1,0,0,0,1 @ F,0,0,1,0,0,0,1 @ F,0,0,1,0,0,0,1 @ F,0,0,1,0,0,0,1 @ F,0,0,1,0,0,0,1 @ F,0,0,1,0,0,0,1 @ F,0,0,1,0,0,0,1 @ F,0,0,1,0,0,0,1 | F,0,0,1,0,0,0,1 @ F,0,0,1,0,0,0,1 @ F,0,0,1,0,0,0,1 @ F,0,0,1,0,0,0,1 @ F,0,0,1,0,0,0,1 @ F,0,0,1,0,0,0,1 @ F,0,0,1,0,0,0,1 @ F,0,0,1,0,0,0,1 @ F,0,0,1,0,0,0,1" />
    <rect
       x="1433.4666"
       y="579.11975"
       width="121.16478"
       height="678.67719"
       id="rect44280" />
  </defs>
  <g
     inkscape:groupmode="layer"
     id="layer2"
     inkscape:label="hairy">
    <path
       id="path955"
       style="fill:#4c566a;fill-opacity:1;stroke-width:0.264583"
       d="M 98.993952,6.3516504 C 94.861476,6.6209476 45.214998,29.732045 28.380694,29.893883 H 12.170833 v 12.496392 56.15006 c 0,8.973675 2.960356,16.312745 8.87801,22.017775 5.915949,5.70334 36.089838,8.55917 47.021418,8.55917 10.93158,0 40.439699,-2.85549 46.355309,-8.55917 5.91595,-5.70503 8.87026,-13.0441 8.87026,-22.017775 V 42.390275 29.893883 h -16.20211 c 0,0 -3.96729,-23.8115294 -8.099768,-23.5422326 z M 28.380178,45.14463 h 78.713542 v 27.833958 1.455209 c 0,0 0.006,1.618564 0,2.606558 l -0.0662,10.91148 c 0.0216,-0.01696 0.0446,-0.03313 0.0662,-0.05013 v -6.484874 c 0,-0.684019 -0.0226,1.347669 -0.0662,1.992125 v 1.176673 c 0,0.610262 -0.13241,1.187159 -0.36535,1.708939 0.19816,6.666975 -4.00751,8.190716 -4.00751,8.190716 -3.911096,2.127382 -27.639759,4.233333 -34.584449,4.233333 -6.944693,0 -30.488899,-1.709761 -35.258312,-4.233333 0,0 -3.940961,-2.040916 -3.951698,-7.954036 -0.304683,-0.580948 -0.479039,-1.241661 -0.479039,-1.945619 v -3.105753 c -4.2e-5,-0.0213 -0.0011,-0.08438 -0.0011,-0.06305 v 6.202204 c 2.65e-4,2.32e-4 7.94e-4,2.64e-4 0.0011,5.29e-4 v -10.5792 -2.763655 -1.419553 z"
       sodipodi:nodetypes="scccscscscccsccccsccscsccsccscsccsccc" />
    <path
       d="m 49.9075,57.570459 c -7.074053,0 -12.808706,5.734652 -12.808706,12.808708 0,7.074056 5.734653,12.808708 12.808706,12.808708 7.074056,0 12.808716,-5.734652 12.808716,-12.808708 0,-7.074056 -5.73466,-12.808708 -12.808716,-12.808708 z m 35.651673,0 c -7.07406,0 -12.808719,5.734652 -12.808719,12.808708 0,7.074056 5.73466,12.808708 12.808719,12.808708 7.07404,0 12.808696,-5.734652 12.808696,-12.808708 0,-7.074056 -5.734656,-12.808708 -12.808696,-12.808708 z"
       style="fill:#4c566a;fill-opacity:1;stroke-width:0.0968275"
       id="path1457"
       sodipodi:nodetypes="ssssssssss" />
    <circle
       style="fill:#000000;stroke-width:0.264583"
       id="path1626"
       cx="-185.06554"
       cy="-163.10527"
       r="12.69439"
       transform="rotate(142.1021)" />
    <circle
       style="fill:#000000;stroke-width:0.264583"
       id="circle1682"
       cx="-224.00502"
       cy="-147.74962"
       r="12.69439"
       transform="rotate(170.01797)" />
    <circle
       style="fill:#000000;stroke-width:0.264583"
       id="circle1684"
       cx="272.6832"
       cy="60.856964"
       r="12.69439" />
    <circle
       style="fill:#000000;stroke-width:0.264583"
       id="circle1686"
       cx="136.30525"
       cy="-137.8943"
       r="12.69439"
       transform="rotate(49.777862)" />
    <circle
       style="fill:#000000;stroke-width:0.264583"
       id="circle1688"
       cx="-114.46452"
       cy="135.79515"
       r="12.69439"
       transform="rotate(-110.08925)" />
    <circle
       style="fill:#000000;stroke-width:0.264583"
       id="circle1690"
       cx="-41.00248"
       cy="216.95245"
       r="12.69439"
       transform="rotate(-71.808564)" />
  </g>
</svg>
