<?xml version="1.0" encoding="UTF-8" standalone="no"?>
<!-- Created with Inkscape (http://www.inkscape.org/) -->

<svg
   width="512"
   height="512"
   viewBox="0 0 135.46666 135.46666"
   version="1.1"
   id="svg30554"
   inkscape:version="1.1.1 (3bf5ae0d25, 2021-09-20)"
   sodipodi:docname="taklert_design.logo.svg"
   xmlns:inkscape="http://www.inkscape.org/namespaces/inkscape"
   xmlns:sodipodi="http://sodipodi.sourceforge.net/DTD/sodipodi-0.dtd"
   xmlns="http://www.w3.org/2000/svg"
   xmlns:svg="http://www.w3.org/2000/svg">
  <sodipodi:namedview
     inkscape:zoom="0.97227182"
     inkscape:cx="284.38549"
     inkscape:cy="191.81878"
     inkscape:window-width="1920"
     inkscape:window-height="1018"
     inkscape:window-x="0"
     inkscape:window-y="0"
     inkscape:window-maximized="1"
     inkscape:current-layer="layer2"
     id="namedview3684"
     pagecolor="#505050"
     bordercolor="#ffffff"
     borderopacity="1"
     inkscape:pageshadow="0"
     inkscape:pageopacity="0"
     inkscape:pagecheckerboard="1" />
  <defs
     id="defs30551">
    <inkscape:path-effect
       effect="fillet_chamfer"
       id="path-effect7710"
       is_visible="true"
       lpeversion="1"
       satellites_param="F,0,0,1,0,0,0,1 @ F,0,0,1,0,0,0,1 @ F,0,0,1,0,0,0,1 @ F,0,0,1,0,0,0,1 @ F,0,0,1,0,0,0,1 @ F,0,0,1,0,0,0,1 @ F,0,0,1,0,0,0,1 @ F,0,0,1,0,0,0,1 @ F,0,0,1,0,0,0,1 @ F,0,0,1,0,0,0,1 @ F,0,0,1,0,0,0,1 @ F,0,0,1,0,0,0,1 @ F,0,0,1,0,0,0,1 @ F,0,0,1,0,0,0,1 @ F,0,0,1,0,0,0,1 @ F,0,0,1,0,0,0,1 @ F,0,0,1,0,0,0,1 @ F,0,0,1,0,0,0,1 @ F,0,0,1,0,0,0,1 @ F,0,0,1,0,0,0,1 @ F,0,0,1,0,0,0,1 @ F,0,0,1,0,0,0,1 @ F,0,0,1,0,0,0,1 @ F,0,0,1,0,0,0,1 @ F,0,0,1,0,0,0,1 @ F,0,0,1,0,0,0,1 | F,0,0,1,0,0,0,1 @ F,0,0,1,0,0,0,1 @ F,0,0,1,0,0,0,1 @ F,0,0,1,0,0,0,1 @ F,0,0,1,0,0,0,1 @ F,0,0,1,0,0,0,1 @ F,0,0,1,0,0,0,1 @ F,0,0,1,0,0,0,1 @ F,0,0,1,0,0,0,1"
       unit="px"
       method="bezier"
       mode="F"
       radius="26"
       chamfer_steps="4"
       flexible="true"
       use_knot_distance="false"
       apply_no_radius="true"
       apply_with_radius="true"
       only_selected="true"
       hide_knots="false" />
    <inkscape:path-effect
       effect="fillet_chamfer"
       id="path-effect7591"
       is_visible="true"
       lpeversion="1"
       satellites_param="F,0,0,1,0,0,0,1 @ F,0,0,1,0,0,0,1 @ F,0,0,1,0,0,0,1 @ F,0,0,1,0,0,0,1 @ F,0,0,1,0,0,0,1 @ F,0,0,1,0,0,0,1 @ F,0,0,1,0,0,0,1 @ F,0,0,1,0,0,0,1 @ F,0,0,1,0,0,0,1 @ F,0,0,1,0,0,0,1 @ F,0,0,1,0,0,0,1 @ F,0,0,1,0,0,0,1 @ F,0,0,1,0,0,0,1 @ F,0,0,1,0,0,0,1 @ F,0,0,1,0,0,0,1 @ F,0,0,1,0,0,0,1 @ F,0,0,1,0,0,0,1 @ F,0,0,1,0,0,0,1 @ F,0,0,1,0,0,0,1 @ F,0,0,1,0,0,0,1 @ F,0,0,1,0,0,0,1 @ F,0,0,1,0,0,0,1 @ F,0,0,1,0,0,0,1 @ F,0,0,1,0,0,0,1 @ F,0,0,1,0,0,0,1 @ F,0,0,1,0,0,0,1 | F,0,0,1,0,0,0,1 @ F,0,0,1,0,0,0,1 @ F,0,0,1,0,0,0,1 @ F,0,0,1,0,0,0,1 @ F,0,0,1,0,0,0,1 @ F,0,0,1,0,0,0,1 @ F,0,0,1,0,0,0,1 @ F,0,0,1,0,0,0,1 @ F,0,0,1,0,0,0,1"
       unit="px"
       method="bezier"
       mode="F"
       radius="0"
       chamfer_steps="20"
       flexible="false"
       use_knot_distance="true"
       apply_no_radius="true"
       apply_with_radius="true"
       only_selected="true"
       hide_knots="false" />
    <rect
       x="1433.4666"
       y="579.11975"
       width="121.16478"
       height="678.67719"
       id="rect44280" />
  </defs>
  <g
     inkscape:groupmode="layer"
     id="layer2"
     inkscape:label="hairy">
    <path
       id="path955"
       d="M 98.993952,4.2349836 C 94.861476,4.5042806 45.214996,27.615377 28.380694,27.777214 H 12.170833 V 40.273609 100.657 c 0,8.97368 2.960357,16.31274 8.878011,22.01777 5.915948,5.70334 36.089837,8.55917 47.021417,8.55917 10.93158,0 40.439699,-2.85549 46.355309,-8.55917 5.91595,-5.70503 8.87026,-13.04409 8.87026,-22.01777 V 40.273609 27.777214 h -16.20211 c 0,0 -3.96729,-23.8115274 -8.099768,-23.5422304 z M 28.380178,43.027964 h 78.713542 v 31.538125 c -3.61636,6.01092 -10.445801,9.939496 -15.880171,11.886093 -5.787183,2.027211 -13.505214,5.626012 -23.150524,5.626012 -9.16296,0 -16.667517,-3.565852 -22.508185,-5.541779 C 38.07422,83.664562 32.56473,80.567582 28.381213,74.444648 Z m 20.83232,12.53515 c -5.114388,0 -9.260417,4.146029 -9.260417,9.260417 0,5.114387 4.146029,9.260416 9.260417,9.260416 5.114387,0 9.260416,-4.146029 9.260416,-9.260416 0,-5.114388 -4.146029,-9.260417 -9.260416,-9.260417 z m 37.041664,0 c -5.114387,0 -9.260416,4.146029 -9.260416,9.260417 0,5.114387 4.146029,9.260416 9.260416,9.260416 5.114388,0 9.260417,-4.146029 9.260417,-9.260416 0,-5.114388 -4.146029,-9.260417 -9.260417,-9.260417 z m -57.873984,37.87676 c 3.18842,2.47542 6.957189,4.60592 11.311971,6.3934 7.341201,2.991566 19.05105,6.665226 28.37036,6.709666 9.319309,0.0444 21.04841,-3.66148 28.056166,-6.625946 4.236255,-1.70122 7.895295,-3.76792 10.975045,-6.19445 v 6.744286 c 0,5.64086 -1.48189,9.93656 -4.43901,12.885 -3.021508,2.94744 -27.639759,4.41678 -34.584449,4.41678 -6.944693,0 -32.236125,-1.46664 -35.258312,-4.41678 -2.956782,-2.94741 -4.431771,-7.24414 -4.431771,-12.885 z"
       style="stroke-width:0.264583;fill:#4c566a;fill-opacity:1" />
  </g>
</svg>
