<?xml version="1.0" encoding="UTF-8" standalone="no"?>
<!-- Created with Inkscape (http://www.inkscape.org/) -->

<svg
   width="512"
   height="512"
   viewBox="0 0 135.46666 135.46666"
   version="1.1"
   id="svg30554"
   inkscape:version="1.1.1 (3bf5ae0d25, 2021-09-20)"
   sodipodi:docname="taklert_design.logo_alt.svg"
   inkscape:export-filename="/home/taklert/Dokumentumok/GitHub/taklert.design/img/favicon.png"
   inkscape:export-xdpi="96"
   inkscape:export-ydpi="96"
   xmlns:inkscape="http://www.inkscape.org/namespaces/inkscape"
   xmlns:sodipodi="http://sodipodi.sourceforge.net/DTD/sodipodi-0.dtd"
   xmlns="http://www.w3.org/2000/svg"
   xmlns:svg="http://www.w3.org/2000/svg">
  <sodipodi:namedview
     inkscape:zoom="0.6875"
     inkscape:cx="259.63636"
     inkscape:cy="207.27273"
     inkscape:window-width="1920"
     inkscape:window-height="1018"
     inkscape:window-x="0"
     inkscape:window-y="0"
     inkscape:window-maximized="1"
     inkscape:current-layer="layer2"
     id="namedview3589"
     pagecolor="#ffffff"
     bordercolor="#ffffff"
     borderopacity="1"
     inkscape:pageshadow="0"
     inkscape:pageopacity="0"
     inkscape:pagecheckerboard="false"
     showgrid="false" />
  <defs
     id="defs30551">
    <inkscape:path-effect
       effect="fillet_chamfer"
       id="path-effect7710"
       is_visible="true"
       lpeversion="1"
       satellites_param="F,0,0,1,0,0,0,1 @ F,0,0,1,0,0,0,1 @ F,0,0,1,0,0,0,1 @ F,0,0,1,0,0,0,1 @ F,0,0,1,0,0,0,1 @ F,0,0,1,0,0,0,1 @ F,0,0,1,0,0,0,1 @ F,0,0,1,0,0,0,1 @ F,0,0,1,0,0,0,1 @ F,0,0,1,0,0,0,1 @ F,0,0,1,0,0,0,1 @ F,0,0,1,0,0,0,1 @ F,0,0,1,0,0,0,1 @ F,0,0,1,0,0,0,1 @ F,0,0,1,0,0,0,1 @ F,0,0,1,0,0,0,1 @ F,0,0,1,0,0,0,1 @ F,0,0,1,0,0,0,1 @ F,0,0,1,0,0,0,1 @ F,0,0,1,0,0,0,1 @ F,0,0,1,0,0,0,1 @ F,0,0,1,0,0,0,1 @ F,0,0,1,0,0,0,1 @ F,0,0,1,0,0,0,1 @ F,0,0,1,0,0,0,1 @ F,0,0,1,0,0,0,1 | F,0,0,1,0,0,0,1 @ F,0,0,1,0,0,0,1 @ F,0,0,1,0,0,0,1 @ F,0,0,1,0,0,0,1 @ F,0,0,1,0,0,0,1 @ F,0,0,1,0,0,0,1 @ F,0,0,1,0,0,0,1 @ F,0,0,1,0,0,0,1 @ F,0,0,1,0,0,0,1"
       unit="px"
       method="bezier"
       mode="F"
       radius="26"
       chamfer_steps="4"
       flexible="true"
       use_knot_distance="false"
       apply_no_radius="true"
       apply_with_radius="true"
       only_selected="true"
       hide_knots="false" />
    <inkscape:path-effect
       effect="fillet_chamfer"
       id="path-effect7591"
       is_visible="true"
       lpeversion="1"
       satellites_param="F,0,0,1,0,0,0,1 @ F,0,0,1,0,0,0,1 @ F,0,0,1,0,0,0,1 @ F,0,0,1,0,0,0,1 @ F,0,0,1,0,0,0,1 @ F,0,0,1,0,0,0,1 @ F,0,0,1,0,0,0,1 @ F,0,0,1,0,0,0,1 @ F,0,0,1,0,0,0,1 @ F,0,0,1,0,0,0,1 @ F,0,0,1,0,0,0,1 @ F,0,0,1,0,0,0,1 @ F,0,0,1,0,0,0,1 @ F,0,0,1,0,0,0,1 @ F,0,0,1,0,0,0,1 @ F,0,0,1,0,0,0,1 @ F,0,0,1,0,0,0,1 @ F,0,0,1,0,0,0,1 @ F,0,0,1,0,0,0,1 @ F,0,0,1,0,0,0,1 @ F,0,0,1,0,0,0,1 @ F,0,0,1,0,0,0,1 @ F,0,0,1,0,0,0,1 @ F,0,0,1,0,0,0,1 @ F,0,0,1,0,0,0,1 @ F,0,0,1,0,0,0,1 | F,0,0,1,0,0,0,1 @ F,0,0,1,0,0,0,1 @ F,0,0,1,0,0,0,1 @ F,0,0,1,0,0,0,1 @ F,0,0,1,0,0,0,1 @ F,0,0,1,0,0,0,1 @ F,0,0,1,0,0,0,1 @ F,0,0,1,0,0,0,1 @ F,0,0,1,0,0,0,1"
       unit="px"
       method="bezier"
       mode="F"
       radius="0"
       chamfer_steps="20"
       flexible="false"
       use_knot_distance="true"
       apply_no_radius="true"
       apply_with_radius="true"
       only_selected="true"
       hide_knots="false" />
    <rect
       x="1433.4666"
       y="579.11975"
       width="121.16478"
       height="678.67719"
       id="rect44280" />
  </defs>
  <g
     inkscape:groupmode="layer"
     id="layer2"
     inkscape:label="hairy">
    <path
       id="path955"
       style="fill:#4c566a;fill-opacity:1;stroke-width:0.264583"
       d="M 98.993952,6.3516504 C 94.861476,6.6209476 45.214998,29.732045 28.380694,29.893883 H 12.170833 v 12.496392 56.15006 c 0,8.973675 2.960356,16.312745 8.87801,22.017775 5.915949,5.70334 36.089838,8.55917 47.021418,8.55917 10.93158,0 40.439699,-2.85549 46.355309,-8.55917 5.91595,-5.70503 8.87026,-13.0441 8.87026,-22.017775 V 42.390275 29.893883 h -16.20211 c 0,0 -3.96729,-23.8115294 -8.099768,-23.5422326 z M 28.380178,45.14463 h 78.713542 v 27.833958 1.455209 c 0,0 0.006,1.618564 0,2.606558 l -0.0662,10.91148 c 0.0216,-0.01696 0.0446,-0.03313 0.0662,-0.05013 v -6.484874 c 0,-0.684019 -0.0226,1.347669 -0.0662,1.992125 v 1.176673 c 0,0.610262 -0.13241,1.187159 -0.36535,1.708939 0.19816,6.666975 -4.00751,8.190716 -4.00751,8.190716 -3.911096,2.127382 -27.639759,4.233333 -34.584449,4.233333 -6.944693,0 -30.488899,-1.709761 -35.258312,-4.233333 0,0 -3.940961,-2.040916 -3.951698,-7.954036 -0.304683,-0.580948 -0.479039,-1.241661 -0.479039,-1.945619 v -3.105753 c -4.2e-5,-0.0213 -0.0011,-0.08438 -0.0011,-0.06305 v 6.202204 c 2.65e-4,2.32e-4 7.94e-4,2.64e-4 0.0011,5.29e-4 v -10.5792 -2.763655 -1.419553 z m 20.83232,12.53515 c -5.114388,0 -9.260417,4.146029 -9.260417,9.260416 0,5.114388 4.146029,9.260417 9.260417,9.260417 5.114387,0 9.260416,-4.146029 9.260416,-9.260417 0,-5.114387 -4.146029,-9.260416 -9.260416,-9.260416 z m 37.041664,0 c -5.114387,0 -9.260416,4.146029 -9.260416,9.260416 0,5.114388 4.146029,9.260417 9.260416,9.260417 5.114388,0 9.260417,-4.146029 9.260417,-9.260417 0,-5.114387 -4.146029,-9.260416 -9.260417,-9.260416 z"
       sodipodi:nodetypes="scccscscscccsccccsccscsccsccscsccscccssssssssss" />
  </g>
</svg>
