<?xml version="1.0" encoding="UTF-8" standalone="no"?>
<!-- Created with Inkscape (http://www.inkscape.org/) -->

<svg
   id="svg30554"
   version="1.1"
   viewBox="0 0 92.167084 26.458382"
   height="100.00019"
   width="348.34805"
   xml:space="preserve"
   xmlns="http://www.w3.org/2000/svg"
   xmlns:svg="http://www.w3.org/2000/svg"><defs
     id="defs30551" /><g
     id="layer2"
     transform="translate(-345.88162,146.55128)"><path
       d="m 394.48816,-142.46409 -1.78352,0.17743 v 10.20965 h 1.78352 z m -9.75013,0.17743 v 10.22178 h 1.81078 v -2.44625 l 0.4838,-0.52322 2.35829,2.96947 h 2.16721 l -3.35318,-4.23127 2.93157,-3.17269 h -2.20512 l -2.38257,2.57364 v -5.39146 z m -11.76414,0.8675 -1.78352,0.19108 v 1.77137 h -1.00701 v 1.77137 h 1.00701 v 3.1363 c 0,1.46576 1.19738,2.66312 2.66312,2.66312 0.56081,0 1.46654,-0.16532 1.46654,-0.16532 l -0.21688,-1.69554 c 0,0 -0.7653,0.0895 -1.24966,0.0895 -0.48432,0 -0.8796,-0.40742 -0.8796,-0.89176 v -3.13629 h 2.12926 v -1.77137 h -2.12926 z m 39.34625,0 -1.78501,0.19108 v 1.77137 h -1.00551 v 1.77137 h 1.00551 v 3.1363 c 0,1.46576 1.19888,2.66312 2.66462,2.66312 0.56084,0 1.46504,-0.16532 1.46504,-0.16532 l -0.21541,-1.69554 c 0,0 -0.76533,0.0895 -1.24969,0.0895 -0.48432,0 -0.87961,-0.40742 -0.87961,-0.89176 v -3.13629 h 2.1293 v -1.77137 h -2.1293 z m -32.45037,1.77137 c -2.09029,0 -3.78538,1.74572 -3.78538,3.88701 0,2.14127 1.69509,3.87487 3.78538,3.87487 0.89223,0 1.54155,-0.30548 2.0004,-0.82806 v 0.6491 h 1.78502 v -7.39183 h -1.78502 v 0.65061 c -0.45885,-0.52257 -1.10817,-0.8417 -2.0004,-0.8417 z m 19.32282,0 c -0.8922,0 -1.82284,0.34417 -2.61309,1.1344 v 0.012 c -0.68826,0.7265 -1.07069,1.70868 -1.07069,2.72834 0,2.15402 1.68142,3.887 3.77174,3.887 2.09029,0 2.9073,-0.76435 2.9073,-0.76435 l -0.76589,-1.46654 c 0,0 -1.0198,0.43374 -2.14141,0.43374 -0.90497,0 -1.66903,-0.59954 -1.93669,-1.44075 h 5.35355 v -0.7765 c -0.0117,-1.7589 -0.96909,-2.97073 -2.16721,-3.48056 -0.42061,-0.17843 -0.87878,-0.26691 -1.33761,-0.26691 z m 8.29724,0 c -0.8922,0 -1.54304,0.30609 -2.00189,0.81592 v -0.63696 h -1.78352 v 7.39182 h 1.78352 v -3.78539 c 0,-1.10887 0.89302,-2.00038 2.00189,-2.00038 0.54807,0 0.89173,0.0637 0.89173,0.0637 v -1.7471 c 0,0 -0.58583,-0.10161 -0.89173,-0.10161 z m -8.28512,1.77137 c 0.21659,0 0.43365,0.0382 0.62485,0.1274 0.49706,0.21667 0.89261,0.68821 1.0328,1.32549 h -3.5185 c 0.10184,-0.3059 0.25445,-0.59863 0.4838,-0.82806 0.42061,-0.4206 0.90547,-0.62483 1.37705,-0.62483 z m -19.33494,0.0138 c 1.07067,0 1.92392,0.86543 2.0004,1.94881 v 0.29422 c -0.0766,1.08338 -0.92973,1.96246 -2.0004,1.96246 -1.12161,0 -2.00186,-0.95639 -2.00186,-2.1035 0,-1.14712 0.88025,-2.10199 2.00186,-2.10199 z m 10.04587,8.39126 c -2.00289,0 -3.34405,1.35027 -3.34405,2.83753 0,0.20329 0.0293,0.40179 0.0742,0.59905 0.15408,0.62747 0.5101,1.10055 0.96302,1.42408 0.45295,0.32353 0.99266,0.51086 1.55754,0.6491 0.47696,0.11521 0.97314,0.20678 1.37858,0.33668 0.19663,0.0648 0.35672,0.13911 0.45498,0.22143 0.0983,0.0823 0.15466,0.1573 0.17902,0.33668 v 0.0182 l 0.006,0.0167 c 3.8e-4,0.002 0,-0.012 0,0.0288 0,0.13312 -0.0684,0.25483 -0.27147,0.38067 -0.20308,0.12584 -0.53603,0.21688 -0.92815,0.21688 -1.12821,0 -2.13989,-0.59754 -2.13989,-0.59754 l -0.32757,-0.20625 -1.14201,1.82445 0.3291,0.20473 c 0,0 1.47663,0.92359 3.28037,0.92359 2.00785,0 3.36683,-1.31301 3.36683,-2.76928 0,-0.11613 -0.009,-0.22046 -0.0235,-0.32 v -0.006 c -0.1215,-0.84687 -0.55978,-1.4543 -1.12986,-1.83962 -0.57005,-0.38531 -1.25103,-0.57732 -1.93213,-0.72341 -0.3873,-0.0828 -0.75218,-0.14946 -1.04948,-0.25629 -0.14849,-0.055 -0.26119,-0.11017 -0.3291,-0.16532 -0.0678,-0.0551 -0.10008,-0.099 -0.12737,-0.20625 l -0.006,-0.0106 v -0.006 c -0.003,-0.015 -0.006,-0.0241 -0.006,-0.0849 0,-0.15296 0.0784,-0.30163 0.27616,-0.43981 0.19781,-0.13817 0.51139,-0.24418 0.88871,-0.24418 0.52497,0 0.88815,0.11194 1.11774,0.21536 0.22979,0.10342 0.30028,0.17743 0.30028,0.17743 l 0.25944,0.24418 1.59091,-1.40133 -0.24124,-0.28511 c 0,0 -0.2609,-0.30164 -0.75527,-0.56872 -0.49448,-0.26706 -1.249,-0.52474 -2.27183,-0.52474 z m -19.04528,0.14257 v 8.92965 h 3.51242 c 2.47483,-0.0112 4.49061,-2.01188 4.49061,-4.46785 0,-2.45598 -2.01578,-4.45068 -4.49061,-4.4618 z m 8.86295,0 v 8.92965 h 0.39126 5.93895 v -2.20072 h -4.10539 v -1.14502 h 3.00435 v -2.21725 h -3.00435 v -1.17383 h 4.10539 v -2.19298 z m 14.46668,0 v 8.92965 h 0.39129 1.83353 v -8.92965 z m 7.74369,0.0106 c -2.56805,0 -4.65895,2.06643 -4.65895,4.60435 0,2.53792 2.08976,4.61648 4.65895,4.61648 1.38004,0 2.68781,-0.59824 3.57458,-1.64094 l 0.0924,-0.1092 v -0.14266 -3.68682 h -4.30255 v 2.21725 h 2.0762 v 0.63241 c -0.41553,0.31011 -0.90754,0.52474 -1.44073,0.52474 -1.34011,0 -2.42806,-1.0853 -2.42806,-2.41137 0,-1.32608 1.08625,-2.39923 2.42806,-2.39923 0.64421,0 1.27172,0.26548 1.72435,0.71279 l 0.27,0.26844 1.58636,-1.56208 -0.27763,-0.27299 c -0.87588,-0.86556 -2.06699,-1.35128 -3.30311,-1.35128 z m 4.52547,0 v 8.92965 h 2.2203 v -5.22474 l 3.64434,5.22463 h 2.33555 v -0.38673 -8.54292 h -2.22635 v 5.21402 l -3.63222,-5.21402 z m -33.36637,2.18236 h 1.25726 c 1.27028,0 2.28245,1.01161 2.28245,2.26882 0,1.2572 -1.01217,2.26729 -2.28245,2.26729 h -1.25726 z"
       style="font-weight:bold;font-size:4.34301px;font-family:MintSans;-inkscape-font-specification:'MintSans, Bold';letter-spacing:0px;display:inline;fill:#2a2e39;fill-opacity:1;stroke-width:4.70423"
       id="path396"
       transform="translate(-1.3295027e-6)" /></g><g
     id="layer1"><path
       id="path6481"
       style="display:inline;font-weight:bold;font-size:4.34301px;font-family:MintSans;-inkscape-font-specification:'MintSans, Bold';letter-spacing:0px;fill:#2a2e39;fill-opacity:1;stroke-width:4.70423"
       d="m 365.26659,-146.55129 -2.10957,0.81896 -12.75903,4.94103 h -4.51638 v 5.13061 7.89837 c 0,2.06002 1.01136,4.12712 2.94672,5.5143 1.93536,1.38718 4.69921,2.15507 8.35638,2.15507 h 11.36075 v -15.56774 -5.13061 h -3.27887 z m -3.10595,4.53308 v 4.3344 h 3.27884 v 2.02312 12.46177 h -8.25477 c -3.21549,0 -5.32441,-0.69592 -6.54557,-1.57118 -1.22116,-0.87526 -1.65157,-1.86734 -1.65157,-2.99222 v -7.89837 -2.02312 h 1.98977 z m -11.18482,6.67464 v 2.32947 h 3.88246 v -2.32947 z m 7.29933,0 v 2.32947 h 3.88243 v -2.32947 z"
       transform="translate(-345.88162,146.55128)" /></g><g
     id="layer3"><path
       d="m 437.9632,-120.09291 h -1.53548 c -0.047,0 -0.0854,-0.0382 -0.0854,-0.0853 v -1.53549 c 0,-0.0471 0.0382,-0.0853 0.0854,-0.0853 h 0.76774 v 0.76774 c 0,0.0471 0.0381,0.0853 0.0854,0.0853 h 0.68242 c 0.047,0 0.0854,0.0382 0.0854,0.0853 v 0.68244 c 0,0.0471 -0.0382,0.0853 -0.0854,0.0853 z m -4.26522,0 h -1.5355 c -0.047,0 -0.0854,-0.0382 -0.0854,-0.0853 v -1.53549 c 0,-0.0471 0.0382,-0.0853 0.0854,-0.0853 h 0.68245 c 0.047,0 0.0854,0.0382 0.0854,0.0853 v 0.68244 c 0,0.0471 0.0381,0.0853 0.0854,0.0853 h 0.76777 v 0.76775 c 0,0.0471 -0.0382,0.0853 -0.0854,0.0853 z m -2.55915,0 h -1.5355 c -0.0473,0 -0.0854,-0.0382 -0.0854,-0.0853 v -2.38854 c 0,-0.0471 0.0382,-0.0853 0.0854,-0.0853 h 1.5355 c 0.047,0 0.0854,0.0382 0.0854,0.0853 v 2.38854 c 0,0.0471 -0.0381,0.0853 -0.0854,0.0853 z m -3.4122,0 h -0.68242 c -0.047,0 -0.0854,-0.0382 -0.0854,-0.0853 v -0.76775 h 0.76773 c 0.0473,0 0.0854,0.0382 0.0854,0.0853 v 0.68244 c 0,0.0471 -0.0381,0.0853 -0.0854,0.0853 z m -2.55915,0 h -1.53547 c -0.047,0 -0.0854,-0.0382 -0.0854,-0.0853 v -2.38854 c 0,-0.0471 0.0382,-0.0853 0.0854,-0.0853 h 2.47383 v 0.85305 h -0.76773 c -0.047,0 -0.0854,0.0382 -0.0854,0.0853 v 1.53549 c 0,0.0471 -0.0382,0.0853 -0.0854,0.0853 z m -2.55915,0 h -5.80072 c -0.047,0 -0.0854,-0.0382 -0.0854,-0.0853 v -5.80073 c 0,-0.0471 0.0381,-0.0853 0.0854,-0.0853 h 5.80072 c 0.047,0 0.0854,0.0382 0.0854,0.0853 v 5.80073 c 0,0.0471 -0.0382,0.0853 -0.0854,0.0853 z m 12.79575,-0.85305 h -1.62079 v -1.62079 c 0,-0.0471 -0.0382,-0.0853 -0.0854,-0.0853 h -0.68245 c -0.047,0 -0.0854,-0.0382 -0.0854,-0.0853 v -0.68244 c 0,-0.0471 -0.0382,-0.0853 -0.0854,-0.0853 h -2.38825 c -0.047,0 -0.0854,-0.0382 -0.0854,-0.0853 v -1.53549 c 0,-0.0471 -0.0381,-0.0853 -0.0854,-0.0853 h -0.68245 c -0.0472,0 -0.0854,-0.0382 -0.0854,-0.0853 v -0.68244 c 0,-0.0471 0.0382,-0.0853 0.0854,-0.0853 h 0.68245 c 0.047,0 0.0854,-0.0382 0.0854,-0.0853 v -1.53548 c 0,-0.0471 0.0382,-0.0853 0.0854,-0.0853 h 1.5355 c 0.047,0 0.0854,-0.0382 0.0854,-0.0853 v -0.68244 c 0,-0.0471 0.0382,-0.0853 0.0854,-0.0853 h 0.76777 v 0.76774 c 0,0.0471 0.0381,0.0853 0.0854,0.0853 h 0.68245 c 0.0472,0 0.0854,-0.0382 0.0854,-0.0853 v -0.76764 h 0.76774 c 0.0469,0 0.0854,0.0382 0.0854,0.0853 v 0.68244 c 0,0.0471 0.0381,0.0853 0.0854,0.0853 h 0.68245 c 0.0472,0 0.0854,0.0382 0.0854,0.0853 v 4.09463 c 0,0.0471 0.0382,0.0853 0.0854,0.0853 h 0.76773 v 0.76774 c 0,0.0471 -0.0382,0.0853 -0.0854,0.0853 h -1.5355 c -0.047,0 -0.0854,0.0382 -0.0854,0.0853 v 0.68244 c 0,0.0471 0.0381,0.0853 0.0854,0.0853 h 0.68245 c 0.0472,0 0.0854,0.0382 0.0854,0.0853 v 0.68244 c 0,0.0471 -0.0382,0.0853 -0.0854,0.0853 z m -8.5305,0 h -0.68242 c -0.047,0 -0.0854,-0.0382 -0.0854,-0.0853 v -0.76775 h 0.76773 c 0.047,0 0.0854,0.0382 0.0854,0.0853 v 0.76774 z m -5.03298,-0.0853 v -4.09464 c 0,-0.0471 -0.0382,-0.0853 -0.0854,-0.0853 h -4.09465 c -0.047,0 -0.0854,0.0382 -0.0854,0.0853 v 4.09464 c 0,0.0471 0.0382,0.0853 0.0854,0.0853 h 4.09465 c 0.047,0 0.0854,-0.0382 0.0854,-0.0853 z m 16.1226,-0.76775 h -0.76774 v -0.76774 c 0,-0.0471 0.0381,-0.0853 0.0854,-0.0853 h 0.68242 c 0.047,0 0.0854,0.0382 0.0854,0.0853 v 0.68244 c 0,0.0471 -0.0382,0.0853 -0.0854,0.0853 z m -9.38352,0 h -0.68242 c -0.047,0 -0.0854,-0.0382 -0.0854,-0.0853 v -0.68244 c 0,-0.0471 0.0381,-0.0853 0.0854,-0.0853 h 0.68242 c 0.047,0 0.0854,0.0382 0.0854,0.0853 v 0.68244 c 0,0.0471 -0.0381,0.0853 -0.0854,0.0853 z m -7.67745,0 h -2.38852 c -0.047,0 -0.0854,-0.0382 -0.0854,-0.0853 v -2.38853 c 0,-0.0471 0.0381,-0.0853 0.0854,-0.0853 h 2.38852 c 0.047,0 0.0854,0.0382 0.0854,0.0853 v 2.38853 c 0,0.0471 -0.0382,0.0853 -0.0854,0.0853 z m 5.97135,-0.85304 h -0.76774 v -0.76775 c 0,-0.0471 -0.0381,-0.0853 -0.0854,-0.0853 h -2.38852 c -0.047,0 -0.0854,-0.0382 -0.0854,-0.0853 v -3.32689 h 0.85305 v 0.76774 c 0,0.0471 0.0382,0.0853 0.0854,0.0853 h 1.53547 c 0.047,0 0.0854,-0.0382 0.0854,-0.0853 v -0.68244 c 0,-0.0471 0.0382,-0.0853 0.0854,-0.0853 h 0.68242 c 0.0469,0 0.0854,-0.0382 0.0854,-0.0853 v -0.76769 h 0.76774 c 0.0473,0 0.0854,-0.0382 0.0854,-0.0853 v -3.24158 c 0,-0.0471 -0.0381,-0.0853 -0.0854,-0.0853 h -0.76774 v -0.76774 c 0,-0.0471 -0.0381,-0.0853 -0.0854,-0.0853 h -0.68242 c -0.047,0 -0.0854,0.0382 -0.0854,0.0853 v 0.68244 c 0,0.0471 0.0382,0.0853 0.0854,0.0853 h 0.76773 v 1.62079 c 0,0.0471 -0.0381,0.0853 -0.0854,0.0853 h -1.53547 c -0.047,0 -0.0854,-0.0382 -0.0854,-0.0853 v -1.53549 c 0,-0.0471 -0.0382,-0.0853 -0.0854,-0.0853 h -0.68242 c -0.0469,0 -0.0854,-0.0382 -0.0854,-0.0853 v -0.76775 h 0.76774 c 0.047,0 0.0854,-0.0382 0.0854,-0.0853 v -0.76775 h 0.76773 c 0.047,0 0.0854,-0.0382 0.0854,-0.0853 v -0.68239 c 0,-0.0471 0.0382,-0.0853 0.0854,-0.0853 h 0.68242 c 0.047,0 0.0854,-0.0382 0.0854,-0.0853 v -0.76774 h 0.76774 c 0.0473,0 0.0854,-0.0382 0.0854,-0.0853 v -0.76775 h 0.76774 c 0.0469,0 0.0854,-0.0382 0.0854,-0.0853 v -0.68244 c 0,-0.0471 0.0382,-0.0853 0.0854,-0.0853 h 0.76776 v 1.70609 h -0.76776 c -0.047,0 -0.0854,0.0382 -0.0854,0.0853 v 0.68244 c 0,0.0471 -0.0382,0.0853 -0.0854,0.0853 h -0.6826 c -0.047,0 -0.0854,0.0382 -0.0854,0.0853 v 1.53549 c 0,0.0471 0.0381,0.0853 0.0854,0.0853 h 0.68242 c 0.047,0 0.0854,-0.0382 0.0854,-0.0853 v -0.68244 c 0,-0.0471 0.0382,-0.0853 0.0854,-0.0853 h 0.68245 c 0.047,0 0.0854,0.0382 0.0854,0.0853 v 0.68244 c 0,0.0471 0.0381,0.0853 0.0854,0.0853 h 0.68245 c 0.047,0 0.0854,-0.0382 0.0854,-0.0853 v -0.68244 c 0,-0.0471 0.0381,-0.0853 0.0854,-0.0853 h 0.76777 v 1.7061 h -2.47387 c -0.047,0 -0.0854,0.0382 -0.0854,0.0853 v 2.38854 c 0,0.0471 0.0382,0.0853 0.0854,0.0853 h 0.68245 c 0.047,0 0.0854,0.0382 0.0854,0.0853 v 0.68244 c 0,0.0471 -0.0382,0.0853 -0.0854,0.0853 h -0.68245 c -0.047,0 -0.0854,0.0382 -0.0854,0.0853 v 0.68244 c 0,0.0471 -0.0381,0.0853 -0.0854,0.0853 h -0.68283 c -0.047,0 -0.0854,0.0382 -0.0854,0.0853 v 0.68243 c 0,0.0471 0.0381,0.0853 0.0854,0.0853 h 0.68242 c 0.047,0 0.0854,0.0382 0.0854,0.0853 v 1.62079 h -1.7061 v -0.76774 c 0,-0.0471 -0.0381,-0.0853 -0.0854,-0.0853 h -0.68242 c -0.047,0 -0.0854,0.0382 -0.0854,0.0853 v 0.68244 c 0,0.0471 0.0382,0.0853 0.0854,0.0853 h 0.76773 v 1.62079 c 0,0.0471 -0.0381,0.0853 -0.0854,0.0853 z m 11.08962,-0.85305 h -1.62079 v -3.32689 c 0,-0.0471 0.0382,-0.0853 0.0854,-0.0853 h 1.53547 c 0.047,0 0.0854,0.0382 0.0854,0.0853 v 3.24158 c 0,0.0471 -0.0382,0.0853 -0.0854,0.0853 z m -8.53047,0 h -0.68245 c -0.047,0 -0.0854,-0.0382 -0.0854,-0.0853 v -0.76774 h 0.76773 c 0.047,0 0.0854,0.0382 0.0854,0.0853 v 0.68244 c 0,0.0471 -0.0382,0.0853 -0.0854,0.0853 z m 4.35056,-0.93836 v -2.38853 c 0,-0.0471 -0.0382,-0.0853 -0.0854,-0.0853 h -2.38855 c -0.0473,0 -0.0854,0.0382 -0.0854,0.0853 v 2.38853 c 0,0.0471 0.0381,0.0853 0.0854,0.0853 h 2.38855 c 0.0473,0 0.0854,-0.0382 0.0854,-0.0853 z m -0.93836,-0.76774 h -0.68245 c -0.047,0 -0.0854,-0.0382 -0.0854,-0.0853 v -0.68244 c 0,-0.0471 0.0382,-0.0853 0.0854,-0.0853 h 0.68245 c 0.047,0 0.0854,0.0382 0.0854,0.0853 v 0.68244 c 0,0.0471 -0.0382,0.0853 -0.0854,0.0853 z m -7.67745,-1.7061 h -0.76774 v -0.76774 c 0,-0.0471 0.0382,-0.0853 0.0854,-0.0853 h 0.68242 c 0.0469,0 0.0854,0.0382 0.0854,0.0853 v 0.68244 c 0,0.0471 -0.0382,0.0853 -0.0854,0.0853 z m -1.7061,0 h -2.38852 c -0.047,0 -0.0854,-0.0382 -0.0854,-0.0853 v -0.68244 c 0,-0.0471 -0.0381,-0.0853 -0.0854,-0.0853 h -3.32689 v -0.85305 h 4.26525 v 0.76774 c 0,0.0471 0.0382,0.0853 0.0854,0.0853 h 1.53547 c 0.047,0 0.0854,0.0382 0.0854,0.0853 v 0.76774 z m -5.97132,0 h -0.68245 c -0.047,0 -0.0854,-0.0382 -0.0854,-0.0853 v -0.68244 c 0,-0.0471 0.0381,-0.0853 0.0854,-0.0853 h 0.76774 v 0.76774 c 0,0.0471 -0.0382,0.0853 -0.0854,0.0853 z m 19.62012,-0.85304 h -0.68246 c -0.047,0 -0.0854,-0.0382 -0.0854,-0.0853 v -0.68244 c 0,-0.0471 -0.0381,-0.0853 -0.0854,-0.0853 h -0.68245 c -0.047,0 -0.0854,-0.0382 -0.0854,-0.0853 v -0.76775 h 1.62081 c 0.047,0 0.0854,-0.0382 0.0854,-0.0853 v -0.68244 c 0,-0.0471 -0.0382,-0.0853 -0.0854,-0.0853 h -0.68245 c -0.047,0 -0.0854,-0.0382 -0.0854,-0.0853 v -1.53548 c 0,-0.0471 -0.0382,-0.0853 -0.0854,-0.0853 h -0.68245 c -0.047,0 -0.0854,-0.0382 -0.0854,-0.0853 v -0.68244 c 0,-0.0471 0.0382,-0.0853 0.0854,-0.0853 h 1.5355 c 0.0469,0 0.0854,-0.0382 0.0854,-0.0853 v -0.68234 c 0,-0.0471 0.0381,-0.0853 0.0854,-0.0853 h 0.68242 c 0.047,0 0.0854,0.0382 0.0854,0.0853 v 1.53549 c 0,0.0471 -0.0381,0.0853 -0.0854,0.0853 h -0.68242 c -0.0473,0 -0.0854,0.0382 -0.0854,0.0853 v 0.68244 c 0,0.0471 0.0381,0.0853 0.0854,0.0853 h 0.68242 c 0.047,0 0.0854,0.0382 0.0854,0.0853 v 2.38854 c 0,0.0471 -0.0381,0.0853 -0.0854,0.0853 h -0.68242 c -0.0473,0 -0.0854,0.0382 -0.0854,0.0853 v 0.68244 c 0,0.0471 -0.0382,0.0853 -0.0854,0.0853 z m -10.2366,0 h -0.68242 c -0.047,0 -0.0854,-0.0382 -0.0854,-0.0853 v -0.68244 c 0,-0.0471 0.0382,-0.0853 0.0854,-0.0853 h 0.68242 c 0.047,0 0.0854,0.0382 0.0854,0.0853 v 0.76775 z m 6.8244,-0.85305 h -0.76774 v -0.85305 h 0.76774 c 0.0473,0 0.0854,0.0382 0.0854,0.0853 v 0.76775 z m -2.55915,0 h -0.68245 c -0.047,0 -0.0854,-0.0382 -0.0854,-0.0853 v -1.53548 c 0,-0.0471 0.0382,-0.0853 0.0854,-0.0853 h 0.68245 c 0.047,0 0.0854,-0.0382 0.0854,-0.0853 v -0.76774 h 2.47383 c 0.0473,0 0.0854,0.0382 0.0854,0.0853 v 0.68244 c 0,0.0471 -0.0382,0.0853 -0.0854,0.0853 h -0.68245 c -0.0469,0 -0.0854,0.0382 -0.0854,0.0853 v 0.76774 h -1.62081 c -0.0472,0 -0.0854,0.0382 -0.0854,0.0853 v 0.68243 c 0,0.0471 -0.0382,0.0853 -0.0854,0.0853 z m -6.8244,0 h -0.68242 c -0.047,0 -0.0854,-0.0382 -0.0854,-0.0853 v -0.68243 c 0,-0.0471 -0.0382,-0.0853 -0.0854,-0.0853 h -0.76774 v -0.76774 c 0,-0.0471 -0.0381,-0.0853 -0.0854,-0.0853 h -1.53547 c -0.047,0 -0.0854,-0.0382 -0.0854,-0.0853 v -1.62079 h 0.85305 v 0.76774 c 0,0.0471 0.0382,0.0853 0.0854,0.0853 h 0.68242 c 0.0469,0 0.0854,-0.0382 0.0854,-0.0853 v -0.76774 h 0.85305 v 1.62079 c 0,0.0471 0.0382,0.0853 0.0854,0.0853 h 0.68242 c 0.047,0 0.0854,0.0382 0.0854,0.0853 v 1.53548 c 0,0.0471 -0.0382,0.0853 -0.0854,0.0853 z m -1.7061,0 h -0.76773 v -0.76774 c 0,-0.0471 0.0382,-0.0853 0.0854,-0.0853 h 0.76773 v 0.76774 c 0,0.0471 -0.0382,0.0853 -0.0854,0.0853 z m -5.11827,0 h -0.68245 c -0.047,0 -0.0854,-0.0382 -0.0854,-0.0853 v -0.68243 c 0,-0.0471 0.0381,-0.0853 0.0854,-0.0853 h 0.76774 v 0.85305 z m 17.91402,-0.85305 h -0.68246 c -0.0469,0 -0.0854,-0.0382 -0.0854,-0.0853 v -1.53549 c 0,-0.0471 0.0382,-0.0853 0.0854,-0.0853 h 0.68246 c 0.0472,0 0.0854,0.0382 0.0854,0.0853 v 1.62079 z m -17.06097,0 h -0.76776 v -0.85305 h 0.76776 c 0.047,0 0.0854,0.0382 0.0854,0.0853 v 0.68244 c 0,0.0471 -0.0382,0.0853 -0.0854,0.0853 z m -0.85305,-0.85305 h -0.68245 c -0.047,0 -0.0854,-0.0382 -0.0854,-0.0853 v -2.38854 c 0,-0.0471 0.0381,-0.0853 0.0854,-0.0853 h 0.76774 v 2.55914 z m 1.7061,-0.85305 h -0.68245 c -0.047,0 -0.0854,-0.0382 -0.0854,-0.0853 v -0.68244 c 0,-0.0471 0.0381,-0.0853 0.0854,-0.0853 h 0.76774 v 0.76774 c 0,0.0471 -0.0382,0.0853 -0.0854,0.0853 z m 15.35487,-0.85305 h -0.68246 c -0.0469,0 -0.0854,-0.0382 -0.0854,-0.0853 v -0.68244 c 0,-0.0471 0.0382,-0.0853 0.0854,-0.0853 h 0.68246 c 0.0469,0 0.0854,0.0382 0.0854,0.0853 v 0.68244 c 0,0.0471 -0.0382,0.0853 -0.0854,0.0853 z m -1.7061,0 h -0.68245 c -0.047,0 -0.0854,-0.0382 -0.0854,-0.0853 v -0.68244 c 0,-0.0471 -0.0381,-0.0853 -0.0854,-0.0853 h -0.76773 v -0.76772 c 0,-0.0471 -0.0382,-0.0853 -0.0854,-0.0853 h -1.5355 c -0.0472,0 -0.0854,-0.0382 -0.0854,-0.0853 v -0.76774 h 0.76774 c 0.0469,0 0.0854,-0.0382 0.0854,-0.0853 v -1.6208 h 0.76774 c 0.0469,0 0.0854,0.0382 0.0854,0.0853 v 1.53548 c 0,0.0471 0.0382,0.0853 0.0854,0.0853 h 1.5355 c 0.047,0 0.0854,0.0382 0.0854,0.0853 v 2.38854 c 0,0.0471 -0.0381,0.0853 -0.0854,0.0853 z m -8.5305,0 h -0.76773 v -0.76774 c 0,-0.0471 -0.0382,-0.0853 -0.0854,-0.0853 h -0.76773 v -0.76773 c 0,-0.0471 -0.0381,-0.0853 -0.0854,-0.0853 h -0.68243 c -0.0469,0 -0.0854,0.0382 -0.0854,0.0853 v 0.76774 h -0.76773 c -0.047,0 -0.0854,0.0382 -0.0854,0.0853 v 0.76774 h -1.7061 v -0.76774 c 0,-0.0471 -0.0382,-0.0853 -0.0854,-0.0853 h -1.62081 v -0.76774 c 0,-0.0471 -0.0382,-0.0853 -0.0854,-0.0853 h -0.68246 c -0.047,0 -0.0854,-0.0382 -0.0854,-0.0853 v -0.68242 c 0,-0.0471 0.0382,-0.0853 0.0854,-0.0853 h 2.38856 c 0.0469,0 0.0854,0.0382 0.0854,0.0853 v 0.68244 c 0,0.0471 0.0381,0.0853 0.0854,0.0853 h 0.68242 c 0.047,0 0.0854,-0.0382 0.0854,-0.0853 v -0.68244 c 0,-0.0471 0.0382,-0.0853 0.0854,-0.0853 h 3.24158 c 0.0469,0 0.0854,-0.0382 0.0854,-0.0853 v -1.53548 c 0,-0.0471 0.0381,-0.0853 0.0854,-0.0853 h 0.68242 c 0.047,0 0.0854,0.0382 0.0854,0.0853 v 2.38853 c 0,0.0471 0.0382,0.0853 0.0854,0.0853 h 0.68242 c 0.047,0 0.0854,0.0382 0.0854,0.0853 v 0.76774 h -0.76774 c -0.047,0 -0.0854,0.0382 -0.0854,0.0853 v 0.76774 z m -1.7061,0 h -0.76773 v -0.85305 h 0.85305 v 0.85305 z m 13.6488,-1.70609 h -0.68246 c -0.047,0 -0.0854,-0.0382 -0.0854,-0.0853 v -0.68242 c 0,-0.0471 0.0382,-0.0853 0.0854,-0.0853 h 0.68246 c 0.0469,0 0.0854,0.0382 0.0854,0.0853 v 0.68244 c 0,0.0471 -0.0382,0.0853 -0.0854,0.0853 z m -9.38355,-0.85305 h -0.68242 c -0.047,0 -0.0854,-0.0382 -0.0854,-0.0853 v -0.76774 h 0.85305 v 0.85305 z m 11.08962,-0.85305 h -5.80072 c -0.047,0 -0.0854,-0.0382 -0.0854,-0.0853 v -5.80073 c 0,-0.0471 0.0382,-0.0853 0.0854,-0.0853 h 5.80072 c 0.047,0 0.0854,0.0382 0.0854,0.0853 v 5.80073 c 0,0.0471 -0.0382,0.0853 -0.0854,0.0853 z m -10.23657,0 h -0.76774 v -0.76774 c 0,-0.0471 -0.0381,-0.0853 -0.0854,-0.0853 h -0.68242 c -0.047,0 -0.0854,0.0382 -0.0854,0.0853 v 0.76774 h -0.76774 c -0.0469,0 -0.0854,-0.0382 -0.0854,-0.0853 v -1.62079 h 1.62079 c 0.047,0 0.0854,-0.0382 0.0854,-0.0853 V -138.86 h 0.76773 c 0.0473,0 0.0854,0.0382 0.0854,0.0853 v 3.32689 z m -5.1183,0 h -5.80072 c -0.047,0 -0.0854,-0.0382 -0.0854,-0.0853 v -5.80073 c 0,-0.0471 0.0381,-0.0853 0.0854,-0.0853 h 5.80072 c 0.047,0 0.0854,0.0382 0.0854,0.0853 v 5.80073 c 0,0.0471 -0.0382,0.0853 -0.0854,0.0853 z m 14.58713,-0.93835 v -4.09464 c 0,-0.0471 -0.0382,-0.0853 -0.0854,-0.0853 h -4.09465 c -0.047,0 -0.0854,0.0382 -0.0854,0.0853 v 4.09464 c 0,0.0471 0.0382,0.0853 0.0854,0.0853 h 4.09465 c 0.047,0 0.0854,-0.0382 0.0854,-0.0853 z m -6.90968,0.0853 h -0.76774 v -1.62079 c 0,-0.0471 -0.0381,-0.0853 -0.0854,-0.0853 h -0.68245 c -0.047,0 -0.0854,-0.0382 -0.0854,-0.0853 v -0.68244 c 0,-0.0471 0.0382,-0.0853 0.0854,-0.0853 h 1.5355 c 0.047,0 0.0854,0.0382 0.0854,0.0853 v 2.47384 z m -8.44518,-0.0853 v -4.09464 c 0,-0.0471 -0.0382,-0.0853 -0.0854,-0.0853 h -4.09465 c -0.047,0 -0.0854,0.0382 -0.0854,0.0853 v 4.09464 c 0,0.0471 0.0382,0.0853 0.0854,0.0853 h 4.09465 c 0.047,0 0.0854,-0.0382 0.0854,-0.0853 z m 14.41653,-0.76774 h -2.38856 c -0.0469,0 -0.0854,-0.0382 -0.0854,-0.0853 v -2.38853 c 0,-0.0471 0.0382,-0.0853 0.0854,-0.0853 h 2.38856 c 0.0469,0 0.0854,0.0382 0.0854,0.0853 v 2.38853 c 0,0.0471 -0.0382,0.0853 -0.0854,0.0853 z m -11.08965,0 h -0.68242 c -0.047,0 -0.0854,-0.0382 -0.0854,-0.0853 v -1.62079 h 0.76773 c 0.047,0 0.0854,0.0382 0.0854,0.0853 v 1.6208 z m -4.26525,0 h -2.38852 c -0.047,0 -0.0854,-0.0382 -0.0854,-0.0853 v -2.38853 c 0,-0.0471 0.0381,-0.0853 0.0854,-0.0853 h 2.38852 c 0.047,0 0.0854,0.0382 0.0854,0.0853 v 2.38853 c 0,0.0471 -0.0382,0.0853 -0.0854,0.0853 z m 5.97135,-1.7061 h -0.68242 c -0.047,0 -0.0854,-0.0382 -0.0854,-0.0853 v -0.68243 c 0,-0.0471 0.0382,-0.0853 0.0854,-0.0853 h 0.68242 c 0.047,0 0.0854,0.0382 0.0854,0.0853 v 0.76774 z m -2.55915,0 h -0.68242 c -0.047,0 -0.0854,-0.0382 -0.0854,-0.0853 v -0.68243 c 0,-0.0471 0.0382,-0.0853 0.0854,-0.0853 h 0.76773 v 0.85305 z m 5.97135,-0.85305 h -2.38852 c -0.047,0 -0.0854,-0.0382 -0.0854,-0.0853 v -0.68244 c 0,-0.0471 0.0381,-0.0853 0.0854,-0.0853 h 0.68242 c 0.047,0 0.0854,-0.0382 0.0854,-0.0853 v -0.68244 c 0,-0.0471 0.0382,-0.0853 0.0854,-0.0853 h 1.5355 c 0.047,0 0.0854,0.0382 0.0854,0.0853 v 1.53549 c 0,0.0471 -0.0382,0.0853 -0.0854,0.0853 z m -5.1183,0 h -0.76774 v -0.76775 c 0,-0.0471 0.0382,-0.0853 0.0854,-0.0853 h 0.76773 v 0.76775 c 0,0.0471 -0.0382,0.0853 -0.0854,0.0853 z m 0.85305,-0.85305 h -0.76774 v -0.76774 c 0,-0.0471 0.0382,-0.0853 0.0854,-0.0853 h 0.68242 c 0.0469,0 0.0854,0.0382 0.0854,0.0853 v 0.68243 c 0,0.0471 -0.0381,0.0853 -0.0854,0.0853 z"
       id="path548"
       style="fill:#2a2e39;fill-opacity:1;stroke:none;stroke-width:0.264583"
       transform="translate(-345.88162,146.55128)" /></g></svg>
